<?xml version="1.0" encoding="UTF-8" standalone="no"?>
<svg
   xmlns:dc="http://purl.org/dc/elements/1.1/"
   xmlns:cc="http://creativecommons.org/ns#"
   xmlns:rdf="http://www.w3.org/1999/02/22-rdf-syntax-ns#"
   xmlns:svg="http://www.w3.org/2000/svg"
   xmlns="http://www.w3.org/2000/svg"
   xmlns:sodipodi="http://sodipodi.sourceforge.net/DTD/sodipodi-0.dtd"
   xmlns:inkscape="http://www.inkscape.org/namespaces/inkscape"
   id="bbc88faa-5a3b-49cf-bdbb-6c9ab11be594"
   data-name="Layer 1"
   width="565.96466"
   height="672.89429"
   viewBox="0 0 565.96466 672.89428"
   version="1.1"
   sodipodi:docname="01.svg"
   inkscape:version="0.92.5 (2060ec1f9f, 2020-04-08)">
  <metadata
     id="metadata95">
    <rdf:RDF>
      <cc:Work
         rdf:about="">
        <dc:format>image/svg+xml</dc:format>
        <dc:type
           rdf:resource="http://purl.org/dc/dcmitype/StillImage" />
      </cc:Work>
    </rdf:RDF>
  </metadata>
  <defs
     id="defs93" />
  <sodipodi:namedview
     pagecolor="#ffffff"
     bordercolor="#666666"
     borderopacity="1"
     objecttolerance="10"
     gridtolerance="10"
     guidetolerance="10"
     inkscape:pageopacity="0"
     inkscape:pageshadow="2"
     inkscape:window-width="1366"
     inkscape:window-height="705"
     id="namedview91"
     showgrid="false"
     inkscape:zoom="0.442126"
     inkscape:cx="-19.052392"
     inkscape:cy="560.69706"
     inkscape:window-x="-8"
     inkscape:window-y="399"
     inkscape:window-maximized="1"
     inkscape:current-layer="bbc88faa-5a3b-49cf-bdbb-6c9ab11be594" />
  <g
     id="g973"
     transform="translate(-87.350025,-81.990984)">
    <ellipse
       style="fill:#000000;fill-opacity:0.40404041;stroke-width:0.87334776"
       id="ellipse12"
       ry="20.88525"
       rx="277.63602"
       cy="734"
       cx="370.33234" />
    <g
       id="g949">
      <g
         id="g922"
         transform="translate(4.3146725)">
        <path
           id="path14"
           transform="translate(-236,-72.55738)"
           d="m 815.26782,806.25045 a 1162.796,1162.796 0 0 0 -412.53564,0 A 15.04906,15.04906 0 0 1 385,791.45826 V 604.55738 h 448 v 186.90088 a 15.04906,15.04906 0 0 1 -17.73218,14.79219 z"
           inkscape:connector-curvature="0"
           style="fill:#ff4545;fill-opacity:1" />
        <path
           id="path16"
           transform="translate(-236,-72.55738)"
           d="m 792,466.55738 a 92.85808,92.85808 0 0 0 -30.39526,5.0863 179.055,179.055 0 0 0 -324.4441,-1.63928 93.00486,93.00486 0 1 0 12.16987,174.74988 179.02647,179.02647 0 0 0 300.7481,-2.16382 A 93.00664,93.00664 0 1 0 792,466.55738 Z"
           inkscape:connector-curvature="0"
           style="fill:#ff4545;fill-opacity:1" />
        <path
           id="path18"
           transform="translate(-236,-72.55738)"
           d="m 421,546.55738 h -2 A 178.40222,178.40222 0 0 1 436.24707,469.572 l 1.80762,0.85644 A 176.41047,176.41047 0 0 0 421,546.55738 Z"
           inkscape:connector-curvature="0"
           style="fill:#3f3d56" />
        <path
           id="path22"
           transform="translate(-236,-72.55738)"
           d="m 385.24121,691.52808 -0.48242,-1.94141 c 0.56445,-0.13964 57.40332,-14.09961 140.70019,-21.02636 76.88086,-6.39258 192.68653,-7.93457 307.78516,21.02734 l -0.48828,1.93945 C 717.93945,662.63746 602.38672,664.17261 525.667,670.55054 c -83.148,6.91113 -139.8628,20.83789 -140.42579,20.97754 z"
           inkscape:connector-curvature="0"
           style="fill:#3f3d56" />
        <path
           id="path24"
           transform="translate(-236,-72.55738)"
           d="m 385.24121,718.52808 -0.48242,-1.94141 c 0.56445,-0.13964 57.40332,-14.09961 140.70019,-21.02636 76.88086,-6.39258 192.68653,-7.93457 307.78516,21.02734 l -0.48828,1.93945 C 717.93945,689.63746 602.38672,691.17456 525.667,697.55054 c -83.148,6.91113 -139.8628,20.83789 -140.42579,20.97754 z"
           inkscape:connector-curvature="0"
           style="fill:#3f3d56" />
        <path
           id="path26"
           transform="translate(-236,-72.55738)"
           d="m 385.24121,745.52808 -0.48242,-1.94141 c 0.56445,-0.13964 57.40332,-14.09961 140.70019,-21.02636 76.88086,-6.39258 192.68653,-7.93457 307.78516,21.02734 l -0.48828,1.93945 C 717.93945,716.63746 602.38672,718.17456 525.667,724.55054 c -83.148,6.91113 -139.8628,20.83789 -140.42579,20.97754 z"
           inkscape:connector-curvature="0"
           style="fill:#3f3d56" />
      </g>
      <path
         id="path20"
         d="m 548.21336,473.5873 h -2 a 176.52632,176.52632 0 0 0 -16.29395,-74.501 l 1.81641,-0.83789 a 178.51046,178.51046 0 0 1 16.47754,75.33889 z"
         inkscape:connector-curvature="0"
         style="fill:#3f3d56" />
    </g>
    <g
       transform="translate(-152.16766,-89.562657)"
       id="g914">
      <path
         style="fill:#2f2e41"
         inkscape:connector-curvature="0"
         d="m 753.26693,598.71334 -24.23035,-8.23834 23.26113,-118.72871 -15.992,-1.45382 c -15.594,11.96435 -36.35984,16.65481 -62.99891,13.08438 l 42.64542,64.45274 -21.745,15.34942 -69.368,-83.20523 A 20.866,20.866 0 0 1 620,466.61227 v 0 a 20.866,20.866 0 0 1 15.0905,-20.05076 l 74.07719,-21.33751 86.74466,9.69214 c 13.11467,19.99417 13.62744,33.89954 -6.33645,37.911 z"
         transform="translate(-236,-72.55738)"
         id="path28" />
      <path
         style="fill:#2f2e41"
         inkscape:connector-curvature="0"
         d="m 728.46691,644.90106 v 0 a 15.95869,15.95869 0 0 1 -13.86555,-21.711 l 12.046,-30.97551 c 6.11869,-11.59112 14.5164,-10.14011 24.43261,0 l 4.84611,14.21526 a 9.17534,9.17534 0 0 1 -0.53485,7.176 l -11.7415,22.70019 a 15.95871,15.95871 0 0 1 -15.18282,8.59506 z"
         transform="translate(-236,-72.55738)"
         id="path30" />
      <path
         style="fill:#2f2e41"
         inkscape:connector-curvature="0"
         d="m 697.15218,604.33834 v 0 a 15.95869,15.95869 0 0 1 -13.86555,-21.711 l 12.046,-30.97551 c 6.11869,-11.59113 14.51641,-10.14012 24.43261,0 l 4.84611,14.21525 a 9.17537,9.17537 0 0 1 -0.53485,7.176 l -11.7415,22.70023 a 15.9587,15.9587 0 0 1 -15.18282,8.59503 z"
         transform="translate(-236,-72.55738)"
         id="path32" />
      <circle
         style="fill:#ffb9b9"
         cx="476.55994"
         cy="212.13062"
         r="27.137991"
         id="circle34" />
      <polygon
         style="fill:#ffb9b9"
         points="499.336,218.915 518.721,250.415 481.406,269.799 473.652,234.907 "
         id="polygon36" />
      <path
         style="fill:#3f3d56"
         inkscape:connector-curvature="0"
         d="m 799.7892,439.76224 c -37.23393,-11.24605 -71.01788,-17.07317 -95.46758,-8.23832 8.42738,-23.70818 -7.12737,-59.91146 -24.23035,-96.9214 7.37949,-9.64677 19.14576,-13.38347 32.46867,-15.02282 14.5769,10.5844 24.74122,3.79091 32.46867,-12.59978 16.85358,-0.67652 33.095,5.29186 48.94531,15.50743 -12.39037,39.68604 -10.15992,78.76558 5.81528,117.27489 z"
         transform="translate(-236,-72.55738)"
         id="path38" />
      <path
         style="fill:#3f3d56"
         inkscape:connector-curvature="0"
         d="m 703.837,437.33921 c -5.87952,3.4656 -11.3058,9.30325 -16.47664,16.47664 -8.73817,-5.349 -16.42816,-11.439 -22.48592,-18.68294 a 40.01122,40.01122 0 0 1 -7.33032,-37.42892 l 16.56053,-53.82173 a 23.60967,23.60967 0 0 1 7.67755,-11.38054 l 2.18592,-1.776 21.80731,41.19159 -21.80731,40.707 c 2.76544,7.41461 10.91455,15.97879 19.86888,24.7149 z"
         transform="translate(-236,-72.55738)"
         id="path40" />
      <path
         style="fill:#ffb9b9"
         inkscape:connector-curvature="0"
         d="m 711.343,478.37478 v 0 a 14.00455,14.00455 0 0 1 -19.66674,-10.71872 l -3.60426,-24.67451 12.59979,-6.7845 15.9909,20.93355 a 14.00455,14.00455 0 0 1 -5.31969,21.24418 z"
         transform="translate(-236,-72.55738)"
         id="path42" />
      <path
         style="fill:#2f2e41"
         inkscape:connector-curvature="0"
         d="m 739.94024,283.50047 -4.63369,0.13763 -12.853,-18.20724 c -16.46951,1.70257 -29.96494,8.858 -41.38524,19.81828 l -1.15795,-7.71966 a 29.10153,29.10153 0 0 1 22.90286,-32.81892 h 6e-5 a 29.10153,29.10153 0 0 1 34.57213,23.6573 z"
         transform="translate(-236,-72.55738)"
         id="path44" />
      <path
         style="fill:#ffb9b9"
         inkscape:connector-curvature="0"
         d="m 687.82806,453.82563 v 0 a 14.00456,14.00456 0 0 1 10.71872,-19.66675 l 24.67452,-3.60414 6.7845,12.59978 -20.93356,15.99088 a 14.00455,14.00455 0 0 1 -21.24418,-5.31977 z"
         transform="translate(-236,-72.55738)"
         id="path46" />
      <path
         style="fill:#3f3d56"
         inkscape:connector-curvature="0"
         d="m 804.49034,431.38118 c -23.4754,1.82279 -49.10633,9.14326 -75.93837,19.527 a 37.12074,37.12074 0 0 0 -8.23832,-21.80731 c 24.37008,-6.41874 46.48406,-13.95144 60.09127,-25.68417 l -8.23832,-62.0297 17.93046,-20.35349 3.09274,1.6136 a 20.65228,20.65228 0 0 1 10.4691,13.14326 c 7.57071,29.449 10.93351,57.66486 8.62195,84.21782 a 10.47079,10.47079 0 0 1 -7.79051,11.37299 z"
         transform="translate(-236,-72.55738)"
         id="path48" />
    </g>
  </g>
</svg>
