<?xml version="1.0" encoding="UTF-8" standalone="no"?>
<svg
   xmlns:dc="http://purl.org/dc/elements/1.1/"
   xmlns:cc="http://creativecommons.org/ns#"
   xmlns:rdf="http://www.w3.org/1999/02/22-rdf-syntax-ns#"
   xmlns:svg="http://www.w3.org/2000/svg"
   xmlns="http://www.w3.org/2000/svg"
   xmlns:xlink="http://www.w3.org/1999/xlink"
   xmlns:sodipodi="http://sodipodi.sourceforge.net/DTD/sodipodi-0.dtd"
   xmlns:inkscape="http://www.inkscape.org/namespaces/inkscape"
   width="932.62653"
   height="608.63562"
   data-name="Layer 1"
   version="1.1"
   viewBox="0 0 932.62653 608.63562"
   id="svg157"
   sodipodi:docname="Ar.svg"
   inkscape:version="0.92.5 (2060ec1f9f, 2020-04-08)">
  <sodipodi:namedview
     pagecolor="#ffffff"
     bordercolor="#666666"
     borderopacity="1"
     objecttolerance="10"
     gridtolerance="10"
     guidetolerance="10"
     inkscape:pageopacity="0"
     inkscape:pageshadow="2"
     inkscape:window-width="1366"
     inkscape:window-height="705"
     id="namedview159"
     showgrid="false"
     inkscape:zoom="0.36776062"
     inkscape:cx="16.771504"
     inkscape:cy="304.61801"
     inkscape:window-x="-8"
     inkscape:window-y="399"
     inkscape:window-maximized="1"
     inkscape:current-layer="svg157" />
  <metadata
     id="metadata2">
    <rdf:RDF>
      <cc:Work
         rdf:about="">
        <dc:format>image/svg+xml</dc:format>
        <dc:type
           rdf:resource="http://purl.org/dc/dcmitype/StillImage" />
        <dc:title>web_devices</dc:title>
      </cc:Work>
    </rdf:RDF>
  </metadata>
  <defs
     id="defs15">
    <linearGradient
       id="deacd444-d5db-4c24-9492-02e57292be3c"
       x1="675.04999"
       x2="675.04999"
       y1="606.02002"
       y2="240.27"
       gradientUnits="userSpaceOnUse">
      <stop
         stop-color="gray"
         stop-opacity=".25"
         offset="0"
         id="stop4" />
      <stop
         stop-color="gray"
         stop-opacity=".12"
         offset=".54"
         id="stop6" />
      <stop
         stop-color="gray"
         stop-opacity=".1"
         offset="1"
         id="stop8" />
    </linearGradient>
    <linearGradient
       id="a1de9c2c-a914-4f57-a703-6b671b828453"
       x1="473.94"
       x2="473.94"
       y1="635.65002"
       y2="301.64999"
       gradientTransform="translate(-82,-130)"
       xlink:href="#deacd444-d5db-4c24-9492-02e57292be3c" />
    <linearGradient
       id="33ead0d0-8f65-4117-bca2-44ecb419ecb0"
       x1="363.44"
       x2="363.44"
       y1="662.65002"
       y2="401.64999"
       gradientTransform="translate(-82,-130)"
       xlink:href="#deacd444-d5db-4c24-9492-02e57292be3c" />
    <linearGradient
       id="9a5964b5-9011-4675-8f60-8033350848c0"
       x1="849.67999"
       x2="849.67999"
       y1="703.65997"
       y2="385.5"
       gradientTransform="translate(-82,-130)"
       xlink:href="#deacd444-d5db-4c24-9492-02e57292be3c" />
    <linearGradient
       id="linearGradient949"
       x1="675.04999"
       x2="675.04999"
       y1="606.02002"
       y2="240.27"
       gradientTransform="translate(-82,-130)"
       gradientUnits="userSpaceOnUse"
       xlink:href="#deacd444-d5db-4c24-9492-02e57292be3c" />
    <linearGradient
       id="linearGradient949-7"
       x1="675.04999"
       x2="675.04999"
       y1="606.02002"
       y2="240.27"
       gradientTransform="translate(-82,-130)"
       gradientUnits="userSpaceOnUse"
       xlink:href="#deacd444-d5db-4c24-9492-02e57292be3c" />
    <linearGradient
       id="a1de9c2c-a914-4f57-a703-6b671b828453-0"
       x1="473.94"
       x2="473.94"
       y1="635.65002"
       y2="301.64999"
       gradientTransform="translate(-82,-130)"
       xlink:href="#deacd444-d5db-4c24-9492-02e57292be3c" />
    <linearGradient
       id="33ead0d0-8f65-4117-bca2-44ecb419ecb0-9"
       x1="363.44"
       x2="363.44"
       y1="662.65002"
       y2="401.64999"
       gradientTransform="translate(-82,-130)"
       xlink:href="#deacd444-d5db-4c24-9492-02e57292be3c" />
    <linearGradient
       id="9a5964b5-9011-4675-8f60-8033350848c0-4"
       x1="849.67999"
       x2="849.67999"
       y1="703.65997"
       y2="385.5"
       gradientTransform="translate(-82,-130)"
       xlink:href="#deacd444-d5db-4c24-9492-02e57292be3c" />
  </defs>
  <title
     id="title17">web_devices</title>
  <g
     transform="matrix(0.75056839,0,0,0.75056839,38.724654,62.873135)"
     id="g155">
    <path
       d="M 184.87,564.62 C 62.68,535.252 110.862,401.29 122.63,365.51 c 6.7521,-28.399 10.445,-56.994 4.7452,-85.304 -4.8347,-24.33 -7.9348,-120.86 55.568,-174.06 64.581,-47.895 158.27,-42.429 210.48,-9.3927 55.963,34.824 54.503,130.47 109.02,109.84 61.44,-86.663 85.479,-176.21 222.69,-187.47 101.43,-10.196 183.86,25.164 215.24,74.267 40.095,62.733 -8.7234,105.67 -97.161,182.26 -9.91,8.5827 -315.8,-134.24 -315.8,-112.7 0,20.813 -5.2069,37.171 -26.922,84.577 -24.56,53.618 -27.983,66.59 -27.736,105.11 0.1145,17.854 -1.0045,36.967 -2.4869,42.472 -6.5687,24.394 -25.689,35.083 -80.436,44.965 -52.915,9.5517 -53.698,10.042 -72.003,45.097 -27.068,51.837 -46.248,71.528 -77.634,79.703 -19.386,5.0496 -35.87,4.9732 -55.33,-0.25642 z"
       style="fill:#ff4545;paint-order:normal"
       id="path19"
       inkscape:connector-curvature="0" />
    <ellipse
       cx="571"
       cy="501.48001"
       rx="465"
       ry="124.52"
       id="ellipse21"
       style="fill:#f5f5f5" />
    <path
       d="m 957.18,200.86 c 0,0 -35.83,35.83 -15.6,89 20.23,53.17 -34.68,141.59 -34.68,141.59 0,0 0.59,-0.09 1.68,-0.28 73.59,-13 110.16,-97.16 69.24,-159.69 -15.21,-23.24 -27.7,-50.48 -20.64,-70.62 z"
       id="path23"
       inkscape:connector-curvature="0"
       style="fill:#ff4545" />
    <path
       d="m 957.18,200.86 c 0,0 -20.23,43.92 0,79.75 20.23,35.83 3.47,136.39 -50.28,150.84"
       stroke-miterlimit="10"
       id="path25"
       inkscape:connector-curvature="0"
       style="fill:none;stroke:#535461;stroke-width:2;stroke-miterlimit:10" />
    <path
       d="m 1021,345.79 c 0,0 -40.89,-6.51 -44.61,30.13 -3.72,36.64 -78.62,41.72 -78.62,41.72 l 1.4,0.93 c 61.84,40.59 121,25.86 112,-28 -3.27,-20.08 -3,-40.21 9.83,-44.78 z"
       id="path27"
       inkscape:connector-curvature="0"
       style="fill:#ff4545" />
    <path
       d="m 1021,345.79 c 0,0 -40.89,-6.51 -44.61,30.13 -3.72,36.64 -78.62,41.72 -78.62,41.72 l 1.4,0.93 c 61.84,40.59 121,25.86 112,-28 -3.27,-20.08 -3,-40.21 9.83,-44.78 z"
       id="path29"
       inkscape:connector-curvature="0"
       style="opacity:0.2;fill:#ff4545" />
    <path
       d="m 1021,345.79 c 0,0 -31.74,7 -29.13,35.82 2.61,28.82 -47.13,63.45 -94.1,36"
       stroke-miterlimit="10"
       id="path31"
       inkscape:connector-curvature="0"
       style="fill:none;stroke:#535461;stroke-width:2;stroke-miterlimit:10" />
    <path
       d="m 926.37,433.92 h -64.24 a 21.42,21.42 0 0 0 2.24,-9.57 V 131.79 A 21.51,21.51 0 0 0 842.86,110.28 H 345.52 A 21.51,21.51 0 0 0 324,131.79 v 292.57 a 21.42,21.42 0 0 0 2.24,9.57 h -66.51 a 5.69,5.69 0 0 0 -5.69,5.69 v 4.59 A 31.82,31.82 0 0 0 285.86,476 h 614.38 a 31.82,31.82 0 0 0 31.82,-31.82 v -4.59 a 5.69,5.69 0 0 0 -5.69,-5.67 z m -395.89,18.2 -5.48,-6.25 h 136.72 l -6.1,6.26 z"
       id="path33"
       inkscape:connector-curvature="0"
       style="fill:url(#linearGradient949-7)" />
    <rect
       x="330.10999"
       y="114.42"
       width="528.12"
       height="327.98999"
       rx="23.26"
       ry="23.26"
       id="rect35"
       style="fill:#535461" />
    <rect
       x="341.22"
       y="162.23"
       width="504.76999"
       height="267.95001"
       id="rect37"
       style="fill:#ffffff" />
    <circle
       cx="593.60999"
       cy="138.88"
       r="4.4499998"
       id="circle39"
       style="fill:#ffffff" />
    <path
       d="M 671.55,430.73 654.2,448.52 H 531.9 L 516.23,430.73 H 267.29 a 5.56,5.56 0 0 0 -5.56,5.56 v 4.48 a 31.1,31.1 0 0 0 31.1,31.1 h 600.45 a 31.1,31.1 0 0 0 31.1,-31.1 v -4.48 a 5.56,5.56 0 0 0 -5.56,-5.56 z"
       id="path41"
       inkscape:connector-curvature="0"
       style="fill:#535461" />
    <path
       d="M 498.41,171.65 H 285.48 a 19.51,19.51 0 0 0 -19.53,19.48 v 295 a 19.51,19.51 0 0 0 19.53,19.48 h 212.93 a 19.51,19.51 0 0 0 19.53,-19.48 v -295 a 19.51,19.51 0 0 0 -19.53,-19.48 z"
       id="path43"
       inkscape:connector-curvature="0"
       style="fill:url(#a1de9c2c-a914-4f57-a703-6b671b828453-0)" />
    <rect
       x="268.94"
       y="175.64999"
       width="246"
       height="327"
       rx="20"
       ry="20"
       id="rect45"
       style="fill:#535461" />
    <g
       id="g53"
       style="fill:#ffffff">
      <rect
         x="281.44"
         y="206.58"
         width="221"
         height="265.14001"
         id="rect47" />
      <circle
         cx="390.94"
         cy="190.64999"
         r="3"
         id="circle49" />
      <circle
         cx="390.94"
         cy="486.64999"
         r="9"
         id="circle51" />
    </g>
    <path
       d="M 336.11,271.65 H 226.78 a 10.81,10.81 0 0 0 -10.83,10.79 v 239.42 a 10.81,10.81 0 0 0 10.83,10.79 h 109.33 a 10.81,10.81 0 0 0 10.83,-10.79 V 282.44 a 10.81,10.81 0 0 0 -10.83,-10.79 z"
       id="path55"
       inkscape:connector-curvature="0"
       style="fill:url(#33ead0d0-8f65-4117-bca2-44ecb419ecb0-9)" />
    <rect
       x="216.94"
       y="273.64999"
       width="129"
       height="258"
       rx="11"
       ry="11"
       id="rect57"
       style="fill:#535461" />
    <g
       id="g67"
       style="fill:#ffffff">
      <rect
         x="226.44"
         y="297.64999"
         width="110"
         height="210"
         id="rect59" />
      <circle
         cx="268.44"
         cy="285.64999"
         r="1"
         id="circle61" />
      <rect
         x="273.44"
         y="284.64999"
         width="22"
         height="2"
         rx="1"
         ry="1"
         id="rect63" />
      <circle
         cx="280.94"
         cy="517.65002"
         r="7"
         id="circle65" />
    </g>
    <path
       d="m 995,407.1 c -11.07,-13.43 -24.48,-28.86 -22.6,-46.73 1.52,-14.47 -2.12,-27.85 -1.4,-42.37 1,-20.63 -3.14,-36.78 -18,-50 -8.68,-7.73 -23.19,-13.8 -27.51,-12.25 -8.56,3.06 -17.9,1.89 -26.71,4 -6.69,1.56 -11.14,4 -13.9,7 -5.55,5 -5.64,12 -3.11,19.45 A 32.85,32.85 0 0 0 898,332.28 c -6.17,2.58 -11.5,8.52 -13.58,20.58 a 140.68,140.68 0 0 1 -6.53,24.31 39.51,39.51 0 0 1 -4,1.61 c 0.3,0.12 0.61,0.2 0.91,0.31 -0.65,0.25 -1.29,0.5 -2,0.72 a 21.21,21.21 0 0 0 3.65,1.06 c -8,20.21 -18,32.73 -18,32.73 0,0 -18.65,4.12 -25.9,-3.09 0,0 1.18,1.38 2.78,3.45 -7.09,-2.94 -18.73,-7.74 -28.68,-11.69 -7.22,-2.87 -9.07,0 -9,4 a 13.32,13.32 0 0 0 -5,1.68 48.67,48.67 0 0 0 -6.69,-3.6 c -4.14,-1 -17.61,-8.24 -31.08,16.47 -7.84,14.37 -27.94,40.6 -43.39,60 -30.05,13.82 -69.17,31.32 -83.71,35.72 h -9.32 c -1.22,-2 -2.07,-3.26 -2.07,-3.26 l -0.72,0.48 -0.31,-0.48 c 0,0 -18.3,12.67 -36.88,12.77 a 35,35 0 0 1 -7.84,-1 c -8.54,-2.15 -14.56,-3.11 -18.86,-3 -5.09,-0.09 -8,1.12 -9.76,3.4 a 8.94,8.94 0 0 0 -0.65,0.94 11.05,11.05 0 0 0 -0.54,1 c -0.16,0.36 -0.32,0.74 -0.46,1.13 a 2.32,2.32 0 0 0 0.58,1.95 10.42,10.42 0 0 0 0.81,1 l 0.52,0.56 c 2.34,2.42 6.6,5.63 11.9,9.21 1.53,1 3.15,2.1 4.84,3.19 l 3.21,2 2.87,1.79 1.15,0.71 1.28,0.78 2.29,1.39 1.36,0.82 2.57,1.53 2.08,1.23 c 5.44,3.21 10.86,6.32 15.75,9.08 l 3.42,2.04 0.33,0.18 2.2,1.23 3.8,2.11 2.61,1.44 1.22,0.67 1.31,0.72 0.26,0.14 2.28,1.24 a 3.3,3.3 0 0 0 2.66,-0.72 c 0.66,-2.8 2.27,-8.8 4,-9.26 1.73,-0.46 9.22,-13.55 11.33,-22.31 h 20.22 a 89.13,89.13 0 0 0 11.84,-1.82 c -5.22,3.72 -10.39,6.06 -14.41,5.06 -8.5,-2.11 -16.55,3.07 -17.36,8.18 0,0.11 -0.07,0.21 -0.1,0.32 -0.03,0.11 -0.05,0.21 -0.07,0.31 -0.02,0.1 -0.06,0.25 -0.08,0.38 -0.02,0.13 0,0.21 0,0.32 v 0.38 0.31 0.39 0.3 c 0,0.1 0.06,0.27 0.1,0.41 0.04,0.14 0,0.18 0.07,0.26 a 5,5 0 0 0 0.22,0.53 l 0.05,0.13 a 5.38,5.38 0 0 0 0.38,0.63 l 0.16,0.21 c 0.1,0.14 0.21,0.28 0.33,0.41 l 0.23,0.23 c 0.12,0.12 0.25,0.24 0.38,0.36 l 0.28,0.23 0.45,0.33 0.33,0.22 0.54,0.32 0.36,0.19 0.68,0.32 0.34,0.15 c 0.36,0.15 0.74,0.29 1.15,0.42 0.65,0.21 1.42,0.43 2.29,0.65 l 0.87,0.21 1.27,0.29 0.67,0.15 q 1.3,0.28 2.76,0.56 l 1.35,0.25 1.1,0.2 2.53,0.44 c 1.58,0.27 3.23,0.54 5,0.8 l 4.36,0.66 5.68,0.81 1.26,0.17 2,0.28 2.93,0.39 2,0.26 5.19,0.66 1.62,0.2 3.27,0.4 c 4.3,0.52 8.46,1 12.29,1.43 l 4.43,0.5 2.24,0.25 1,0.1 2.68,0.29 1.49,0.16 1.84,0.19 2.59,0.27 h 0.28 l 1.66,0.17 a 1.51,1.51 0 0 0 1.67,-1.47 v -0.17 a 1.46,1.46 0 0 0 0.24,-0.78 34,34 0 0 1 0.93,-7.32 c 0.11,-0.41 0.24,-0.83 0.38,-1.25 l 0.16,-0.48 c 0.18,-0.51 0.36,-1 0.57,-1.55 a 11.12,11.12 0 0 0 0.39,-1.14 c 0,-0.12 0.07,-0.24 0.11,-0.37 0.04,-0.13 0.1,-0.41 0.14,-0.62 2.08,-7.11 -0.43,-20.37 -1.15,-25.58 a 27.77,27.77 0 0 0 -1.14,-4.9 2,2 0 0 0 0.39,0 11.79,11.79 0 0 0 3,-1.63 c 15.28,-5.45 28.16,-11.68 32.23,-17.92 a 27.91,27.91 0 0 1 19.68,2.06 c 7.91,3.93 67.75,23.46 95.61,32.48 5,4.31 8.92,6.83 11.09,6.64 0,0 35.47,5.74 49.73,-5.46 1.27,0.88 2.07,1.35 2.07,1.35 0,0 20.72,-10.29 23.83,-23.68 1,-4.34 1.91,-10.74 2.84,-17.82 a 25.91,25.91 0 0 0 7.52,-18.21 c 0.65,-22.48 9.36,-48.16 15.82,-71 7.84,0.62 10.87,-0.86 18.06,-4.41 l -0.32,-0.41 c 0.51,-0.3 0.96,-0.5 1.41,-0.72 z m -118.79,33.67 -4,-1.33 a 33,33 0 0 0 3.45,-5.74 z m -22.29,9.46 24,14.4 0.21,2.93 a 21,21 0 0 0 0.2,6.7 c -10.58,-9.4 -22.96,-20.81 -24.42,-24.04 z m -9.8,-21 c -2.62,-1.08 -4.79,-2.06 -6.28,-2.87 2,0.14 3.9,0.26 5.56,0.35 a 12.44,12.44 0 0 1 0.72,2.52 z m -64.28,23.47 c 0,0 4.14,-9.26 13.47,6.18 1.45,2.4 4.12,6.22 7.65,10.95 L 773.8,466.2 c 3.2,-4.96 5.35,-9.57 6.04,-13.49 z"
       id="path69"
       inkscape:connector-curvature="0"
       style="fill:url(#9a5964b5-9011-4675-8f60-8033350848c0-4)" />
    <path
       d="m 839.5,415.5 c 0,0 -19,-8 -34,-14 -15,-6 -6,14 -6,14 0,0 25,7 25,8 0,1 21,2 21,2 z"
       id="path71"
       inkscape:connector-curvature="0"
       style="fill:#f7c4a7" />
    <path
       d="m 839.5,415.5 c 0,0 -19,-8 -34,-14 -15,-6 -6,14 -6,14 0,0 25,7 25,8 0,1 21,2 21,2 z"
       id="path73"
       inkscape:connector-curvature="0"
       style="opacity:0.05" />
    <path
       d="m 920.5,336.5 c 0,0 -34,-18 -40,17 -6,35 -25,59 -25,59 0,0 -18,4 -25,-3 0,0 17,20 9,22 0,0 18,13 26,9 8,-4 14,-31 17,-38 3,-7 14,-68 38,-66 z"
       id="path75"
       inkscape:connector-curvature="0"
       style="fill:#575988" />
    <path
       d="m 920.5,336.5 c 0,0 -34,-18 -40,17 -6,35 -25,59 -25,59 0,0 -18,4 -25,-3 0,0 17,20 9,22 0,0 18,13 26,9 8,-4 14,-31 17,-38 3,-7 14,-68 38,-66 z"
       id="path77"
       inkscape:connector-curvature="0"
       style="opacity:0.1" />
    <g
       id="g85"
       style="fill:#f7c4a7">
      <path
         d="m 901.5,324.5 c 0,0 21,24 22,44 1,20 24,-21 26,-22 2,-1 -20,-35 -22,-46 -2,-11 -26,24 -26,24 z"
         id="path79"
         inkscape:connector-curvature="0" />
      <polygon
         transform="translate(0,14)"
         points="902.75,332.75 909,358 926,342 924,326 916,320.75 "
         id="polygon81" />
      <polygon
         transform="translate(0,14)"
         points="616.5,498.5 625.5,520.5 647.5,514.5 639.5,498.5 "
         id="polygon83" />
    </g>
    <path
       d="m 621.82,509.33 c 0,0 -23.82,16.59 -44.17,11.43 -20.35,-5.16 -25.88,-3.23 -28.25,3.43 -2.19,6.13 56.84,38.55 66.25,43.67 a 1.08,1.08 0 0 0 1.57,-0.7 c 0.64,-2.72 2.19,-8.55 3.85,-9 2.16,-0.58 12,-19 11.46,-26.24 -0.54,-7.24 -10.71,-22.59 -10.71,-22.59 z"
       id="path87"
       inkscape:connector-curvature="0"
       style="opacity:0.1" />
    <path
       d="m 620.82,509.33 c 0,0 -23.82,16.59 -44.17,11.43 -20.35,-5.16 -25.88,-3.23 -28.25,3.43 -2.19,6.13 56.84,38.55 66.25,43.67 a 1.08,1.08 0 0 0 1.57,-0.7 c 0.64,-2.72 2.19,-8.55 3.85,-9 2.16,-0.58 12,-19 11.46,-26.24 -0.54,-7.24 -10.71,-22.59 -10.71,-22.59 z"
       id="path89"
       inkscape:connector-curvature="0"
       style="fill:#fd6868" />
    <path
       d="m 817.5,469.5 -67,-9 c 0,0 -109,52 -122,53 l 3,23 h 20 c 8,0 86,-17 97,-34 a 26.78,26.78 0 0 1 19,2 c 10,5 106,36 106,36 z"
       id="path91"
       inkscape:connector-curvature="0"
       style="fill:#575988" />
    <path
       d="m 817.5,469.5 -67,-9 c 0,0 -109,52 -122,53 l 3,23 h 20 c 8,0 86,-17 97,-34 a 26.78,26.78 0 0 1 19,2 c 10,5 106,36 106,36 z"
       id="path93"
       inkscape:connector-curvature="0"
       style="opacity:0.1" />
    <polygon
       transform="translate(0,14)"
       points="687.5,500.5 698.5,506.5 714.5,494.5 698.5,486.5 "
       id="polygon95"
       style="fill:#f7c4a7" />
    <path
       d="m 889.5,484.5 c 0,0 -36,-30.82 -38.49,-36.41 -2.49,-5.59 -61.51,-43.59 -65.51,-44.59 -4,-1 -17,-8 -30,16 -13,24 -61,82 -61,82 0,0 15,21 20,20 5,-1 61,-48 65,-71 0,0 4,-9 13,6 9,15 67,87 78,86 0,0 43,7 52,-10 9,-17 -33,-48 -33,-48 z"
       id="path97"
       inkscape:connector-curvature="0"
       style="fill:#575988" />
    <path
       d="m 910,338 c 0,0 -12.5,5.5 -13.5,28.5 -1,23 -23,62 -23,62 l 2,46 c 0,0 24,24 26,39 2,15 19,25 19,25 0,0 20,-10 23,-23 3,-13 5,-45 10,-57 5,-12 2,-87 2,-87 l -15,-26 -8,-9 -21,24 c 0,0 -11.5,-15.5 -1.5,-22.5 z"
       id="path99"
       inkscape:connector-curvature="0"
       style="fill:#dddbe2" />
    <path
       d="m 880.5,459.5 c 0,0 -3,-36 6,-44 l 18,-51 c 0,0 6.5,-24.5 5.5,-26.5 -1,-2 -23.5,19.5 -23.5,19.5 l -15,53 4,56 z"
       id="path101"
       inkscape:connector-curvature="0"
       style="opacity:0.1" />
    <path
       d="m 879.5,459.5 c 0,0 -3,-36 6,-44 l 18,-51 c 0,0 7,-25 6,-27 -1,-2 -24,20 -24,20 l -15,53 4,56 z"
       id="path103"
       inkscape:connector-curvature="0"
       style="fill:#575988" />
    <path
       d="m 886.5,443.5 c 0,0 -50,-16 -53,-20 -3,-4 -35,-30 -46,-12 -11,18 41,23 41,23 l 53,32 z"
       id="path105"
       inkscape:connector-curvature="0"
       style="fill:#f7c4a7" />
    <path
       d="m 700.67,514.41 -14.8,-2.66 c 0,0 -24.24,31.05 -36.87,27.9 -12.63,-3.15 -24.25,10.44 -10.91,14.8 12.05,3.94 64.09,9.45 74,10.47 a 1.46,1.46 0 0 0 1.61,-1.42 31.84,31.84 0 0 1 2.3,-11.27 c 2.67,-6.55 0,-20.62 -0.74,-26 a 25.83,25.83 0 0 0 -2.91,-9 z"
       id="path107"
       inkscape:connector-curvature="0"
       style="opacity:0.1" />
    <path
       d="m 700.42,515.38 -14.8,-2.66 c 0,0 -24.24,31.05 -36.85,27.91 -12.61,-3.14 -24.25,10.44 -10.91,14.8 12.05,3.94 64.09,9.45 74,10.47 a 1.46,1.46 0 0 0 1.61,-1.42 31.84,31.84 0 0 1 2.21,-11.26 c 2.67,-6.55 0,-20.62 -0.74,-26 a 25.83,25.83 0 0 0 -2.91,-9 z"
       id="path109"
       inkscape:connector-curvature="0"
       style="fill:#fd6868" />
    <circle
       cx="909"
       cy="304"
       r="32"
       id="circle111"
       style="opacity:0.1" />
    <circle
       cx="906"
       cy="304"
       r="32"
       id="circle113"
       style="fill:#f7c4a7" />
    <path
       d="m 937.5,335.5 c 0,0 38,13 38,40 0,27 -21,70 -22,105 -1,35 -56,30 -56,30 0,0 -8,-118 0,-127 8,-9 44,-44 40,-48 z"
       id="path115"
       inkscape:connector-curvature="0"
       style="fill:#575988" />
    <path
       d="m 930.5,391.5 c 0,0 -14,62 -47,51 0,0 -17,25 -5,36 0,0 29,7 48,-12 19,-19 33,-26 36,-49 3,-23 5,-55 -5,-52 -10,3 -27,26 -27,26 z"
       id="path117"
       inkscape:connector-curvature="0"
       style="opacity:0.1" />
    <path
       d="m 931.5,390.5 c 0,0 -14,62 -47,51 0,0 -17,25 -5,36 0,0 29,7 48,-12 19,-19 33,-26 36,-49 3,-23 5,-55 -5,-52 -10,3 -27,26 -27,26 z"
       id="path119"
       inkscape:connector-curvature="0"
       style="fill:#575988" />
    <g
       id="g127"
       style="fill:#dddbe2">
      <path
         d="m 716.54,550 c 0,0.09 -0.06,0.2 -0.09,0.28 a 29.28,29.28 0 0 0 -1.57,5.29 c 0.24,-0.78 0.52,-1.58 0.84,-2.38 a 14.52,14.52 0 0 0 0.82,-3.19 z"
         id="path121"
         inkscape:connector-curvature="0" />
      <path
         d="m 638.59,552.51 c -4.12,-1.35 -5.85,-3.57 -5.92,-5.91 -1.7,3.26 -0.63,6.92 5.19,8.82 12.05,3.94 64.1,9.45 74,10.47 a 1.46,1.46 0 0 0 1.61,-1.43 1.47,1.47 0 0 0 -1.31,-1.49 c -10.86,-1.16 -61.68,-6.58 -73.57,-10.46 z"
         id="path123"
         inkscape:connector-curvature="0" />
      <path
         d="m 549.78,522.43 a 12.32,12.32 0 0 1 1,-2.12 9.75,9.75 0 0 0 -2.35,3.88 c -2.19,6.13 56.84,38.55 66.25,43.67 a 1.08,1.08 0 0 0 1.57,-0.71 1.08,1.08 0 0 0 -0.53,-1.2 c -10.4,-5.69 -68.1,-37.46 -65.94,-43.52 z"
         id="path125"
         inkscape:connector-curvature="0" />
    </g>
    <g
       transform="translate(237.41,67.36)"
       id="g147">
      <path
         transform="translate(-82,-144)"
         d="m 285.73,680.25 c 0,0 -13.26,-45 2.49,-78.14 A 71.09,71.09 0 0 0 294,557.5 119.57,119.57 0 0 0 287.69,536.57"
         stroke-miterlimit="10"
         id="path129"
         inkscape:connector-curvature="0"
         style="fill:none;stroke:#535461;stroke-width:2;stroke-miterlimit:10" />
      <g
         id="g145"
         style="fill:#ff4545">
        <path
           transform="translate(-82,-144)"
           d="m 297.45,515.63 c 0,5.52 -10,21.51 -10,21.51 0,0 -10,-16 -10,-21.51 a 10,10 0 0 1 20,0 z"
           id="path131"
           inkscape:connector-curvature="0" />
        <path
           transform="translate(-82,-144)"
           d="m 314,546.19 c -3,4.63 -20.08,12.63 -20.08,12.63 0,0 0.31,-18.86 3.31,-23.49 A 10,10 0 1 1 314,546.19 Z"
           id="path133"
           inkscape:connector-curvature="0" />
        <path
           transform="translate(-82,-144)"
           d="m 313.24,598.4 c -4.93,2.48 -23.71,0.77 -23.71,0.77 0,0 9.79,-16.12 14.71,-18.6 a 10,10 0 0 1 9,17.84 z"
           id="path135"
           inkscape:connector-curvature="0" />
        <path
           transform="translate(-82,-144)"
           d="m 303.8,637.79 c -4.44,3.28 -23.24,4.76 -23.24,4.76 0,0 6.92,-17.54 11.36,-20.82 a 10,10 0 0 1 11.88,16.06 z"
           id="path137"
           inkscape:connector-curvature="0" />
        <path
           transform="translate(-82,-144)"
           d="m 272.91,559.89 c 4,3.84 22.39,7.83 22.39,7.83 0,0 -4.51,-18.31 -8.47,-22.15 a 10,10 0 1 0 -13.92,14.33 z"
           id="path139"
           inkscape:connector-curvature="0" />
        <path
           transform="translate(-82,-144)"
           d="m 262.45,606.09 c 4.93,2.48 23.71,0.77 23.71,0.77 0,0 -9.79,-16.12 -14.71,-18.6 a 10,10 0 1 0 -9,17.84 z"
           id="path141"
           inkscape:connector-curvature="0" />
        <path
           transform="translate(-82,-144)"
           d="m 258.45,652.39 c 4.44,3.28 23.24,4.76 23.24,4.76 0,0 -6.92,-17.54 -11.36,-20.82 a 10,10 0 0 0 -11.88,16.06 z"
           id="path143"
           inkscape:connector-curvature="0" />
      </g>
    </g>
    <path
       d="m 621.44,556.41 c -0.53,0.14 -1.05,0.85 -1.54,1.82 l 0.16,-0.06 c 0.44,-0.12 1.19,-1 2.1,-2.3 a 1.94,1.94 0 0 1 -0.72,0.54 z"
       id="path149"
       inkscape:connector-curvature="0"
       style="fill:#dddbe2" />
    <path
       d="m 901.56,332.17 c -2.82,6.22 -3.41,13.23 -5.48,19.75 -4.11,12.93 -14.42,23.63 -26.77,27.76 10.39,4.14 22.65,-0.92 30.68,-9.32 8.03,-8.4 12.74,-19.58 17.25,-30.46 11.66,7.84 10.24,25.86 14.16,39.89 a 44.24,44.24 0 0 0 23.55,28.15 42.17,42.17 0 0 0 36.07,-0.73 c -10.69,-13 -25.91,-30.93 -24.1,-48.29 1.47,-14.06 -8.62,-24.8 -7.93,-38.91 1,-20 -6.66,-30.16 -21,-43 -8.38,-7.51 4.81,-18.1 -6,-15 -4.25,1.22 -8.73,-3.33 -12.9,-1.83 -8.26,3 -17.28,1.84 -25.78,3.84 -44.18,10.38 12.37,59.07 8.25,68.15 z"
       id="path151"
       inkscape:connector-curvature="0"
       style="opacity:0.1" />
    <path
       d="m 902.56,331.17 c -2.82,6.22 -3.41,13.23 -5.48,19.75 -4.11,12.93 -14.42,23.63 -26.77,27.76 10.39,4.14 22.65,-0.92 30.68,-9.32 8.03,-8.4 12.74,-19.58 17.25,-30.46 11.66,7.84 10.24,25.86 14.16,39.89 a 44.24,44.24 0 0 0 23.55,28.15 42.17,42.17 0 0 0 36.07,-0.73 c -10.69,-13 -24.91,-27.93 -23.1,-45.29 1.47,-14.06 -0.72,-28.51 0,-42.61 1,-20 -8.81,-39.32 -23.16,-52.16 -8.38,-7.51 -21.47,-8.47 -25.65,-7 -8.26,3 -17.28,1.84 -25.78,3.84 -44.2,10.41 12.35,59.1 8.23,68.18 z"
       id="path153"
       inkscape:connector-curvature="0"
       style="fill:#2f2e41" />
  </g>
</svg>
