<?xml version="1.0" encoding="UTF-8" standalone="no"?>
<svg
   xmlns:dc="http://purl.org/dc/elements/1.1/"
   xmlns:cc="http://creativecommons.org/ns#"
   xmlns:rdf="http://www.w3.org/1999/02/22-rdf-syntax-ns#"
   xmlns:svg="http://www.w3.org/2000/svg"
   xmlns="http://www.w3.org/2000/svg"
   xmlns:xlink="http://www.w3.org/1999/xlink"
   xmlns:sodipodi="http://sodipodi.sourceforge.net/DTD/sodipodi-0.dtd"
   xmlns:inkscape="http://www.inkscape.org/namespaces/inkscape"
   width="932.62653"
   height="608.63562"
   data-name="Layer 1"
   version="1.1"
   viewBox="0 0 932.62653 608.63562"
   id="svg157"
   sodipodi:docname="B.svg"
   inkscape:version="0.92.5 (2060ec1f9f, 2020-04-08)">
  <sodipodi:namedview
     pagecolor="#ffffff"
     bordercolor="#666666"
     borderopacity="1"
     objecttolerance="10"
     gridtolerance="10"
     guidetolerance="10"
     inkscape:pageopacity="0"
     inkscape:pageshadow="2"
     inkscape:window-width="1366"
     inkscape:window-height="705"
     id="namedview159"
     showgrid="false"
     inkscape:zoom="0.36776062"
     inkscape:cx="20.481071"
     inkscape:cy="475.94696"
     inkscape:window-x="-8"
     inkscape:window-y="399"
     inkscape:window-maximized="1"
     inkscape:current-layer="svg157" />
  <metadata
     id="metadata2">
    <rdf:RDF>
      <cc:Work
         rdf:about="">
        <dc:format>image/svg+xml</dc:format>
        <dc:type
           rdf:resource="http://purl.org/dc/dcmitype/StillImage" />
        <dc:title>web_devices</dc:title>
      </cc:Work>
    </rdf:RDF>
  </metadata>
  <defs
     id="defs15">
    <linearGradient
       id="deacd444-d5db-4c24-9492-02e57292be3c"
       x1="675.04999"
       x2="675.04999"
       y1="606.02002"
       y2="240.27"
       gradientUnits="userSpaceOnUse">
      <stop
         stop-color="gray"
         stop-opacity=".25"
         offset="0"
         id="stop4" />
      <stop
         stop-color="gray"
         stop-opacity=".12"
         offset=".54"
         id="stop6" />
      <stop
         stop-color="gray"
         stop-opacity=".1"
         offset="1"
         id="stop8" />
    </linearGradient>
    <linearGradient
       id="a1de9c2c-a914-4f57-a703-6b671b828453"
       x1="473.94"
       x2="473.94"
       y1="635.65002"
       y2="301.64999"
       gradientTransform="translate(-82,-130)"
       xlink:href="#deacd444-d5db-4c24-9492-02e57292be3c" />
    <linearGradient
       id="33ead0d0-8f65-4117-bca2-44ecb419ecb0"
       x1="363.44"
       x2="363.44"
       y1="662.65002"
       y2="401.64999"
       gradientTransform="translate(-82,-130)"
       xlink:href="#deacd444-d5db-4c24-9492-02e57292be3c" />
    <linearGradient
       id="9a5964b5-9011-4675-8f60-8033350848c0"
       x1="849.67999"
       x2="849.67999"
       y1="703.65997"
       y2="385.5"
       gradientTransform="translate(-82,-130)"
       xlink:href="#deacd444-d5db-4c24-9492-02e57292be3c" />
    <linearGradient
       id="linearGradient949"
       x1="675.04999"
       x2="675.04999"
       y1="606.02002"
       y2="240.27"
       gradientTransform="translate(-82,-130)"
       gradientUnits="userSpaceOnUse"
       xlink:href="#deacd444-d5db-4c24-9492-02e57292be3c" />
    <clipPath
       id="a-4-8-9-3-1">
      <rect
         y="0"
         x="0"
         width="91"
         height="100.34"
         id="rect4" />
    </clipPath>
  </defs>
  <title
     id="title17">web_devices</title>
  <g
     style="stroke-width:1.37820005"
     transform="matrix(1.2610235,0,0,1.2610235,-145.00413,1.88415)"
     id="g21">
    <rect
       style="fill:#3f3d56"
       y="0"
       x="286.72"
       width="567.84003"
       height="299.07999"
       id="rect9" />
    <path
       style="fill:#ffffff"
       inkscape:connector-curvature="0"
       d="m 303.26,282.54 h 534.76 v -266 H 303.26 Z"
       id="path11" />
    <rect
       style="fill:#3f3d56"
       x="344.60999"
       y="55.130001"
       width="190.2"
       height="190.2"
       id="rect13" />
    <rect
       style="fill:#e6e6e6"
       x="408.01001"
       y="50.994999"
       width="55.130001"
       height="8.2693996"
       id="rect15" />
    <rect
       style="fill:#3f3d56"
       x="587.17999"
       y="55.130001"
       width="190.2"
       height="190.2"
       id="rect17" />
    <rect
       style="fill:#e6e6e6"
       x="650.58002"
       y="50.994999"
       width="55.130001"
       height="8.2693996"
       id="rect19" />
  </g>
  <g
     transform="matrix(1.0913228,0,0,1.0913228,-85.093777,-22.11585)"
     id="g65">
    <g
       style="fill:#cccccc"
       id="g29">
      <rect
         x="151.56"
         y="268"
         width="110"
         height="123"
         id="rect23" />
      <path
         inkscape:connector-curvature="0"
         transform="translate(-172.72,-161.05)"
         d="m 380.73,702.28 -1.8898,25.835 a 8.2243,8.2243 0 0 0 8.6999,8.8093 l 13.27,-0.80373 a 4.1949,4.1949 0 0 0 3.8153,-5.2044 l -7.3659,-29.463 z"
         id="path25" />
      <path
         inkscape:connector-curvature="0"
         transform="translate(-172.72,-161.05)"
         d="m 491.72,717.56 c 15.618,3.6534 26.774,8.8463 34.103,15.874 a 15.035,15.035 0 0 0 9.6236,4.1254 c 4.5965,0.24174 8.3549,-0.27349 11.179,-1.5351 h 4.5e-4 a 4.4302,4.4302 0 0 0 2.6247,-3.6508 4.5081,4.5081 0 0 0 -1.8885,-4.1669 l -37.04,-26.355 -15.733,6.294 -3.6702,3.6702 a 3.6342,3.6342 0 0 0 0.8002,5.7435 z"
         id="path27" />
    </g>
    <path
       style="fill:#2f2e41"
       inkscape:connector-curvature="0"
       transform="translate(-172.72,-161.05)"
       d="m 443.66,295.75 -105.87,-0.98031 c 0.26623,-15.421 3.8541,-30.563 11.697,-44.114 5.1508,-8.8995 5.0395,-18.585 3.7982,-26.744 -1.9156,-12.592 2.5389,-25.475 12.437,-33.491 a 39.916,39.916 0 0 1 26.843,-8.8813 l 2.0558,0.0857 a 40.008,40.008 0 0 1 32.871,19.77 33.327,33.327 0 0 1 3.9613,20.301 c -0.67106,6.6013 0.93466,13.27 4.6906,20.002 6.4799,14.783 7.8832,33.699 7.5204,54.053 z"
       id="path31" />
    <path
       style="fill:#ff4545"
       inkscape:connector-curvature="0"
       transform="translate(-172.72,-161.05)"
       d="m 514.5,703.23 -20.779,5.4206 -101.18,-220.44 6.324,215.02 h -20.779 c -22.204,-101.16 -62.291,-217.91 -44.268,-254.77 l 107.51,-6.324 z"
       id="path33" />
    <circle
       style="fill:#ffb9b9"
       cx="218.91"
       cy="69.684998"
       r="28.006001"
       id="circle35" />
    <path
       style="fill:#ffb9b9"
       inkscape:connector-curvature="0"
       transform="translate(-172.72,-161.05)"
       d="m 416.02,282.23 -46.075,-2.7103 c 4.5154,-10.364 6.3191,-20.344 4.5171,-29.813 h 34.33 c -0.0778,7.2706 3.5403,19.847 7.2274,32.523 z"
       id="path37" />
    <polygon
       style="fill:#ff4545"
       points="272.21,289.22 171.03,296.44 181.42,117.12 199.03,112.15 218.91,116.66 238.78,106.72 251.43,111.24 "
       id="polygon39" />
    <g
       style="fill:#e6e6e6"
       id="g49">
      <path
         inkscape:connector-curvature="0"
         transform="translate(-172.72,-161.05)"
         d="m 360.91,579.46 -69.112,-15.81 c 20.551,-68.148 57.573,-224.05 45.623,-279.61 l 36.137,-16.262 z"
         id="path41" />
      <path
         inkscape:connector-curvature="0"
         transform="translate(-172.72,-161.05)"
         d="m 327.49,382.51 -26.199,-16.262 22.343,-65.439 a 30.871,30.871 0 0 1 13.494,-16.028 l 7.5267,-4.3576 -4.5171,65.95 z"
         id="path43" />
      <path
         inkscape:connector-curvature="0"
         transform="translate(-172.72,-161.05)"
         d="m 505.01,564.55 c -21.813,12.62 -76.339,19.655 -100.28,10.841 -1.7617,-61.573 -5.2166,-235.74 5.8723,-309.42 l 39.751,16.262 -3.6137,48.785 c -19.004,41.733 36.18,187.09 58.271,233.54 z"
         id="path45" />
      <polygon
         points="272.21,168.16 277.63,121.18 331.84,197.07 329.13,213.33 304.73,205.2 "
         id="polygon47" />
    </g>
    <path
       style="fill:#ffb9b9"
       inkscape:connector-curvature="0"
       transform="translate(-172.72,-161.05)"
       d="m 425.4,409.55 a 6.7854,6.7854 0 0 0 8.1052,5.1122 l 20.706,-4.6892 -2.9926,-13.217 -20.706,4.6883 a 6.7769,6.7769 0 0 0 -5.1122,8.1052 z"
       id="path51" />
    <path
       style="fill:#2f2e41"
       inkscape:connector-curvature="0"
       transform="translate(-172.72,-161.05)"
       d="m 416.02,223.51 c -15.556,-6.3965 -30.919,-6.8594 -46.075,-0.90342 l -6.324,-22.586 h 57.819 z"
       id="path53" />
    <path
       style="fill:#e6e6e6"
       inkscape:connector-curvature="0"
       transform="translate(-172.72,-161.05)"
       d="m 444.03,394.26 11.745,21.682 c 19.754,-5.5096 36.874,-22.879 53.302,-43.364 l -4.5171,-14.455 -28.006,7.2274 z"
       id="path55" />
    <polygon
       style="fill:#ff4545"
       points="140.72,169.22 192.26,242.5 164.88,236.05 118.18,165.19 "
       id="polygon57" />
    <path
       style="fill:#3f3d56"
       inkscape:connector-curvature="0"
       transform="translate(-172.72,-161.05)"
       d="m 286.9,325.35 a 1.9177,1.9177 0 0 0 -1.5735,2.971 l 48.171,73.088 a 1.9114,1.9114 0 0 0 1.1602,0.81035 l 22.413,5.2732 a 1.9144,1.9144 0 0 0 2.0045,-2.9648 l -52.889,-75.202 a 1.9034,1.9034 0 0 0 -1.2294,-0.783 l -17.695,-3.1602 a 2.0761,2.0761 0 0 0 -0.36128,-0.0326 z"
       id="path59" />
    <path
       style="fill:#ffb9b9"
       inkscape:connector-curvature="0"
       transform="translate(-172.72,-161.05)"
       d="m 316.95,377.6 1.3388,13.485 21.126,-2.0971 a 6.7757,6.7757 0 0 0 -1.3384,-13.485 z"
       id="path61" />
    <path
       style="fill:#e6e6e6"
       inkscape:connector-curvature="0"
       transform="translate(-172.72,-161.05)"
       d="m 298.58,376.04 a 17.427,17.427 0 0 0 17.406,17.311 h 3.4739 l 2.529,-21.076 -20.94,-7.5384 z"
       id="path63" />
  </g>
  <g
     transform="matrix(1.0913228,0,0,1.0913228,-706.71893,-685.47315)"
     id="g131">
    <g
       transform="matrix(1.1855,0,0,1.1855,-943.43,-1570.1)"
       id="g121">
      <g
         style="fill:none;stroke:#ff4545;stroke-width:3.86469493;stroke-miterlimit:4;stroke-dasharray:none;stroke-linecap:round;paint-order:fill markers stroke;stroke-linejoin:round"
         transform="translate(1129.5,832.78)"
         id="g83">
        <path
           inkscape:connector-curvature="0"
           d="m 448.75,1151.7 87.392,-37.812 68.399,50.928 -79.308,49.964 z"
           id="path77"
           style="stroke-width:3.86469493;stroke-miterlimit:4;stroke-dasharray:none;stroke-linecap:round;paint-order:fill markers stroke;stroke-linejoin:round" />
        <path
           inkscape:connector-curvature="0"
           d="m 448.75,1151.7 v 15 l 76.482,63.08 v -15 z"
           id="path79"
           style="stroke-width:3.86469493;stroke-miterlimit:4;stroke-dasharray:none;stroke-linecap:round;paint-order:fill markers stroke;stroke-linejoin:round" />
        <path
           inkscape:connector-curvature="0"
           d="m 525.23,1214.8 v 15 l 79.308,-49.964 v -15 z"
           id="path81"
           style="stroke-width:3.86469493;stroke-miterlimit:4;stroke-dasharray:none;stroke-linecap:round;paint-order:fill markers stroke;stroke-linejoin:round" />
      </g>
      <g
         style="fill:#ff4545"
         transform="matrix(0.73023,0,0,0.73023,2305.2,1690.1)"
         id="g89">
        <path
           inkscape:connector-curvature="0"
           d="m -598.36,349.56 c -1.8173,-3.1489 -3.3351,-5.85 -3.3729,-6.0024 -0.0795,-0.32079 3.4307,-2.1682 7.057,-3.7141 7.9796,-3.4017 16.103,-5.4821 25.301,-6.48 3.239,-0.35136 12.865,-0.34713 16.214,0.007 10.473,1.1081 20.421,3.9529 29.385,8.4033 1.5006,0.74502 2.7982,1.4244 2.8834,1.5096 0.14337,0.14337 -0.58386,1.466 -5.042,9.1698 l -1.6408,2.8354 -2.0625,-1.035 c -7.7716,-3.9 -17.052,-6.4659 -26.064,-7.2067 -12.643,-1.0391 -26.122,1.593 -37.549,7.3324 l -1.8039,0.90599 z"
           style="paint-order:normal"
           id="path85" />
        <path
           inkscape:connector-curvature="0"
           d="m -576.64,387.17 -15.325,-26.543 2.7261,-1.3024 c 6.1772,-2.951 12.438,-4.8119 19.559,-5.8135 3.2422,-0.45603 12.614,-0.52415 15.904,-0.11561 7.214,0.89591 15.046,3.2179 21.108,6.2578 l 2.0028,1.0044 -2.1204,3.6697 c -1.1662,2.0184 -3.6406,6.3035 -5.4986,9.5225 l -3.3781,5.8528 -0.57386,-1.2642 c -0.71808,-1.5819 -2.5443,-3.4453 -4.1379,-4.2222 -5.0781,-2.4756 -11.257,0.33185 -12.66,5.752 -1.1052,4.2708 0.94646,8.581 4.9981,10.5 1.2993,0.61548 1.5485,0.66123 3.6009,0.66123 h 2.205 l -0.37665,0.61963 c -0.20716,0.34079 -3.1383,5.4062 -6.5137,11.257 -3.3754,5.8503 -6.15,10.652 -6.166,10.672 -0.0159,0.0191 -6.9251,-11.909 -15.354,-26.508 z m 3.8446,-12.884 c 5.903,-0.95778 9.2022,-7.2527 6.6546,-12.697 -2.0846,-4.4548 -7.4051,-6.3635 -11.889,-4.2652 -4.5276,2.1187 -6.4436,7.4567 -4.3061,11.997 0.6747,1.4331 2.6905,3.4844 4.085,4.157 0.98216,0.47369 2.8263,0.97338 3.7178,1.0074 0.22719,0.009 1.0092,-0.081 1.7378,-0.19919 z"
           style="paint-order:normal"
           id="path87" />
      </g>
      <g
         style="fill:#ff4545"
         transform="matrix(0.73023,0,0,0.73023,2305.2,1707.7)"
         id="g95">
        <path
           inkscape:connector-curvature="0"
           d="m -626.18,415.24 c 0.0486,-0.31239 0.14268,-1.4974 0.20906,-2.6334 0.828,-14.171 7.5985,-29.103 18.061,-39.834 3.526,-3.6163 8.0392,-7.3559 11.296,-9.3595 l 1.0588,-0.65142 7.8768,13.646 c 4.3322,7.5052 7.8404,13.682 7.796,13.727 -0.0444,0.0444 -0.51241,-0.0279 -1.0399,-0.1607 -0.5321,-0.13398 -1.7199,-0.20157 -2.6679,-0.15181 -1.3597,0.0714 -1.9905,0.22153 -3.0881,0.73513 -6.9127,3.2348 -7.0967,12.752 -0.3129,16.184 4.08,2.0642 9.0345,0.70367 11.537,-3.1681 0.42612,-0.6593 0.89339,-1.6616 1.0384,-2.2273 0.14501,-0.5657 0.32691,-1.0286 0.40426,-1.0286 0.0774,0 2.0277,3.2763 4.3341,7.2806 2.3064,4.0043 4.3275,7.4897 4.4913,7.7453 l 0.29781,0.46472 h -61.38 z m 20.271,-2.8563 c 1.3267,-0.36319 3.2912,-1.6609 4.1704,-2.755 1.9097,-2.3764 2.5411,-5.2736 1.7833,-8.1836 -1.1287,-4.3345 -5.6034,-7.2432 -10.005,-6.5035 -7.3153,1.2296 -10.168,10.025 -4.9453,15.245 2.3488,2.3476 5.5716,3.1347 8.9963,2.1972 z"
           style="paint-order:normal"
           id="path91" />
        <path
           inkscape:connector-curvature="0"
           d="m -646.1,414.15 c 0,-2.0795 0.50297,-6.9682 1.0512,-10.218 1.3466,-7.9813 3.7155,-15.454 7.2207,-22.778 1.8767,-3.9211 3.1057,-6.0657 5.8847,-10.269 5.3565,-8.1018 11.976,-15.105 19.819,-20.968 2.8697,-2.1451 6.1314,-4.3333 6.4593,-4.3333 0.23541,0 6.918,11.516 6.8236,11.759 -0.0354,0.0911 -0.99373,0.79546 -2.1297,1.5652 -15.143,10.26 -25.794,25.845 -29.712,43.474 -0.89679,4.0349 -1.5788,9.2062 -1.5788,11.971 v 1.4539 H -646.1 Z"
           style="paint-order:normal"
           id="path93" />
      </g>
      <g
         style="fill:#ff4545"
         transform="matrix(0.73023,0,0,0.73023,2305.2,1707.7)"
         id="g101">
        <path
           inkscape:connector-curvature="0"
           d="m -490.23,415.67 c -0.0757,-0.0757 -0.13769,-0.79661 -0.13769,-1.602 0,-1.8644 -0.49471,-6.1734 -1.0452,-9.1038 -3.5477,-18.886 -14.547,-35.594 -30.393,-46.166 -1.0549,-0.70387 -1.9466,-1.3553 -1.9814,-1.4475 -0.0827,-0.21899 6.5187,-11.643 6.7795,-11.732 0.26593,-0.091 3.8354,2.2604 6.7188,4.4262 11.746,8.8224 21.267,20.951 27.019,34.418 3.8484,9.01 6.2783,19.348 6.6755,28.402 l 0.12913,2.9432 h -6.8136 c -3.7475,0 -6.8756,-0.062 -6.9513,-0.1377 z"
           style="paint-order:normal"
           id="path97" />
        <path
           inkscape:connector-curvature="0"
           d="m -557.45,415.35 c 0.16549,-0.25559 6.9762,-12.036 15.135,-26.179 8.1588,-14.143 14.943,-25.876 15.076,-26.073 0.21968,-0.32555 0.40296,-0.2485 1.9979,0.83986 5.9473,4.0583 11.582,9.3731 15.695,14.803 7.3212,9.6659 12.132,22.247 12.873,33.666 0.0664,1.0224 0.16489,2.2074 0.21893,2.6334 l 0.0983,0.77453 h -61.395 z m 24.841,-3.1924 c 2.1948,-0.66994 4.4487,-2.6374 5.3988,-4.7126 1.6304,-3.5613 0.8556,-7.5904 -1.9797,-10.295 -4.4992,-4.2915 -11.64,-2.9173 -14.346,2.7608 -0.60038,1.2599 -0.63974,1.4887 -0.63974,3.7177 0,2.2828 0.0274,2.4313 0.70374,3.8153 2.0061,4.1053 6.4863,6.0493 10.863,4.7135 z m 12.766,-20.197 c 2.6797,-0.69797 4.7599,-2.3514 5.918,-4.704 1.3234,-2.6883 1.2927,-5.3212 -0.0949,-8.1388 -1.8868,-3.831 -6.3835,-5.7113 -10.597,-4.4314 -2.7414,0.83268 -5.134,3.2069 -5.9288,5.8832 -0.46396,1.5623 -0.40016,4.2036 0.13649,5.65 1.6431,4.4285 6.1676,6.8868 10.567,5.741 z"
           style="paint-order:normal"
           id="path99" />
      </g>
      <g
         style="fill:#ff4545"
         transform="matrix(0.73023,0,0,0.73023,2305.2,1707.7)"
         id="g107">
        <path
           inkscape:connector-curvature="0"
           d="m -520.47,484.5 c -1.846,-3.2222 -3.3547,-5.937 -3.3526,-6.0328 0.002,-0.0958 0.97574,-0.8126 2.1638,-1.5929 10.554,-6.931 19.719,-17.747 25.081,-29.597 3.6041,-7.9663 5.9683,-17.7 6.2623,-25.783 l 0.0526,-1.4458 13.838,-0.1088 -0.13658,2.7536 c -0.96077,19.371 -9.2719,38.845 -22.651,53.074 -5.0195,5.3383 -10.34,9.788 -16.307,13.638 -0.82712,0.53372 -1.5242,0.96657 -1.5491,0.96188 -0.0249,-0.005 -1.5555,-2.6449 -3.4015,-5.8671 z"
           style="paint-order:normal"
           id="path103" />
        <path
           inkscape:connector-curvature="0"
           d="m -536.75,456.24 c -5.3116,-9.226 -10.237,-17.75 -10.945,-18.943 -0.70812,-1.1928 -3.0765,-5.2823 -5.263,-9.0878 -2.1865,-3.8055 -4.1574,-7.2212 -4.3798,-7.5904 l -0.40428,-0.67126 h 19.277 l -0.86547,0.98107 c -1.8761,2.1267 -2.7733,5.032 -2.3151,7.4961 1.1608,6.2422 7.5287,9.4169 13.148,6.5548 1.0661,-0.54304 2.8732,-2.266 3.4992,-3.3363 2.0132,-3.442 1.3863,-8.2079 -1.4408,-10.954 l -0.7641,-0.74209 h 30.799 l -0.0899,1.2909 c -0.36656,5.2638 -1.0585,9.5609 -2.2202,13.788 -3.9612,14.413 -12.472,26.637 -24.796,35.615 -1.3549,0.98707 -2.7151,1.9248 -3.0227,2.0838 l -0.55919,0.28917 z m 16.479,4.0381 c 5.6979,-2.6726 7.0918,-9.9564 2.7553,-14.398 -4.8168,-4.9337 -13.024,-2.9306 -15.029,3.6678 -0.65902,2.1697 -0.48524,4.3873 0.4997,6.3766 1.1681,2.3592 2.8352,3.8545 5.2485,4.7079 0.96396,0.34083 1.5972,0.41347 3.167,0.36327 1.6964,-0.0542 2.1512,-0.15143 3.3581,-0.7175 z"
           style="paint-order:normal"
           id="path105" />
      </g>
      <g
         style="fill:#ff4545"
         transform="matrix(0.73023,0,0,0.73023,2305.2,1707.7)"
         id="g113">
        <path
           inkscape:connector-curvature="0"
           d="m -567,482.6 c -6.0989,-0.57707 -12.801,-2.1885 -18.448,-4.4353 -2.874,-1.1436 -6.3374,-2.8309 -6.3374,-3.0874 0,-0.11953 6.7693,-11.945 15.043,-26.28 8.2736,-14.334 15.128,-26.218 15.232,-26.408 0.14866,-0.27075 0.92529,0.93088 3.5975,5.5662 1.8744,3.2513 3.4346,5.9729 3.4672,6.0479 0.0326,0.075 -0.55662,0.18585 -1.3093,0.24627 -1.9154,0.15375 -4.0508,1.2309 -5.4284,2.7382 -4.9089,5.3711 -2.0758,13.681 5.1204,15.02 1.6123,0.29984 3.7482,-0.0234 5.3741,-0.81321 1.0712,-0.52036 3.0877,-2.307 3.735,-3.3091 0.28276,-0.43775 0.68754,0.21617 8.1977,13.243 4.3451,7.5371 7.9002,13.808 7.9002,13.935 0,0.55105 -7.2976,3.6457 -11.773,4.9925 -6.3083,1.8984 -10.453,2.4988 -17.763,2.5735 -3.1239,0.0319 -6.0981,0.0184 -6.6093,-0.03 z m -3.537,-4.5908 c 2.583,-0.80393 4.5022,-2.475 5.6675,-4.9348 0.61538,-1.299 0.65783,-1.5352 0.65783,-3.6606 0,-2.1278 -0.042,-2.3605 -0.66123,-3.6679 -2.9578,-6.2442 -11.245,-7.1579 -15.394,-1.6973 -3.1119,4.0955 -2.0239,10.116 2.3335,12.912 2.1814,1.3998 4.9883,1.7975 7.3963,1.0481 z"
           style="paint-order:normal"
           id="path109" />
        <path
           inkscape:connector-curvature="0"
           d="m -567,502.64 c -0.39759,-0.0453 -1.7453,-0.17884 -2.9948,-0.29688 -5.6512,-0.53379 -12.097,-1.9238 -17.993,-3.8804 -5.7804,-1.918 -13.889,-5.566 -13.76,-6.1912 0.0294,-0.14365 1.5521,-2.8556 3.3836,-6.0266 l 3.3301,-5.7654 2.3995,1.2023 c 7.548,3.782 16.264,6.2225 25.119,7.0333 2.9477,0.2699 9.4736,0.26558 12.496,-0.008 8.7456,-0.79249 17.446,-3.2301 24.943,-6.9879 l 2.4858,-1.2461 3.4532,5.9908 c 1.8992,3.295 3.4127,6.0313 3.3633,6.0808 -0.0495,0.0494 -1.5282,0.78276 -3.286,1.6296 -8.882,4.2788 -17.61,6.8491 -27.448,8.0828 -2.4375,0.30567 -13.719,0.58463 -15.491,0.38302 z"
           style="paint-order:normal"
           id="path111" />
      </g>
      <g
         style="fill:#ff4545"
         transform="matrix(0.73023,0,0,0.73023,2305.2,1707.7)"
         id="g119">
        <path
           inkscape:connector-curvature="0"
           d="m -607.1,489.39 c -5.1312,-3.2446 -9.1529,-6.5168 -14.127,-11.495 -5.6615,-5.6652 -9.2207,-10.177 -12.911,-16.366 -7.0389,-11.806 -11.341,-25.771 -11.903,-38.639 l -0.12857,-2.9432 h 13.839 l 0.13421,2.7367 c 0.41945,8.5536 2.9448,18.051 7.0338,26.454 5.3543,11.002 14.267,21.223 24.188,27.739 1.1881,0.78026 2.1602,1.5116 2.1602,1.6252 2e-5,0.11359 -1.5177,2.8289 -3.3726,6.034 l -3.3727,5.8275 z"
           style="paint-order:normal"
           id="path115" />
        <path
           inkscape:connector-curvature="0"
           d="m -597.37,471.86 c -7.9,-5.256 -14.752,-12.478 -19.764,-20.831 -4.9254,-8.2081 -8.2446,-18.611 -8.8309,-27.677 -0.0661,-1.0224 -0.16444,-2.2074 -0.21848,-2.6334 l -0.0982,-0.77453 h 30.762 l -1.0289,0.96237 c -0.66168,0.61893 -1.3035,1.518 -1.7984,2.5194 -0.75409,1.5258 -0.76954,1.605 -0.76954,3.943 0,2.295 0.0268,2.4409 0.70374,3.826 0.90349,1.8489 2.3924,3.3393 4.2489,4.2531 1.3894,0.6839 1.5275,0.70954 3.821,0.70954 2.239,0 2.4604,-0.0383 3.7476,-0.64817 4.6792,-2.217 6.5897,-7.5618 4.3379,-12.136 -0.35169,-0.71437 -1.1188,-1.7782 -1.7048,-2.3642 l -1.0653,-1.0653 h 10.059 c 5.5324,0 10.018,0.0697 9.9687,0.1549 -0.0496,0.0852 -6.8981,11.959 -15.219,26.386 -8.3209,14.427 -15.191,26.3 -15.266,26.384 -0.0757,0.0842 -0.92378,-0.36989 -1.8846,-1.0092 z m -7.7985,-14.968 c 5.7326,-1.2057 8.8216,-7.3986 6.3026,-12.635 -0.73768,-1.5335 -1.9529,-2.9332 -3.2813,-3.7791 -2.4098,-1.5347 -5.9026,-1.762 -8.4862,-0.55231 -5.6962,2.6672 -7.0917,9.9553 -2.7564,14.396 2.183,2.236 5.2517,3.1956 8.2214,2.571 z"
           style="paint-order:normal"
           id="path117" />
      </g>
    </g>
    <g
       transform="matrix(0.68237,-0.30593,0.67509,0.51687,960.16,781.83)"
       style="isolation:isolate;fill:#ff4545"
       id="g129">
      <g
         style="fill:#ff4545"
         clip-path="url(#a-4-8-9-3-1)"
         id="g127">
        <path
           inkscape:connector-curvature="0"
           d="m 3.765,0 h 83.47 C 89.313,0 91,1.687 91,3.765 v 14.538 c 0,2.078 -1.687,3.765 -3.765,3.765 H 3.765 C 1.687,22.068 0,20.381 0,18.303 V 3.765 C 0,1.687 1.687,0 3.765,0 Z"
           id="path123" />
        <path
           style="fill-rule:evenodd"
           inkscape:connector-curvature="0"
           d="m 28.347,48.319 c 0,-3.591 2.915,-6.507 6.506,-6.507 3.591,0 6.507,2.916 6.507,6.507 0,3.591 -2.916,6.507 -6.507,6.507 -3.591,0 -6.506,-2.916 -6.506,-6.507 z m 13.376,20.93 c 0,-3.591 2.916,-6.507 6.507,-6.507 3.591,0 6.506,2.916 6.506,6.507 0,3.591 -2.915,6.507 -6.506,6.507 -3.591,0 -6.507,-2.916 -6.507,-6.507 z M 8.153,26.026 24.225,60.112 41.561,96.877 c 2.174,4.611 5.704,4.611 7.878,0 L 66.775,60.112 82.847,26.026 Z M 50.96,40.402 c 0,-3.591 2.915,-6.506 6.506,-6.506 3.591,0 6.507,2.915 6.507,6.506 0,3.591 -2.916,6.507 -6.507,6.507 -3.591,0 -6.506,-2.916 -6.506,-6.507 z"
           id="path125" />
      </g>
    </g>
  </g>
</svg>
