<?xml version="1.0" encoding="UTF-8" standalone="no"?>
<svg
   xmlns:dc="http://purl.org/dc/elements/1.1/"
   xmlns:cc="http://creativecommons.org/ns#"
   xmlns:rdf="http://www.w3.org/1999/02/22-rdf-syntax-ns#"
   xmlns:svg="http://www.w3.org/2000/svg"
   xmlns="http://www.w3.org/2000/svg"
   xmlns:xlink="http://www.w3.org/1999/xlink"
   xmlns:sodipodi="http://sodipodi.sourceforge.net/DTD/sodipodi-0.dtd"
   xmlns:inkscape="http://www.inkscape.org/namespaces/inkscape"
   width="932.62653"
   height="608.63562"
   data-name="Layer 1"
   version="1.1"
   viewBox="0 0 932.62653 608.63562"
   id="svg157"
   sodipodi:docname="C.svg"
   inkscape:version="0.92.5 (2060ec1f9f, 2020-04-08)">
  <sodipodi:namedview
     pagecolor="#ffffff"
     bordercolor="#666666"
     borderopacity="1"
     objecttolerance="10"
     gridtolerance="10"
     guidetolerance="10"
     inkscape:pageopacity="0"
     inkscape:pageshadow="2"
     inkscape:window-width="1360"
     inkscape:window-height="705"
     id="namedview159"
     showgrid="false"
     inkscape:zoom="0.52009205"
     inkscape:cx="437.15781"
     inkscape:cy="315.10666"
     inkscape:window-x="1358"
     inkscape:window-y="-8"
     inkscape:window-maximized="1"
     inkscape:current-layer="svg157" />
  <metadata
     id="metadata2">
    <rdf:RDF>
      <cc:Work
         rdf:about="">
        <dc:format>image/svg+xml</dc:format>
        <dc:type
           rdf:resource="http://purl.org/dc/dcmitype/StillImage" />
        <dc:title>web_devices</dc:title>
      </cc:Work>
    </rdf:RDF>
  </metadata>
  <defs
     id="defs15">
    <linearGradient
       id="deacd444-d5db-4c24-9492-02e57292be3c"
       x1="675.04999"
       x2="675.04999"
       y1="606.02002"
       y2="240.27"
       gradientUnits="userSpaceOnUse">
      <stop
         stop-color="gray"
         stop-opacity=".25"
         offset="0"
         id="stop4" />
      <stop
         stop-color="gray"
         stop-opacity=".12"
         offset=".54"
         id="stop6" />
      <stop
         stop-color="gray"
         stop-opacity=".1"
         offset="1"
         id="stop8" />
    </linearGradient>
    <linearGradient
       id="a1de9c2c-a914-4f57-a703-6b671b828453"
       x1="473.94"
       x2="473.94"
       y1="635.65002"
       y2="301.64999"
       gradientTransform="translate(-82,-130)"
       xlink:href="#deacd444-d5db-4c24-9492-02e57292be3c" />
    <linearGradient
       id="33ead0d0-8f65-4117-bca2-44ecb419ecb0"
       x1="363.44"
       x2="363.44"
       y1="662.65002"
       y2="401.64999"
       gradientTransform="translate(-82,-130)"
       xlink:href="#deacd444-d5db-4c24-9492-02e57292be3c" />
    <linearGradient
       id="9a5964b5-9011-4675-8f60-8033350848c0"
       x1="849.67999"
       x2="849.67999"
       y1="703.65997"
       y2="385.5"
       gradientTransform="translate(-82,-130)"
       xlink:href="#deacd444-d5db-4c24-9492-02e57292be3c" />
    <linearGradient
       id="linearGradient949"
       x1="675.04999"
       x2="675.04999"
       y1="606.02002"
       y2="240.27"
       gradientTransform="translate(-82,-130)"
       gradientUnits="userSpaceOnUse"
       xlink:href="#deacd444-d5db-4c24-9492-02e57292be3c" />
    <clipPath
       id="a-4-8-9-3-1">
      <rect
         y="0"
         x="0"
         width="91"
         height="100.34"
         id="rect4" />
    </clipPath>
  </defs>
  <title
     id="title17">web_devices</title>
  <g
     transform="matrix(1.1793957,0,0,1.1793957,89.84146,-250.18112)"
     style="fill:#ffb8b8"
     id="g18" />
  <g
     id="g1156"
     transform="matrix(0.98672727,0,0,0.98672727,-38.140368,-1.3008806)">
    <path
       id="path4"
       d="M 797.03224,149.19673 H 793.646 V 56.42837 A 53.689634,53.689634 0 0 0 739.95637,2.7387343 H 543.41956 A 53.689634,53.689634 0 0 0 489.72992,56.42837 v 508.9092 a 53.689634,53.689634 0 0 0 53.68964,53.68963 H 739.95637 A 53.689634,53.689634 0 0 0 793.646,565.33757 V 215.22273 h 3.38624 z"
       style="fill:#3f3d56;stroke-width:0.84681296"
       inkscape:connector-curvature="0" />
    <path
       id="path6"
       d="m 742.12489,16.712843 h -25.6542 a 19.049057,19.049057 0 0 1 -17.63657,26.24358 H 586.24187 A 19.049057,19.049057 0 0 1 568.6053,16.712843 h -23.96142 a 40.094899,40.094899 0 0 0 -40.0949,40.094899 V 564.97174 a 40.094899,40.094899 0 0 0 40.0949,40.0949 h 197.47677 a 40.094899,40.094899 0 0 0 40.0949,-40.0949 V 56.807742 a 40.094899,40.094899 0 0 0 -40.0949,-40.094899 z"
       style="fill:#ffffff;stroke-width:0.84681296"
       inkscape:connector-curvature="0" />
    <rect
       id="rect8"
       height="89.084717"
       width="228.6395"
       y="218.43298"
       x="528.13531"
       style="fill:#e6e6e6;stroke-width:1.68126237" />
    <rect
       id="rect10"
       height="91.447327"
       width="228.6395"
       y="111.03172"
       x="528.13531"
       style="fill:#ff4545;stroke-width:1.23583889" />
    <g
       id="g48"
       style="fill:#e6e6e6"
       transform="matrix(0.84681294,0,0,0.84681294,303.72987,2.7412747)">
      <rect
         id="rect42"
         height="105.2"
         width="123"
         y="384.07001"
         x="265"
         style="stroke-width:1.34000003" />
      <rect
         id="rect44"
         height="105.2"
         width="270"
         y="516"
         x="265.14001"
         style="stroke-width:1.98539996" />
      <rect
         id="rect46"
         height="105.2"
         width="121.32"
         y="384.07001"
         x="413.81"
         style="stroke-width:1.33089995" />
    </g>
  </g>
  <g
     id="g1175"
     transform="translate(-46)">
    <path
       inkscape:transform-center-y="-2.2582149"
       inkscape:transform-center-x="-95.918998"
       id="path12"
       d="m 356.77001,336.66593 20.77112,4.08562 c 7.41375,1.45814 13.51093,-0.87428 13.96495,-8.41624 a 12.481,12.481 0 0 0 -13.59367,-13.17912 l -18.1738,1.66019 -80.86669,-3.61626 -53.76504,-19.08758 -9.01859,30.79797 59.64418,13.28546 z"
       inkscape:connector-curvature="0"
       style="fill:#ffb8b8"
       transform="matrix(1.1793957,0,0,1.1793957,89.84146,-250.18112)" />
    <polygon
       transform="matrix(1.1793957,0,0,1.1793957,213.84146,-250.18112)"
       id="polygon14"
       points="164.85,675.75 149.61,675.75 152.02,705.44 166.46,703.03 "
       style="fill:#ffb8b8" />
    <polygon
       transform="matrix(1.1793957,0,0,1.1793957,213.84146,-250.18112)"
       id="polygon16"
       points="36.695,658.08 23.087,651.21 11.857,678.79 25.833,683.15 "
       style="fill:#ffb8b8" />
    <g
       id="g28"
       style="fill:#2f2e41"
       transform="matrix(1.1793957,0,0,1.1793957,213.84146,-250.18112)">
      <path
         id="path20"
         d="m 387.02,382.66 c 27.497,-11.695 61.744,-4.2853 95.191,0.85757 0.31124,-6.228 4.0838,-13.808 0.132,-18.153 -4.8012,-5.2788 -4.3592,-10.825 -1.4701,-16.404 7.3879,-14.265 -3.1969,-29.444 -13.884,-42.065 a 23.669,23.669 0 0 0 -19.755,-8.2918 l -19.798,1.4141 a 23.709,23.709 0 0 0 -21.053,16.946 c -4.7272,6.4292 -7.2574,12.841 -5.6644,19.219 -7.0806,4.8388 -8.2703,10.68 -5.0885,17.264 2.698,4.1459 2.6693,8.1816 -0.12275,12.106 a 55.891,55.891 0 0 0 -8.3101,16.506 z"
         transform="translate(-308.73,-86.111)"
         inkscape:connector-curvature="0" />
      <path
         id="path22"
         d="m 328.37,741 17.65,7.2206 84.24,-110.72 26.476,129.97 17.65,-3.2092 c 11.322,-112.05 20.555,-226.34 9.2263,-280.4 l -65.386,-2.808 -29.685,94.67 -14.441,64.183 z"
         transform="translate(-308.73,-86.111)"
         inkscape:connector-curvature="0" />
      <path
         id="path24"
         d="m 461.54,813.61 a 12.672,12.672 0 0 0 7.8552,-0.83484 l 8.5787,-3.8604 c 7.1933,-0.36934 12.091,1.0634 16.096,-4.163 a 10.496,10.496 0 0 0 1.2254,-10.582 10.569,10.569 0 0 0 -8.6311,-6.2802 l -11.783,-7.4248 -0.61847,5.5662 c -5.3853,3.0509 -11.779,1.733 -18.554,-1.2369 l -3.6982,12.944 a 12.672,12.672 0 0 0 9.5292,15.872 z"
         transform="translate(-308.73,-86.111)"
         inkscape:connector-curvature="0" />
      <path
         id="path26"
         d="m 314.87,787.06 a 12.672,12.672 0 0 0 7.7006,1.7612 l 9.3674,-0.86547 c 6.9234,1.9865 11.091,4.9322 16.576,1.2896 a 10.496,10.496 0 0 0 4.5951,-9.6102 10.569,10.569 0 0 0 -6.124,-8.7426 l -8.7334,-10.849 -2.3925,5.0638 c -6.0842,1.1368 -11.704,-2.1859 -17.147,-7.1949 l -7.701,11.041 a 12.672,12.672 0 0 0 3.8588,18.106 z"
         transform="translate(-308.73,-86.111)"
         inkscape:connector-curvature="0" />
    </g>
    <circle
       id="circle30"
       r="34.063305"
       cy="47.191677"
       cx="371.37332"
       style="fill:#ffb8b8;stroke-width:1.17939568" />
    <polygon
       id="polygon32"
       points="140.79,273.8 114.31,268.19 98.264,313.12 135.97,305.09 "
       style="fill:#ffb8b8"
       transform="matrix(1.1793957,0,0,1.1793957,213.84146,-250.18112)" />
    <path
       id="path34"
       d="m 342.02997,220.34941 h 79.48178 l -17.91502,-44.97979 c 1.30182,-15.47721 -5.25763,-26.86074 -14.64568,-36.7712 l -11.91072,-29.90358 c -19.24419,-12.665532 -33.75312,-11.719657 -49.2032,4.73103 -18.31838,25.93609 -5.63846,64.92337 14.19284,106.92283 z"
       style="fill:#ff4545;stroke-width:1.17939568"
       inkscape:connector-curvature="0" />
    <path
       id="path36"
       d="m 377.98975,315.91584 2.26043,24.86402 c 0.8068,8.87472 5.4672,15.00309 14.15387,13.01699 a 14.720038,14.720038 0 0 0 10.41182,-19.75488 l -7.90242,-20.01906 -22.70921,-92.72881 3.78492,-67.18073 h -37.84799 l 4.73103,71.91247 z"
       style="fill:#ffb8b8;stroke-width:1.17939568"
       inkscape:connector-curvature="0" />
    <path
       id="path38"
       d="M 318.31233,92.373181 C 321.97482,59.189704 331.3588,30.932562 347.6439,8.6160368 l 2.43793,-0.081968 V 7.9311971 l 7.91586,0.3368708 22.01107,-0.7398113 c -0.5154,0.536 -1.00697,1.0745356 -1.50503,1.6123519 l 16.04916,0.6829762 15.1399,31.2256803 a 100.56235,100.56235 0 0 0 -44.81108,-2.544428 10.717051,10.717051 0 0 0 -8.37442,6.672667 3.9868292,3.9868292 0 0 0 0.0279,3.507641 c 6.36249,11.097641 6.04535,23.285988 -0.42104,36.082432 -1.41162,2.793398 1.29887,6.155973 2.14839,9.238088 z"
       style="fill:#2f2e41;stroke-width:1.17939568"
       inkscape:connector-curvature="0" />
    <path
       id="path40"
       d="m 337.3006,156.01337 h 43.5256 l -3.05134,-28.39395 a 19.697088,19.697088 0 0 0 -18.69696,-18.86915 19.697088,19.697088 0 0 0 -20.66537,18.901 z"
       style="fill:#ff4545;stroke-width:1.17939568"
       inkscape:connector-curvature="0" />
  </g>
</svg>
