<?xml version="1.0" encoding="UTF-8" standalone="no"?>
<svg
   xmlns:dc="http://purl.org/dc/elements/1.1/"
   xmlns:cc="http://creativecommons.org/ns#"
   xmlns:rdf="http://www.w3.org/1999/02/22-rdf-syntax-ns#"
   xmlns:svg="http://www.w3.org/2000/svg"
   xmlns="http://www.w3.org/2000/svg"
   xmlns:xlink="http://www.w3.org/1999/xlink"
   xmlns:sodipodi="http://sodipodi.sourceforge.net/DTD/sodipodi-0.dtd"
   xmlns:inkscape="http://www.inkscape.org/namespaces/inkscape"
   width="932.62653"
   height="608.63562"
   data-name="Layer 1"
   version="1.1"
   viewBox="0 0 932.62653 608.63562"
   id="svg157"
   sodipodi:docname="D.svg"
   inkscape:version="0.92.5 (2060ec1f9f, 2020-04-08)">
  <sodipodi:namedview
     pagecolor="#ffffff"
     bordercolor="#666666"
     borderopacity="1"
     objecttolerance="10"
     gridtolerance="10"
     guidetolerance="10"
     inkscape:pageopacity="0"
     inkscape:pageshadow="2"
     inkscape:window-width="1360"
     inkscape:window-height="705"
     id="namedview159"
     showgrid="false"
     inkscape:zoom="0.52009205"
     inkscape:cx="400.17158"
     inkscape:cy="398.00967"
     inkscape:window-x="1358"
     inkscape:window-y="-8"
     inkscape:window-maximized="1"
     inkscape:current-layer="svg157" />
  <metadata
     id="metadata2">
    <rdf:RDF>
      <cc:Work
         rdf:about="">
        <dc:format>image/svg+xml</dc:format>
        <dc:type
           rdf:resource="http://purl.org/dc/dcmitype/StillImage" />
        <dc:title>web_devices</dc:title>
      </cc:Work>
    </rdf:RDF>
  </metadata>
  <defs
     id="defs15">
    <linearGradient
       id="deacd444-d5db-4c24-9492-02e57292be3c"
       x1="675.04999"
       x2="675.04999"
       y1="606.02002"
       y2="240.27"
       gradientUnits="userSpaceOnUse">
      <stop
         stop-color="gray"
         stop-opacity=".25"
         offset="0"
         id="stop4" />
      <stop
         stop-color="gray"
         stop-opacity=".12"
         offset=".54"
         id="stop6" />
      <stop
         stop-color="gray"
         stop-opacity=".1"
         offset="1"
         id="stop8" />
    </linearGradient>
    <linearGradient
       id="a1de9c2c-a914-4f57-a703-6b671b828453"
       x1="473.94"
       x2="473.94"
       y1="635.65002"
       y2="301.64999"
       gradientTransform="translate(-82,-130)"
       xlink:href="#deacd444-d5db-4c24-9492-02e57292be3c" />
    <linearGradient
       id="33ead0d0-8f65-4117-bca2-44ecb419ecb0"
       x1="363.44"
       x2="363.44"
       y1="662.65002"
       y2="401.64999"
       gradientTransform="translate(-82,-130)"
       xlink:href="#deacd444-d5db-4c24-9492-02e57292be3c" />
    <linearGradient
       id="9a5964b5-9011-4675-8f60-8033350848c0"
       x1="849.67999"
       x2="849.67999"
       y1="703.65997"
       y2="385.5"
       gradientTransform="translate(-82,-130)"
       xlink:href="#deacd444-d5db-4c24-9492-02e57292be3c" />
    <linearGradient
       id="linearGradient949"
       x1="675.04999"
       x2="675.04999"
       y1="606.02002"
       y2="240.27"
       gradientTransform="translate(-82,-130)"
       gradientUnits="userSpaceOnUse"
       xlink:href="#deacd444-d5db-4c24-9492-02e57292be3c" />
    <clipPath
       id="a-4-8-9-3-1">
      <rect
         y="0"
         x="0"
         width="91"
         height="100.34"
         id="rect4" />
    </clipPath>
  </defs>
  <title
     id="title17">web_devices</title>
  <g
     transform="matrix(1.1793957,0,0,1.1793957,89.84146,-250.18112)"
     style="fill:#ffb8b8"
     id="g18" />
  <g
     transform="matrix(0,-0.77723239,-0.77723239,0,308.02944,338.52339)"
     id="g32">
    <rect
       style="fill:#f2f2f2;stroke-width:0.96498001"
       x="0"
       y="27.5"
       width="406"
       height="272"
       id="rect8" />
    <rect
       style="fill:none;stroke:#3f3d56;stroke-width:1.93040001;stroke-miterlimit:10"
       x="27.465"
       y="0.96518999"
       width="406.07001"
       height="272.07001"
       stroke-miterlimit="10"
       id="rect10" />
    <path
       style="fill:#3f3d56"
       inkscape:connector-curvature="0"
       d="m 198.9,213.04 a 94,94 0 0 0 160.47,-66.468 h -94 z"
       id="path12" />
    <path
       style="fill:#ff4545"
       inkscape:connector-curvature="0"
       d="M 359.37,146.57 A 94.011,94.011 0 0 0 182.81,101.602 l 82.564,44.968 z"
       id="path14" />
    <path
       style="fill:#575a89"
       inkscape:connector-curvature="0"
       d="m 180.25,215.52 66.468,-66.468 -82.564,-44.968 a 94.049,94.049 0 0 0 16.096,111.44 z"
       id="path16" />
    <rect
       style="fill:#ff4545"
       transform="matrix(0,-1,-1,0,0,0)"
       x="-255.53"
       y="-61.894001"
       width="18"
       height="18"
       id="rect18" />
    <rect
       style="fill:#3f3d56"
       transform="matrix(0,-1,-1,0,0,0)"
       x="-229.53"
       y="-61.894001"
       width="18"
       height="18"
       id="rect20" />
    <rect
       style="fill:#575a89"
       transform="matrix(0,-1,-1,0,0,0)"
       x="-203.53"
       y="-61.894001"
       width="18"
       height="18"
       id="rect22" />
    <g
       style="fill:#3f3d56"
       id="g30">
      <rect
         transform="rotate(90)"
         x="137.19"
         y="-137.44"
         width="74"
         height="3"
         id="rect24" />
      <rect
         transform="rotate(90)"
         x="137.19"
         y="-128.44"
         width="74"
         height="3"
         id="rect26" />
      <rect
         transform="rotate(90)"
         x="137.19"
         y="-119.44"
         width="74"
         height="3"
         id="rect28" />
    </g>
  </g>
  <g
     transform="matrix(0.77723239,0,0,0.77723239,-62.150806,67.424724)"
     id="g58">
    <rect
       style="fill:#f2f2f2"
       x="137"
       y="406.5"
       width="248"
       height="272"
       id="rect34" />
    <rect
       style="fill:none;stroke:#3f3d56;stroke-width:2;stroke-miterlimit:10"
       x="162"
       y="380.5"
       width="248"
       height="272"
       stroke-miterlimit="10"
       id="rect36" />
    <rect
       style="fill:#ff4545"
       x="175"
       y="621.81"
       width="13.371"
       height="13.371"
       id="rect38" />
    <rect
       style="fill:#3f3d56"
       x="194.31"
       y="621.81"
       width="13.371"
       height="13.371"
       id="rect40" />
    <rect
       style="fill:#575a89"
       x="213.63"
       y="621.81"
       width="13.371"
       height="13.371"
       id="rect42" />
    <g
       style="fill:#3f3d56"
       id="g52">
      <rect
         x="325"
         y="627.62"
         width="52"
         height="2.1080999"
         id="rect44" />
      <rect
         x="325"
         y="633.95001"
         width="52"
         height="2.1080999"
         id="rect46" />
      <rect
         x="325"
         y="640.27002"
         width="52"
         height="2.1080999"
         id="rect48" />
      <path
         inkscape:connector-curvature="0"
         d="m 286,428.5 v 22 a 66,66 0 0 1 46.669,112.67 l 15.556,15.556 A 88,88 0 0 0 286,428.496 Z"
         id="path50" />
    </g>
    <path
       style="fill:#575a89"
       inkscape:connector-curvature="0"
       d="m 348.23,578.73 -15.556,-15.556 a 65.983,65.983 0 0 1 -86.6,5.8716 l -13.316,17.521 a 87.998,87.998 0 0 0 115.47,-7.8361 z"
       id="path54" />
    <path
       style="fill:#ff4545"
       inkscape:connector-curvature="0"
       d="m 220,516.5 a 66,66 0 0 1 66,-66 v -22 a 87.999,87.999 0 0 0 -53.247,158.06 l 13.316,-17.521 A 65.885,65.885 0 0 1 220,516.498 Z"
       id="path56" />
  </g>
  <path
     inkscape:connector-curvature="0"
     style="fill:#ffb9b9;stroke-width:0.77723241"
     d="m 749.58292,81.63253 c 0,0 -3.17134,23.5587 4.98354,26.27667 8.15488,2.71799 5.88956,23.5587 5.88956,23.5587 l -24.46418,18.57507 -21.74618,1.8122 -5.43659,-28.08918 3.17126,-7.24878 c 0,0 12.2321,-14.49771 3.6244,-29.447777 -8.60769,-14.950067 33.97826,-5.436505 33.97826,-5.436505 z"
     id="path60" />
  <path
     inkscape:connector-curvature="0"
     style="opacity:0.1;stroke-width:0.77723241"
     d="m 749.58292,81.63253 c 0,0 -3.17134,23.5587 4.98354,26.27667 8.15488,2.71799 5.88956,23.5587 5.88956,23.5587 l -24.46418,18.57507 -21.74618,1.8122 -5.43659,-28.08918 3.17126,-7.24878 c 0,0 12.2321,-14.49771 3.6244,-29.447777 -8.60769,-14.950067 33.97826,-5.436505 33.97826,-5.436505 z"
     id="path62" />
  <path
     inkscape:connector-curvature="0"
     style="fill:#575a89;stroke-width:0.77723241"
     d="m 726.93437,265.12156 -28.54153,67.05106 c 0,0 -22.1993,-12.68521 -35.33764,-11.32583 -13.13833,1.35937 -29.44778,-14.49772 -29.44778,-14.49772 l 16.30945,-78.82691 30.35402,-83.81675 42.133,26.72981 z"
     id="path64" />
  <path
     inkscape:connector-curvature="0"
     style="opacity:0.1;stroke-width:0.77723241"
     d="m 726.93437,265.12156 -28.54153,67.05106 c 0,0 -22.1993,-12.68521 -35.33764,-11.32583 -13.13833,1.35937 -29.44778,-14.49772 -29.44778,-14.49772 l 16.30945,-78.82691 30.35402,-83.81675 42.133,26.72981 z"
     id="path66" />
  <polygon
     transform="matrix(0.77723239,0,0,0.77723239,25.497688,-27.949457)"
     style="fill:#575a89"
     points="960.19,743.71 960.19,771.69 933.96,771.69 938.04,739.04 "
     id="polygon68" />
  <polygon
     transform="matrix(0.77723239,0,0,0.77723239,25.497688,-27.949457)"
     style="fill:#575a89"
     points="1033.6,739.04 1019.1,737.3 1005.1,717.48 1028.4,695.33 1047.6,706.99 "
     id="polygon70" />
  <g
     transform="matrix(0.77723239,0,0,0.77723239,25.497688,-27.949457)"
     style="fill:#2f2e41"
     id="g80">
    <path
       inkscape:connector-curvature="0"
       d="m 965.43,368.91 34.391,81.023 c 0,0 -12.241,89.766 -11.658,97.344 0.583,7.578 1.1658,10.492 -1.7487,16.904 -2.9145,6.412 -4.0803,10.492 -2.3316,18.07 1.7487,7.578 2.3316,10.492 1.1658,13.407 -1.1658,2.915 -9.3263,122.99 -13.407,131.15 -4.0807,8.16 2.3316,21.567 -1.7487,22.733 -4.0803,1.166 -34.391,-1.7487 -36.14,-8.7434 -1.749,-6.9947 5.829,-23.899 1.7487,-29.145 -4.0803,-5.246 0.5829,-194.1 -5.2461,-206.93 -5.829,-12.83 -69.948,-24.482 -69.948,-24.482 0,0 -5.829,-37.305 -2.3316,-43.134 3.4974,-5.829 8.1605,-42.551 8.1605,-42.551 z"
       id="path72" />
    <path
       inkscape:connector-curvature="0"
       d="m 931.62,767.02 c 0,0 16.321,-19.236 30.311,0 0,0 1.1658,22.733 11.075,27.396 9.9093,4.6631 5.2461,23.316 -8.7434,23.899 -13.99,0.5829 -32.059,2.9145 -32.642,-4.6632 -0.583,-7.5777 2.3316,-12.241 -2.9145,-14.572 -5.2461,-2.331 0,-15.738 0,-15.738 z"
       id="path74" />
    <path
       inkscape:connector-curvature="0"
       d="m 933.37,488.4 c 0,0 -0.5829,41.969 -4.6632,47.798 -4.0803,5.829 -6.4119,9.3263 -4.0803,15.738 2.3316,6.4117 5.829,18.07 4.0803,20.401 -1.7487,2.331 1.7487,14.572 1.7487,14.572 0,0 44.883,21.567 65.867,66.45 0,0 21.567,35.557 27.979,36.14 6.4119,0.5829 13.99,-4.0803 10.492,9.3263 -3.4974,13.407 -16.904,30.894 -26.813,29.145 -9.9092,-1.7487 -17.487,-18.653 -17.487,-18.653 0,0 -77.525,-78.691 -85.686,-81.023 -8.161,-2.332 -31.476,-20.984 -35.557,-32.642 -4.081,-11.658 -12.824,-109 -8.7434,-115.41 4.0806,-6.41 19.236,-15.155 19.236,-15.155 z"
       id="path76" />
    <path
       inkscape:connector-curvature="0"
       d="m 1034.2,693 c 0,0 36.14,1.1658 36.722,9.9092 0.582,8.7434 -15.155,60.621 -12.824,72.862 2.3316,12.241 -18.07,40.22 -31.476,34.391 -13.407,-5.829 -2.9144,-36.14 -2.9144,-36.14 0,0 -13.407,-41.386 -11.075,-41.969 2.3316,-0.5829 25.647,-7.5776 24.482,-14.572 -1.165,-6.9944 -2.9145,-24.482 -2.9145,-24.482 z"
       id="path78" />
  </g>
  <circle
     style="fill:#ffb9b9;stroke-width:0.77723241"
     cx="728.5199"
     cy="77.785225"
     r="28.089178"
     id="circle82" />
  <path
     inkscape:connector-curvature="0"
     style="fill:#ff4545;stroke-width:0.77723241"
     d="m 756.8345,121.05376 c 0,0 -15.40319,16.30945 -26.7298,13.59145 -11.3266,-2.71797 -17.2157,-22.1993 -17.2157,-22.1993 l -20.3868,-3.62438 c 0,0 -14.49771,64.3323 -14.49771,70.67529 0,6.34299 14.49771,74.75265 14.49771,86.98785 0,12.23519 -11.77896,19.48132 6.34269,19.0282 18.12163,-0.45312 9.51409,-6.34269 35.79076,-6.79566 26.27668,-0.45296 30.35405,5.43659 35.79078,-4.07743 a 75.798035,75.798035 0 0 1 13.59146,-16.76257 l -9.51411,-33.52514 -1.35913,-94.69022 c 0,0 -11.61496,-22.65244 -16.90714,-20.83994 0,0 2.86285,9.96722 0.59761,12.23208 z"
     id="path84" />
  <path
     inkscape:connector-curvature="0"
     style="fill:#575a89;stroke-width:0.77723241"
     d="m 751.25397,104.80961 c 0,0 24.15483,2.64779 30.95095,7.63132 6.79565,4.98353 25.82355,8.60785 25.37042,12.23209 -0.45312,3.62423 -22.19931,55.27133 -22.19931,55.27133 0,0 -9.96723,40.77439 -1.35906,50.28849 8.60784,9.51411 40.77438,113.2583 35.33764,121.87003 -5.43658,8.60786 -22.65244,-26.27667 -22.65244,-26.27667 0,0 -23.10556,-74.75265 -35.79077,-87.43864 -12.68522,-12.68521 -13.59147,-81.09643 -13.59147,-84.26754 0,-3.1711 3.93365,-49.3115 3.93365,-49.3115 z"
     id="path86" />
  <path
     inkscape:connector-curvature="0"
     style="fill:#575a89;stroke-width:0.77723241"
     d="m 715.92098,110.06369 c 0,0 -29.76333,-11.214675 -40.18291,-6.68427 -10.41957,4.53042 -16.76257,5.43659 -16.76257,5.43659 l -3.62431,44.39862 c 0,0 -1.35915,63.87917 -13.13833,79.28546 -11.7792,15.4063 -19.48134,79.73629 -17.66884,86.0785 1.81252,6.34222 -3.17133,17.2157 4.53049,14.49771 7.70185,-2.71798 28.99466,-65.23856 28.99466,-65.23856 0,0 0,-35.79076 12.68521,-45.75799 12.68522,-9.96723 33.52514,-51.19397 34.4314,-61.1612 0.90625,-9.96723 9.5141,-37.6025 9.5141,-37.6025 z"
     id="path88" />
  <path
     inkscape:connector-curvature="0"
     style="fill:#ffb9b9;stroke-width:0.77723241"
     d="m 817.96382,252.88793 c 0,0 -13.59145,25.3704 -15.40318,29.90089 -1.81173,4.53048 -14.49772,35.33766 -32.61967,28.54153 -18.12195,-6.79565 17.66883,-39.86813 17.66883,-39.86813 l 8.15472,-27.63606 c 0,0 21.29305,-4.53048 22.1993,9.06097 z"
     id="path90" />
  <path
     inkscape:connector-curvature="0"
     style="fill:#575a89;stroke-width:0.77723241"
     d="m 663.50444,108.82013 h -4.53049 c 0,0 -4.53048,-3.6244 -9.96723,-1.35916 -5.43675,2.26526 -18.12195,-0.90609 -18.12195,0.45305 0,1.35915 -14.04458,-4.07743 -19.93368,-1.35914 -5.88909,2.71829 -27.18292,3.62439 -27.18292,3.62439 0,0 -8.60786,21.74617 -2.7183,25.82354 5.88956,4.07736 14.49772,0.9061 18.57509,4.07743 4.07735,3.17136 11.77894,-0.45304 14.4977,3.6244 2.71877,4.07744 12.68522,11.32583 14.95084,6.79566 2.26563,-4.53018 -2.26524,-8.60785 7.24872,-3.6244 9.51393,4.98346 24.46415,4.98354 24.46415,4.98354 z"
     id="path92" />
  <path
     inkscape:connector-curvature="0"
     style="fill:#2f2e41;stroke-width:0.77723241"
     d="m 731.05371,57.033134 c -3.80098,-0.87827 -7.74676,0.09493 -11.59631,0.725892 -3.84956,0.630909 -8.09255,0.838938 -11.34914,-1.309094 -2.40501,-1.586339 -3.88362,-4.210663 -5.27214,-6.735031 a 7.7516496,7.7516496 0 0 1 -1.13406,-2.971751 c -0.16345,-1.866986 1.02416,-3.570294 2.28531,-4.956566 5.858,-6.439214 14.41843,-9.963341 23.05116,-11.083333 7.09651,-0.920244 14.49538,-0.303976 21.04822,2.570306 6.55285,2.874284 12.187,8.137624 14.76353,14.814054 a 42.069257,42.069257 0 0 1 2.20493,10.578906 31.599937,31.599937 0 0 1 0.1486,8.011715 34.344346,34.344346 0 0 1 -1.55259,5.80429 l -4.26794,12.887292 a 8.4904866,8.4904866 0 0 1 -1.6782,3.321969 2.9034294,2.9034294 0 0 1 -3.39992,0.744876 10.580464,10.580464 0 0 0 0.15304,-4.275173 3.6073688,3.6073688 0 0 0 -2.84631,-2.870478 c -1.57311,-0.166934 -2.91696,1.052539 -4.40924,1.577711 a 5.4243048,5.4243048 0 0 1 -6.84819,-4.076426 c -0.23558,-1.473325 0.15995,-3.05056 -0.39849,-4.434187 -0.65435,-1.621076 -2.38937,-2.470437 -3.69287,-3.635281 a 8.4998134,8.4998134 0 0 1 -2.33232,-8.834016 c 0.34898,-1.072508 1.33451,-1.560065 1.13732,-2.792133 -0.25866,-1.616411 -2.64181,-2.746508 -4.01439,-3.063696 z"
     id="path94" />
  <path
     inkscape:connector-curvature="0"
     style="fill:#ffb9b9;stroke-width:0.77723241"
     d="m 588.45488,110.14919 c 8.26043,0.35917 14.399,7.85082 13.50519,16.07084 -0.80957,7.44729 -3.79601,16.71438 -13.20285,20.27332 -16.76258,6.34269 -15.85633,-29.44778 -12.68521,-30.80716 2.11423,-0.9061 5.43659,-5.83919 12.38365,-5.53716 z"
     id="path96" />
  <path
     inkscape:connector-curvature="0"
     style="fill:#575a89;stroke-width:0.77723241"
     d="m 802.59017,122.2507 4.98355,2.42038 c 0,0 10.87347,22.1993 11.32582,25.37041 0.45235,3.17112 7.70175,14.95084 4.98345,18.12195 -2.7182,3.17135 -6.79566,11.32583 -4.07736,14.49772 2.71823,3.17134 9.06098,15.85632 9.06098,20.3868 0,4.53049 -6.79565,16.76259 -2.26524,18.12195 4.53048,1.35916 3.17134,19.02822 2.26524,20.38681 -0.9061,1.35861 -12.68521,23.5587 -12.68521,23.5587 0,0 -2.26524,-25.37043 -24.46416,-14.95084 0,0 -1.81221,-12.68522 0,-13.59147 1.81219,-0.90625 6.34267,-6.34268 2.71829,-7.24878 -3.62439,-0.9061 -8.60785,-11.77895 -7.70183,-13.13833 0.90609,-1.35915 3.17133,-3.17135 0.90609,-4.5305 -2.26524,-1.35914 -4.07735,-9.06098 -3.6243,-10.42035 0.45304,-1.35938 -4.98354,-7.70176 -4.98354,-7.70176 z"
     id="path98" />
  <g
     transform="matrix(1.0663629,0,0,1.0663629,-200.33496,-88.527726)"
     id="g136">
    <rect
       style="fill:#f2f2f2"
       x="507"
       y="236.5"
       width="248"
       height="272"
       id="rect100" />
    <rect
       style="fill:none;stroke:#3f3d56;stroke-width:2;stroke-miterlimit:10"
       x="532"
       y="210.5"
       width="248"
       height="272"
       stroke-miterlimit="10"
       id="rect102" />
    <polyline
       style="fill:none;stroke:#3f3d56;stroke-width:2;stroke-miterlimit:10"
       points="556 227.5 556 435.5 757 435.5"
       stroke-miterlimit="10"
       id="polyline104" />
    <rect
       style="fill:#575a89;stroke-width:0.81875998"
       x="567"
       y="386.23001"
       width="45"
       height="48.265999"
       id="rect106" />
    <rect
       style="fill:#3f3d56;stroke-width:0.80927998"
       x="632"
       y="355.25"
       width="45"
       height="79.246002"
       id="rect108" />
    <rect
       style="fill:#ff4545;stroke-width:0.91759002"
       x="697"
       y="284.63"
       width="45"
       height="149.87"
       id="rect110" />
    <rect
       style="fill:#ff4545"
       x="553"
       y="451.81"
       width="13.371"
       height="13.371"
       id="rect112" />
    <rect
       style="fill:#3f3d56"
       x="572.31"
       y="451.81"
       width="13.371"
       height="13.371"
       id="rect114" />
    <rect
       style="fill:#575a89"
       x="591.63"
       y="451.81"
       width="13.371"
       height="13.371"
       id="rect116" />
    <g
       style="fill:#3f3d56"
       id="g124">
      <rect
         x="703"
         y="457.62"
         width="52"
         height="2.1080999"
         id="rect118" />
      <rect
         x="703"
         y="463.95001"
         width="52"
         height="2.1080999"
         id="rect120" />
      <rect
         x="703"
         y="470.26999"
         width="52"
         height="2.1080999"
         id="rect122" />
    </g>
    <path
       style="fill:none;stroke:#2f2e41;stroke-width:4"
       inkscape:connector-curvature="0"
       d="m 589.56,367.97 64.663,-33.018 67.52,-68.344"
       id="path126" />
    <g
       style="fill:#2f2e41;stroke-width:0"
       id="g134">
      <circle
         cx="589.46002"
         cy="368.32999"
         r="5"
         style="paint-order:normal"
         id="circle128" />
      <circle
         cx="654.07001"
         cy="335"
         r="5"
         style="paint-order:normal"
         id="circle130" />
      <circle
         cx="721.23999"
         cy="267.22"
         r="5"
         style="paint-order:normal"
         id="circle132" />
    </g>
  </g>
</svg>
