<?xml version="1.0" encoding="UTF-8" standalone="no"?>
<svg
   xmlns:dc="http://purl.org/dc/elements/1.1/"
   xmlns:cc="http://creativecommons.org/ns#"
   xmlns:rdf="http://www.w3.org/1999/02/22-rdf-syntax-ns#"
   xmlns:svg="http://www.w3.org/2000/svg"
   xmlns="http://www.w3.org/2000/svg"
   xmlns:xlink="http://www.w3.org/1999/xlink"
   xmlns:sodipodi="http://sodipodi.sourceforge.net/DTD/sodipodi-0.dtd"
   xmlns:inkscape="http://www.inkscape.org/namespaces/inkscape"
   width="1100"
   height="500"
   data-name="Layer 1"
   version="1.1"
   viewBox="0 0 1100 500"
   id="svg157"
   sodipodi:docname="Drr.svg"
   inkscape:version="0.92.5 (2060ec1f9f, 2020-04-08)">
  <sodipodi:namedview
     pagecolor="#ffffff"
     bordercolor="#666666"
     borderopacity="1"
     objecttolerance="10"
     gridtolerance="10"
     guidetolerance="10"
     inkscape:pageopacity="0"
     inkscape:pageshadow="2"
     inkscape:window-width="1366"
     inkscape:window-height="705"
     id="namedview159"
     showgrid="false"
     inkscape:zoom="0.26004603"
     inkscape:cx="628.3729"
     inkscape:cy="412.90451"
     inkscape:window-x="-8"
     inkscape:window-y="399"
     inkscape:window-maximized="1"
     inkscape:current-layer="svg157" />
  <metadata
     id="metadata2">
    <rdf:RDF>
      <cc:Work
         rdf:about="">
        <dc:format>image/svg+xml</dc:format>
        <dc:type
           rdf:resource="http://purl.org/dc/dcmitype/StillImage" />
        <dc:title>web_devices</dc:title>
      </cc:Work>
    </rdf:RDF>
  </metadata>
  <defs
     id="defs15">
    <linearGradient
       id="deacd444-d5db-4c24-9492-02e57292be3c"
       x1="675.04999"
       x2="675.04999"
       y1="606.02002"
       y2="240.27"
       gradientUnits="userSpaceOnUse">
      <stop
         stop-color="gray"
         stop-opacity=".25"
         offset="0"
         id="stop4" />
      <stop
         stop-color="gray"
         stop-opacity=".12"
         offset=".54"
         id="stop6" />
      <stop
         stop-color="gray"
         stop-opacity=".1"
         offset="1"
         id="stop8" />
    </linearGradient>
    <linearGradient
       id="a1de9c2c-a914-4f57-a703-6b671b828453"
       x1="473.94"
       x2="473.94"
       y1="635.65002"
       y2="301.64999"
       gradientTransform="translate(-82,-130)"
       xlink:href="#deacd444-d5db-4c24-9492-02e57292be3c" />
    <linearGradient
       id="33ead0d0-8f65-4117-bca2-44ecb419ecb0"
       x1="363.44"
       x2="363.44"
       y1="662.65002"
       y2="401.64999"
       gradientTransform="translate(-82,-130)"
       xlink:href="#deacd444-d5db-4c24-9492-02e57292be3c" />
    <linearGradient
       id="9a5964b5-9011-4675-8f60-8033350848c0"
       x1="849.67999"
       x2="849.67999"
       y1="703.65997"
       y2="385.5"
       gradientTransform="translate(-82,-130)"
       xlink:href="#deacd444-d5db-4c24-9492-02e57292be3c" />
    <linearGradient
       id="linearGradient949"
       x1="675.04999"
       x2="675.04999"
       y1="606.02002"
       y2="240.27"
       gradientTransform="translate(-82,-130)"
       gradientUnits="userSpaceOnUse"
       xlink:href="#deacd444-d5db-4c24-9492-02e57292be3c" />
    <clipPath
       id="a-4-8-9-3-1">
      <rect
         y="0"
         x="0"
         width="91"
         height="100.34"
         id="rect4" />
    </clipPath>
  </defs>
  <title
     id="title17">web_devices</title>
  <g
     transform="matrix(1.1793957,0,0,1.1793957,924.62021,-524.21634)"
     style="fill:#ffb8b8"
     id="g18" />
  <g
     id="g989"
     transform="translate(16.858528,-41.573207)">
    <g
       id="g32"
       transform="matrix(0,-0.57984182,-0.57984182,0,426.40772,340.01952)">
      <rect
         id="rect8"
         height="272"
         width="406"
         y="27.5"
         x="0"
         style="fill:#f2f2f2;stroke-width:0.96498001" />
      <rect
         id="rect10"
         stroke-miterlimit="10"
         height="272.07001"
         width="406.07001"
         y="0.96518999"
         x="27.465"
         style="fill:none;stroke:#3f3d56;stroke-width:1.93040001;stroke-miterlimit:10" />
      <path
         id="path12"
         d="m 198.9,213.04 a 94,94 0 0 0 160.47,-66.468 h -94 z"
         inkscape:connector-curvature="0"
         style="fill:#3f3d56" />
      <path
         id="path14"
         d="M 359.37,146.57 A 94.011,94.011 0 0 0 182.81,101.602 l 82.564,44.968 z"
         inkscape:connector-curvature="0"
         style="fill:#ff4545" />
      <path
         id="path16"
         d="m 180.25,215.52 66.468,-66.468 -82.564,-44.968 a 94.049,94.049 0 0 0 16.096,111.44 z"
         inkscape:connector-curvature="0"
         style="fill:#575a89" />
      <rect
         id="rect18"
         height="18"
         width="18"
         y="-61.894001"
         x="-255.53"
         transform="matrix(0,-1,-1,0,0,0)"
         style="fill:#ff4545" />
      <rect
         id="rect20"
         height="18"
         width="18"
         y="-61.894001"
         x="-229.53"
         transform="matrix(0,-1,-1,0,0,0)"
         style="fill:#3f3d56" />
      <rect
         id="rect22"
         height="18"
         width="18"
         y="-61.894001"
         x="-203.53"
         transform="matrix(0,-1,-1,0,0,0)"
         style="fill:#575a89" />
      <g
         id="g30"
         style="fill:#3f3d56">
        <rect
           id="rect24"
           height="3"
           width="74"
           y="-137.44"
           x="137.19"
           transform="rotate(90)" />
        <rect
           id="rect26"
           height="3"
           width="74"
           y="-128.44"
           x="137.19"
           transform="rotate(90)" />
        <rect
           id="rect28"
           height="3"
           width="74"
           y="-119.44"
           x="137.19"
           transform="rotate(90)" />
      </g>
    </g>
    <g
       id="g58"
       transform="matrix(0.57984182,0,0,0.57984182,150.24066,137.77069)">
      <rect
         id="rect34"
         height="272"
         width="248"
         y="406.5"
         x="137"
         style="fill:#f2f2f2" />
      <rect
         id="rect36"
         stroke-miterlimit="10"
         height="272"
         width="248"
         y="380.5"
         x="162"
         style="fill:none;stroke:#3f3d56;stroke-width:2;stroke-miterlimit:10" />
      <rect
         id="rect38"
         height="13.371"
         width="13.371"
         y="621.81"
         x="175"
         style="fill:#ff4545" />
      <rect
         id="rect40"
         height="13.371"
         width="13.371"
         y="621.81"
         x="194.31"
         style="fill:#3f3d56" />
      <rect
         id="rect42"
         height="13.371"
         width="13.371"
         y="621.81"
         x="213.63"
         style="fill:#575a89" />
      <g
         id="g52"
         style="fill:#3f3d56">
        <rect
           id="rect44"
           height="2.1080999"
           width="52"
           y="627.62"
           x="325" />
        <rect
           id="rect46"
           height="2.1080999"
           width="52"
           y="633.95001"
           x="325" />
        <rect
           id="rect48"
           height="2.1080999"
           width="52"
           y="640.27002"
           x="325" />
        <path
           id="path50"
           d="m 286,428.5 v 22 a 66,66 0 0 1 46.669,112.67 l 15.556,15.556 A 88,88 0 0 0 286,428.496 Z"
           inkscape:connector-curvature="0" />
      </g>
      <path
         id="path54"
         d="m 348.23,578.73 -15.556,-15.556 a 65.983,65.983 0 0 1 -86.6,5.8716 l -13.316,17.521 a 87.998,87.998 0 0 0 115.47,-7.8361 z"
         inkscape:connector-curvature="0"
         style="fill:#575a89" />
      <path
         id="path56"
         d="m 220,516.5 a 66,66 0 0 1 66,-66 v -22 a 87.999,87.999 0 0 0 -53.247,158.06 l 13.316,-17.521 A 65.885,65.885 0 0 1 220,516.498 Z"
         inkscape:connector-curvature="0"
         style="fill:#ff4545" />
    </g>
    <path
       id="path60"
       d="m 755.82165,148.37019 c 0,0 -2.36593,17.5756 3.71789,19.6033 6.08382,2.02771 4.39381,17.57559 4.39381,17.57559 l -18.25111,13.85763 -16.22339,1.35196 -4.05588,-20.95548 2.36587,-5.40784 c 0,0 9.12556,-10.81578 2.70392,-21.96904 -6.42163,-11.15326 25.34894,-4.05582 25.34894,-4.05582 z"
       style="fill:#ffb9b9;stroke-width:0.57984185"
       inkscape:connector-curvature="0" />
    <path
       id="path62"
       d="m 755.82165,148.37019 c 0,0 -2.36593,17.5756 3.71789,19.6033 6.08382,2.02771 4.39381,17.57559 4.39381,17.57559 l -18.25111,13.85763 -16.22339,1.35196 -4.05588,-20.95548 2.36587,-5.40784 c 0,0 9.12556,-10.81578 2.70392,-21.96904 -6.42163,-11.15326 25.34894,-4.05582 25.34894,-4.05582 z"
       style="opacity:0.1;stroke-width:0.57984185"
       inkscape:connector-curvature="0" />
    <path
       id="path64"
       d="m 738.92506,285.25926 -21.29295,50.02237 c 0,0 -16.56144,-9.4636 -26.36308,-8.44945 -9.80165,1.01413 -21.96905,-10.8158 -21.96905,-10.8158 l 12.1674,-58.80755 22.64514,-62.53015 31.43265,19.94134 z"
       style="fill:#575a89;stroke-width:0.57984185"
       inkscape:connector-curvature="0" />
    <path
       id="path66"
       d="m 738.92506,285.25926 -21.29295,50.02237 c 0,0 -16.56144,-9.4636 -26.36308,-8.44945 -9.80165,1.01413 -21.96905,-10.8158 -21.96905,-10.8158 l 12.1674,-58.80755 22.64514,-62.53015 31.43265,19.94134 z"
       style="opacity:0.1;stroke-width:0.57984185"
       inkscape:connector-curvature="0" />
    <polygon
       id="polygon68"
       points="938.04,739.04 960.19,743.71 960.19,771.69 933.96,771.69 "
       style="fill:#575a89"
       transform="matrix(0.57984182,0,0,0.57984182,215.62942,66.618303)" />
    <polygon
       id="polygon70"
       points="1019.1,737.3 1005.1,717.48 1028.4,695.33 1047.6,706.99 1033.6,739.04 "
       style="fill:#575a89"
       transform="matrix(0.57984182,0,0,0.57984182,215.62942,66.618303)" />
    <g
       id="g80"
       style="fill:#2f2e41"
       transform="matrix(0.57984182,0,0,0.57984182,215.62942,66.618303)">
      <path
         id="path72"
         d="m 965.43,368.91 34.391,81.023 c 0,0 -12.241,89.766 -11.658,97.344 0.583,7.578 1.1658,10.492 -1.7487,16.904 -2.9145,6.412 -4.0803,10.492 -2.3316,18.07 1.7487,7.578 2.3316,10.492 1.1658,13.407 -1.1658,2.915 -9.3263,122.99 -13.407,131.15 -4.0807,8.16 2.3316,21.567 -1.7487,22.733 -4.0803,1.166 -34.391,-1.7487 -36.14,-8.7434 -1.749,-6.9947 5.829,-23.899 1.7487,-29.145 -4.0803,-5.246 0.5829,-194.1 -5.2461,-206.93 -5.829,-12.83 -69.948,-24.482 -69.948,-24.482 0,0 -5.829,-37.305 -2.3316,-43.134 3.4974,-5.829 8.1605,-42.551 8.1605,-42.551 z"
         inkscape:connector-curvature="0" />
      <path
         id="path74"
         d="m 931.62,767.02 c 0,0 16.321,-19.236 30.311,0 0,0 1.1658,22.733 11.075,27.396 9.9093,4.6631 5.2461,23.316 -8.7434,23.899 -13.99,0.5829 -32.059,2.9145 -32.642,-4.6632 -0.583,-7.5777 2.3316,-12.241 -2.9145,-14.572 -5.2461,-2.331 0,-15.738 0,-15.738 z"
         inkscape:connector-curvature="0" />
      <path
         id="path76"
         d="m 933.37,488.4 c 0,0 -0.5829,41.969 -4.6632,47.798 -4.0803,5.829 -6.4119,9.3263 -4.0803,15.738 2.3316,6.4117 5.829,18.07 4.0803,20.401 -1.7487,2.331 1.7487,14.572 1.7487,14.572 0,0 44.883,21.567 65.867,66.45 0,0 21.567,35.557 27.979,36.14 6.4119,0.5829 13.99,-4.0803 10.492,9.3263 -3.4974,13.407 -16.904,30.894 -26.813,29.145 -9.9092,-1.7487 -17.487,-18.653 -17.487,-18.653 0,0 -77.525,-78.691 -85.686,-81.023 -8.161,-2.332 -31.476,-20.984 -35.557,-32.642 -4.081,-11.658 -12.824,-109 -8.7434,-115.41 4.0806,-6.41 19.236,-15.155 19.236,-15.155 z"
         inkscape:connector-curvature="0" />
      <path
         id="path78"
         d="m 1034.2,693 c 0,0 36.14,1.1658 36.722,9.9092 0.582,8.7434 -15.155,60.621 -12.824,72.862 2.3316,12.241 -18.07,40.22 -31.476,34.391 -13.407,-5.829 -2.9144,-36.14 -2.9144,-36.14 0,0 -13.407,-41.386 -11.075,-41.969 2.3316,-0.5829 25.647,-7.5776 24.482,-14.572 -1.165,-6.9944 -2.9145,-24.482 -2.9145,-24.482 z"
         inkscape:connector-curvature="0" />
    </g>
    <circle
       id="circle82"
       r="20.955482"
       cy="145.49998"
       cx="740.10791"
       style="fill:#ffb9b9;stroke-width:0.57984185" />
    <path
       id="path84"
       d="m 761.23158,177.77977 c 0,0 -11.49131,12.16741 -19.94135,10.13969 -8.45002,-2.0277 -12.84349,-16.56143 -12.84349,-16.56143 l -15.20925,-2.70392 c 0,0 -10.81579,47.99409 -10.81579,52.72618 0,4.73208 10.81579,55.76802 10.81579,64.89589 0,9.12787 -8.78751,14.53373 4.73186,14.19569 13.51936,-0.33804 7.09784,-4.73186 26.70113,-5.06979 19.6033,-0.33793 22.64515,4.05588 26.70114,-3.04191 a 56.547915,56.547915 0 0 1 10.13969,-12.50544 l -7.09785,-25.0109 -1.01396,-70.64213 c 0,0 -8.66515,-16.89949 -12.6133,-15.5473 0,0 2.13578,7.43588 0.44584,9.12555 z"
       style="fill:#ff4545;stroke-width:0.57984185"
       inkscape:connector-curvature="0" />
    <path
       id="path86"
       d="m 757.06831,165.66109 c 0,0 18.02033,1.97534 23.09046,5.69322 5.06979,3.71788 19.26525,6.42175 18.9272,9.12556 -0.33804,2.70379 -16.56144,41.23429 -16.56144,41.23429 0,0 -7.43589,30.41908 -1.01391,37.51692 6.42175,7.09785 30.41908,84.49455 26.36309,90.9192 -4.05588,6.42175 -16.8995,-19.60329 -16.8995,-19.60329 0,0 -17.23753,-55.76803 -26.70113,-65.23221 -9.4636,-9.46359 -10.1397,-60.50069 -10.1397,-62.86645 0,-2.36575 2.93464,-36.78806 2.93464,-36.78806 z"
       style="fill:#575a89;stroke-width:0.57984185"
       inkscape:connector-curvature="0" />
    <path
       id="path88"
       d="m 730.7087,169.58081 c 0,0 -22.20446,-8.36653 -29.97782,-4.98669 -7.77336,3.37984 -12.50545,4.05588 -12.50545,4.05588 l -2.70386,33.12288 c 0,0 -1.01397,47.65603 -9.80164,59.14965 -8.78768,11.49362 -14.53374,59.48599 -13.18156,64.21749 1.35221,4.73151 -2.36592,12.8435 3.3799,10.81579 5.74585,-2.02771 21.63101,-48.67019 21.63101,-48.67019 0,0 0,-26.70112 9.4636,-34.13702 9.4636,-7.43589 25.01089,-38.19244 25.68699,-45.62834 0.6761,-7.43589 7.09784,-28.05274 7.09784,-28.05274 z"
       style="fill:#575a89;stroke-width:0.57984185"
       inkscape:connector-curvature="0" />
    <path
       id="path90"
       d="m 806.83613,276.13255 c 0,0 -10.13968,18.92719 -11.4913,22.30709 -1.35161,3.37989 -10.81579,26.36309 -24.33538,21.29295 -13.51959,-5.06979 13.18155,-29.74298 13.18155,-29.74298 l 6.0837,-20.61745 c 0,0 15.88534,-3.37989 16.56143,6.7598 z"
       style="fill:#ffb9b9;stroke-width:0.57984185"
       inkscape:connector-curvature="0" />
    <path
       id="path92"
       d="m 691.60417,168.65307 h -3.3799 c 0,0 -3.37989,-2.70393 -7.43589,-1.01398 -4.056,1.68996 -13.51959,-0.67597 -13.51959,0.33799 0,1.01397 -10.47774,-3.0419 -14.8712,-1.01396 -4.39347,2.02793 -20.27939,2.70391 -20.27939,2.70391 0,0 -6.42175,16.22339 -2.02794,19.26524 4.39381,3.04185 10.81579,0.67599 13.85765,3.04191 3.04184,2.36594 8.78749,-0.33799 10.81577,2.70392 2.0283,3.04191 9.46361,8.44946 11.15384,5.0698 1.69024,-3.37967 -1.68995,-6.42175 5.40779,-2.70393 7.09772,3.71783 18.25109,3.71789 18.25109,3.71789 z"
       style="fill:#575a89;stroke-width:0.57984185"
       inkscape:connector-curvature="0" />
    <path
       id="path94"
       d="m 741.99823,130.01821 c -2.83566,-0.65522 -5.77935,0.0708 -8.65124,0.54154 -2.87191,0.47068 -6.03732,0.62587 -8.46685,-0.97663 -1.79422,-1.18346 -2.89731,-3.1413 -3.93319,-5.02456 a 5.7829945,5.7829945 0 0 1 -0.84605,-2.21703 c -0.12194,-1.39284 0.76406,-2.66356 1.70492,-3.69777 4.37027,-4.80387 10.75664,-7.43299 17.19695,-8.26854 5.29424,-0.68653 10.81404,-0.22678 15.70269,1.91753 4.88865,2.14432 9.09191,6.07095 11.01409,11.05179 a 31.385098,31.385098 0 0 1 1.64496,7.89223 23.574629,23.574629 0 0 1 0.11086,5.97701 25.622051,25.622051 0 0 1 -1.15829,4.3302 l -3.18403,9.61436 a 6.334192,6.334192 0 0 1 -1.25199,2.4783 2.1660572,2.1660572 0 0 1 -2.53646,0.5557 7.8933863,7.8933863 0 0 0 0.11418,-3.18942 2.6912199,2.6912199 0 0 0 -2.12345,-2.14148 c -1.17359,-0.12454 -2.17615,0.78523 -3.28944,1.17703 a 4.046716,4.046716 0 0 1 -5.10899,-3.04115 c -0.17575,-1.09916 0.11933,-2.27583 -0.29728,-3.30806 -0.48817,-1.20938 -1.78255,-1.84303 -2.75501,-2.71204 a 6.3411502,6.3411502 0 0 1 -1.73999,-6.59048 c 0.26035,-0.80013 0.99559,-1.16386 0.84848,-2.08303 -0.19297,-1.20589 -1.97088,-2.04898 -2.99487,-2.28562 z"
       style="fill:#2f2e41;stroke-width:0.57984185"
       inkscape:connector-curvature="0" />
    <path
       id="path96"
       d="m 635.61465,169.64459 c 6.16256,0.26796 10.74214,5.85698 10.07533,11.9894 -0.60397,5.55593 -2.83195,12.46949 -9.84978,15.12458 -12.50545,4.73187 -11.82936,-21.96904 -9.4636,-22.98319 1.57729,-0.67598 4.05589,-4.35623 9.23863,-4.13091 z"
       style="fill:#ffb9b9;stroke-width:0.57984185"
       inkscape:connector-curvature="0" />
    <path
       id="path98"
       d="m 795.36686,178.67273 3.7179,1.80569 c 0,0 8.11198,16.56143 8.44945,18.92719 0.33747,2.36576 5.74577,11.15383 3.71782,13.51959 -2.02787,2.36593 -5.06979,8.44945 -3.04185,10.81579 2.02789,2.36593 6.7598,11.82936 6.7598,15.20925 0,3.3799 -5.06978,12.50546 -1.68994,13.51959 3.37989,1.01398 2.36592,14.1957 1.68994,15.20925 -0.67598,1.01357 -9.4636,17.5756 -9.4636,17.5756 0,0 -1.68994,-18.92721 -18.25109,-11.15384 0,0 -1.35197,-9.4636 0,-10.1397 1.35195,-0.67609 4.73185,-4.73185 2.02793,-5.40783 -2.70391,-0.67599 -6.42174,-8.7875 -5.74582,-9.80165 0.67597,-1.01397 2.36592,-2.36593 0.67597,-3.3799 -1.68995,-1.01397 -3.04184,-6.7598 -2.70385,-7.77394 0.33798,-1.01414 -3.71789,-5.74577 -3.71789,-5.74577 z"
       style="fill:#575a89;stroke-width:0.57984185"
       inkscape:connector-curvature="0" />
    <g
       id="g136"
       transform="matrix(0.79554303,0,0,0.79554303,47.150572,21.424854)">
      <rect
         id="rect100"
         height="272"
         width="248"
         y="236.5"
         x="507"
         style="fill:#f2f2f2" />
      <rect
         id="rect102"
         stroke-miterlimit="10"
         height="272"
         width="248"
         y="210.5"
         x="532"
         style="fill:none;stroke:#3f3d56;stroke-width:2;stroke-miterlimit:10" />
      <polyline
         id="polyline104"
         stroke-miterlimit="10"
         points="556 227.5 556 435.5 757 435.5"
         style="fill:none;stroke:#3f3d56;stroke-width:2;stroke-miterlimit:10" />
      <rect
         id="rect106"
         height="48.265999"
         width="45"
         y="386.23001"
         x="567"
         style="fill:#575a89;stroke-width:0.81875998" />
      <rect
         id="rect108"
         height="79.246002"
         width="45"
         y="355.25"
         x="632"
         style="fill:#3f3d56;stroke-width:0.80927998" />
      <rect
         id="rect110"
         height="149.87"
         width="45"
         y="284.63"
         x="697"
         style="fill:#ff4545;stroke-width:0.91759002" />
      <rect
         id="rect112"
         height="13.371"
         width="13.371"
         y="451.81"
         x="553"
         style="fill:#ff4545" />
      <rect
         id="rect114"
         height="13.371"
         width="13.371"
         y="451.81"
         x="572.31"
         style="fill:#3f3d56" />
      <rect
         id="rect116"
         height="13.371"
         width="13.371"
         y="451.81"
         x="591.63"
         style="fill:#575a89" />
      <g
         id="g124"
         style="fill:#3f3d56">
        <rect
           id="rect118"
           height="2.1080999"
           width="52"
           y="457.62"
           x="703" />
        <rect
           id="rect120"
           height="2.1080999"
           width="52"
           y="463.95001"
           x="703" />
        <rect
           id="rect122"
           height="2.1080999"
           width="52"
           y="470.26999"
           x="703" />
      </g>
      <path
         id="path126"
         d="m 589.56,367.97 64.663,-33.018 67.52,-68.344"
         inkscape:connector-curvature="0"
         style="fill:none;stroke:#2f2e41;stroke-width:4" />
      <g
         id="g134"
         style="fill:#2f2e41;stroke-width:0">
        <circle
           id="circle128"
           style="paint-order:normal"
           r="5"
           cy="368.32999"
           cx="589.46002" />
        <circle
           id="circle130"
           style="paint-order:normal"
           r="5"
           cy="335"
           cx="654.07001" />
        <circle
           id="circle132"
           style="paint-order:normal"
           r="5"
           cy="267.22"
           cx="721.23999" />
      </g>
    </g>
  </g>
</svg>
