<?xml version="1.0" encoding="UTF-8" standalone="no"?>
<svg
   xmlns:dc="http://purl.org/dc/elements/1.1/"
   xmlns:cc="http://creativecommons.org/ns#"
   xmlns:rdf="http://www.w3.org/1999/02/22-rdf-syntax-ns#"
   xmlns:svg="http://www.w3.org/2000/svg"
   xmlns="http://www.w3.org/2000/svg"
   xmlns:xlink="http://www.w3.org/1999/xlink"
   xmlns:sodipodi="http://sodipodi.sourceforge.net/DTD/sodipodi-0.dtd"
   xmlns:inkscape="http://www.inkscape.org/namespaces/inkscape"
   width="932.62653"
   height="608.63562"
   data-name="Layer 1"
   version="1.1"
   viewBox="0 0 932.62653 608.63562"
   id="svg157"
   sodipodi:docname="F2r.svg"
   inkscape:version="0.92.5 (2060ec1f9f, 2020-04-08)">
  <sodipodi:namedview
     pagecolor="#ffffff"
     bordercolor="#666666"
     borderopacity="1"
     objecttolerance="10"
     gridtolerance="10"
     guidetolerance="10"
     inkscape:pageopacity="0"
     inkscape:pageshadow="2"
     inkscape:window-width="1366"
     inkscape:window-height="705"
     id="namedview159"
     showgrid="false"
     inkscape:zoom="0.52009206"
     inkscape:cx="429.96964"
     inkscape:cy="347.19138"
     inkscape:window-x="-8"
     inkscape:window-y="399"
     inkscape:window-maximized="1"
     inkscape:current-layer="g1120" />
  <metadata
     id="metadata2">
    <rdf:RDF>
      <cc:Work
         rdf:about="">
        <dc:format>image/svg+xml</dc:format>
        <dc:type
           rdf:resource="http://purl.org/dc/dcmitype/StillImage" />
        <dc:title>web_devices</dc:title>
      </cc:Work>
    </rdf:RDF>
  </metadata>
  <defs
     id="defs15">
    <linearGradient
       id="deacd444-d5db-4c24-9492-02e57292be3c"
       x1="675.04999"
       x2="675.04999"
       y1="606.02002"
       y2="240.27"
       gradientUnits="userSpaceOnUse">
      <stop
         stop-color="gray"
         stop-opacity=".25"
         offset="0"
         id="stop4" />
      <stop
         stop-color="gray"
         stop-opacity=".12"
         offset=".54"
         id="stop6" />
      <stop
         stop-color="gray"
         stop-opacity=".1"
         offset="1"
         id="stop8" />
    </linearGradient>
    <linearGradient
       id="a1de9c2c-a914-4f57-a703-6b671b828453"
       x1="473.94"
       x2="473.94"
       y1="635.65002"
       y2="301.64999"
       gradientTransform="translate(-82,-130)"
       xlink:href="#deacd444-d5db-4c24-9492-02e57292be3c" />
    <linearGradient
       id="33ead0d0-8f65-4117-bca2-44ecb419ecb0"
       x1="363.44"
       x2="363.44"
       y1="662.65002"
       y2="401.64999"
       gradientTransform="translate(-82,-130)"
       xlink:href="#deacd444-d5db-4c24-9492-02e57292be3c" />
    <linearGradient
       id="9a5964b5-9011-4675-8f60-8033350848c0"
       x1="849.67999"
       x2="849.67999"
       y1="703.65997"
       y2="385.5"
       gradientTransform="translate(-82,-130)"
       xlink:href="#deacd444-d5db-4c24-9492-02e57292be3c" />
    <linearGradient
       id="linearGradient949"
       x1="675.04999"
       x2="675.04999"
       y1="606.02002"
       y2="240.27"
       gradientTransform="translate(-82,-130)"
       gradientUnits="userSpaceOnUse"
       xlink:href="#deacd444-d5db-4c24-9492-02e57292be3c" />
    <clipPath
       id="a-4-8-9-3-1">
      <rect
         y="0"
         x="0"
         width="91"
         height="100.34"
         id="rect4" />
    </clipPath>
    <clipPath
       id="a-7">
      <rect
         y="0"
         x="0"
         width="91"
         height="100.34"
         id="rect7" />
    </clipPath>
    <clipPath
       id="a">
      <rect
         y="0"
         x="0"
         width="91"
         height="100.34"
         id="rect4-7" />
    </clipPath>
    <linearGradient
       id="linearGradient3845-5-3"
       x1="507.95001"
       x2="507.95001"
       y1="790.47998"
       y2="154.92"
       gradientTransform="matrix(0.41778,0,0,0.41778,-1606.7,-511.92)"
       gradientUnits="userSpaceOnUse">
      <stop
         stop-color="gray"
         stop-opacity=".25"
         offset="0"
         id="stop4-0" />
      <stop
         stop-color="gray"
         stop-opacity=".12"
         offset=".53514"
         id="stop6-8" />
      <stop
         stop-color="gray"
         stop-opacity=".1"
         offset="1"
         id="stop8-9" />
    </linearGradient>
  </defs>
  <title
     id="title17">web_devices</title>
  <g
     transform="matrix(1.1793957,0,0,1.1793957,89.84146,-250.18112)"
     style="fill:#ffb8b8"
     id="g18" />
  <g
     transform="matrix(0,-0.77723239,-0.77723239,0,308.02944,338.52339)"
     id="g32">
    <g
       transform="matrix(0,-2.1224183,-2.1224183,0,2176.6232,-25.93398)"
       id="g289">
      <g
         transform="translate(1562.5,1350)"
         id="g287">
        <g
           id="g1120"
           transform="translate(72.755633,-47.182606)">
          <path
             sodipodi:nodetypes="zzzcccccccccccccz"
             id="path13"
             d="m -1511.577,-425.22221 c -48.225,12.92594 -93.4007,1.195 -133.5422,-7.73412 -40.1414,-8.92913 -51.704,16.35333 -56.0868,42.00074 -4.3828,25.64741 3.8741,33.23503 12.1145,49.2278 11.2397,22.18482 3.3066,49.53592 -8.886,71.19851 -5.7115,10.158 -12.3432,19.85196 -16.75,30.66722 -4.407,10.81525 -6.439,23.20837 -2.5643,34.25863 3.8237,10.93462 12.9258,19.14845 22.807,24.92798 20.0325,11.71497 43.6571,15.07436 66.6924,16.97526 50.9952,4.20845 102.2664,2.38716 153.3921,0.56231 18.9202,-0.67843 37.9276,-1.36047 56.5412,-4.89414 10.3378,-1.95908 21.009,-5.07915 28.5156,-12.58559 9.5261,-9.53805 11.8888,-25.68968 5.5041,-37.65085 -10.7078,-20.06234 -40.3142,-25.03317 -47.7961,-46.57565 -4.1214,-11.84851 0.1112,-25.05107 6.0992,-36.04016 12.8423,-23.58213 34.3683,-44.26145 35.5015,-71.21342 -1.6614,-61.34331 -73.3171,-66.05045 -121.5422,-53.12452 z"
             inkscape:connector-curvature="0"
             style="fill:#ff4545;fill-opacity:1;stroke-width:0.33023942" />
          <g
             transform="matrix(0.74603403,0,0,0.74603403,-447.15263,-40.44694)"
             id="g21"
             style="stroke-width:0.25788999">
            <path
               id="path15"
               d="m -1631.6,-431.87 v 113.91 a 3.9767,3.9767 0 0 0 3.9766,3.9767 h 163.47 a 3.9767,3.9767 0 0 0 3.9767,-3.9767 v -113.91 z"
               inkscape:connector-curvature="0"
               style="fill:#ffffff" />
            <rect
               id="rect17"
               rx="2.2307999"
               height="24.052999"
               width="40.979"
               y="-421.67001"
               x="-1618.1"
               style="opacity:0.1" />
            <rect
               id="rect19"
               rx="2.2307999"
               height="24.052999"
               width="40.979"
               y="-421.67001"
               x="-1566.4"
               style="opacity:0.1" />
          </g>
          <g
             transform="matrix(0.74603403,0,0,0.74603403,-447.15263,-40.44694)"
             id="g37"
             style="fill:#444053;stroke-width:0.25788999">
            <rect
               id="rect23"
               rx="2.2307999"
               height="23.375"
               width="39.826"
               y="397.95999"
               x="1474.4"
               transform="scale(-1)"
               style="opacity:0.1" />
            <rect
               id="rect25"
               rx="2.2307999"
               height="23.375"
               width="39.826"
               y="-387.57001"
               x="-1617.5"
               style="opacity:0.1" />
            <rect
               id="rect27"
               rx="2.2307999"
               height="23.375"
               width="39.826"
               y="364.19"
               x="1474.4"
               transform="scale(-1)"
               style="opacity:0.1" />
            <rect
               id="rect29"
               rx="2.2307999"
               height="23.375"
               width="39.826"
               y="364.19"
               x="1526"
               transform="scale(-1)"
               style="opacity:0.1" />
            <rect
               id="rect31"
               rx="2.2307999"
               height="23.375"
               width="39.826"
               y="-353.79999"
               x="-1617.5"
               style="opacity:0.1" />
            <rect
               id="rect33"
               rx="2.2307999"
               height="23.375"
               width="39.826"
               y="330.42999"
               x="1474.4"
               transform="scale(-1)"
               style="opacity:0.1" />
            <rect
               id="rect35"
               rx="2.2307999"
               height="23.375"
               width="39.826"
               y="330.42999"
               x="1526"
               transform="scale(-1)"
               style="opacity:0.1" />
          </g>
          <g
             transform="matrix(0.74603403,0,0,0.74603403,-447.15263,-40.44694)"
             id="g45"
             style="fill:#3f3d56;fill-opacity:1;stroke-width:0.25788999">
            <path
               id="path39"
               d="m -1631.6,-451.99 v 20.696 h 171.42 v -20.696 a 3.9767,3.9767 0 0 0 -3.9767,-3.9793 h -163.47 a 3.9767,3.9767 0 0 0 -3.9766,3.9793 z m 42.423,6.1223 a 3.1746,3.1746 0 1 1 3.1745,-3.1746 3.1746,3.1746 0 0 1 -3.1745,3.1746 z m 86.576,0 a 3.1746,3.1746 0 1 1 3.1746,-3.1746 3.1746,3.1746 0 0 1 -3.1797,3.1746 z"
               inkscape:connector-curvature="0"
               style="fill:#3f3d56;fill-opacity:1" />
            <path
               id="path41"
               d="m -1589.2,-452.79 a 3.7523,3.7523 0 1 0 3.7497,3.7523 3.7497,3.7497 0 0 0 -3.7497,-3.7523 z m 0,6.927 a 3.1746,3.1746 0 1 1 3.1745,-3.1746 3.1746,3.1746 0 0 1 -3.1745,3.1746 z"
               inkscape:connector-curvature="0"
               style="opacity:0.1;fill:#3f3d56;fill-opacity:1" />
            <path
               id="path43"
               d="m -1502.6,-452.79 a 3.7523,3.7523 0 1 0 3.7522,3.7523 3.7523,3.7523 0 0 0 -3.7522,-3.7523 z m 0,6.927 a 3.1746,3.1746 0 1 1 3.1746,-3.1746 3.1746,3.1746 0 0 1 -3.1746,3.1746 z"
               inkscape:connector-curvature="0"
               style="opacity:0.1;fill:#3f3d56;fill-opacity:1" />
          </g>
          <g
             id="g53"
             transform="matrix(0.19239472,0,0,0.19239472,-1363.357,-587.46893)">
            <rect
               id="rect47"
               height="73.68"
               width="37.810001"
               y="-474.45001"
               x="-2141.6001"
               transform="rotate(-66.42)"
               style="fill:#8ed16f" />
            <ellipse
               id="ellipse49"
               ry="15.51"
               rx="7.7600002"
               cy="-437.62"
               cx="-2123.2"
               transform="rotate(-66.42)"
               style="fill:#8ed16f" />
            <ellipse
               id="ellipse51"
               ry="15.51"
               rx="7.7600002"
               cy="-437.62"
               cx="-2123.2"
               transform="rotate(-66.42)"
               style="opacity:0.1" />
          </g>
          <g
             id="g61"
             transform="matrix(0,-0.19239472,0.19239472,0,-1912.2143,-497.35548)">
            <rect
               id="rect55"
               height="73.68"
               width="37.810001"
               y="-433.07001"
               x="-1988.8"
               transform="rotate(-66.42)"
               style="fill:#8ed16f" />
            <ellipse
               id="ellipse57"
               ry="15.51"
               rx="7.7600002"
               cy="-396.23999"
               cx="-1970.4"
               transform="rotate(-66.42)"
               style="fill:#8ed16f" />
            <ellipse
               id="ellipse59"
               ry="15.51"
               rx="7.7600002"
               cy="-396.23999"
               cx="-1970.4"
               transform="rotate(-66.42)"
               style="opacity:0.1" />
          </g>
          <g
             id="g69"
             transform="matrix(0.19239472,0,0,0.19239472,-1373.8761,-592.73593)">
            <rect
               id="rect63"
               height="73.68"
               width="37.810001"
               y="1504.4"
               x="-1410.2"
               transform="rotate(-11.09)"
               style="fill:#8ed16f" />
            <ellipse
               id="ellipse65"
               ry="15.51"
               rx="7.7600002"
               cy="1541.2"
               cx="-1391.8"
               transform="rotate(-11.09)"
               style="fill:#8ed16f" />
            <ellipse
               id="ellipse67"
               ry="15.51"
               rx="7.7600002"
               cy="1541.2"
               cx="-1391.8"
               transform="rotate(-11.09)"
               style="opacity:0.1" />
          </g>
          <g
             id="g77"
             transform="matrix(0.04979553,-0.18583708,0.18583708,0.04979553,-1900.5015,-532.53845)">
            <rect
               id="rect71"
               height="73.68"
               width="37.810001"
               y="-328.23999"
               x="-2262.8999"
               transform="rotate(-66.42)"
               style="fill:#8ed16f" />
            <ellipse
               id="ellipse73"
               ry="15.51"
               rx="7.7600002"
               cy="-291.39001"
               cx="-2244.3999"
               transform="rotate(-66.42)"
               style="fill:#8ed16f" />
            <ellipse
               id="ellipse75"
               ry="15.51"
               rx="7.7600002"
               cy="-291.39001"
               cx="-2244.3999"
               transform="rotate(-66.42)"
               style="opacity:0.1" />
          </g>
          <g
             id="g85"
             transform="matrix(0.04979553,-0.18583708,0.18583708,0.04979553,-1913.3333,-602.24041)">
            <rect
               id="rect79"
               height="73.68"
               width="37.810001"
               y="-494.26001"
               x="-2299.6001"
               transform="rotate(-66.42)"
               style="fill:#8ed16f" />
            <ellipse
               id="ellipse81"
               ry="15.51"
               rx="7.7600002"
               cy="-457.42001"
               cx="-2281.2"
               transform="rotate(-66.42)"
               style="fill:#8ed16f" />
            <ellipse
               id="ellipse83"
               ry="15.51"
               rx="7.7600002"
               cy="-457.42001"
               cx="-2281.2"
               transform="rotate(-66.42)"
               style="opacity:0.1" />
          </g>
          <g
             id="g93"
             transform="matrix(-0.13604677,-0.13604677,0.13604677,-0.13604677,-2072.0894,-167.83971)">
            <rect
               id="rect87"
               height="73.68"
               width="37.810001"
               y="-2305.8999"
               x="-1176.2"
               transform="rotate(-111.42)"
               style="fill:#8ed16f" />
            <ellipse
               id="ellipse89"
               ry="15.51"
               rx="7.7600002"
               cy="-2269.1001"
               cx="-1157.8"
               transform="rotate(-111.42)"
               style="fill:#8ed16f" />
            <ellipse
               id="ellipse91"
               ry="15.51"
               rx="7.7600002"
               cy="-2269.1001"
               cx="-1157.8"
               transform="rotate(-111.42)"
               style="opacity:0.1" />
          </g>
          <g
             id="g101"
             transform="matrix(-0.04979553,-0.18583708,0.18583708,-0.04979553,-2033.7432,-432.07751)">
            <rect
               id="rect95"
               height="73.68"
               width="37.810001"
               y="-2264.6001"
               x="-1023.4"
               transform="rotate(-111.42)"
               style="fill:#8ed16f" />
            <ellipse
               id="ellipse97"
               ry="15.51"
               rx="7.7600002"
               cy="-2227.7"
               cx="-1005"
               transform="rotate(-111.42)"
               style="fill:#8ed16f" />
            <ellipse
               id="ellipse99"
               ry="15.51"
               rx="7.7600002"
               cy="-2227.7"
               cx="-1005"
               transform="rotate(-111.42)"
               style="opacity:0.1" />
          </g>
          <g
             id="g109"
             transform="matrix(0.09620109,-0.16661924,0.16661924,0.09620109,-1721.1549,-659.04344)">
            <rect
               id="rect103"
               height="73.68"
               width="37.810001"
               y="-331.42999"
               x="-2367.3999"
               transform="rotate(-56.09)"
               style="fill:#8ed16f" />
            <ellipse
               id="ellipse105"
               ry="15.51"
               rx="7.7600002"
               cy="-294.60001"
               cx="-2348.8999"
               transform="rotate(-56.09)"
               style="fill:#8ed16f" />
            <ellipse
               id="ellipse107"
               ry="15.51"
               rx="7.7600002"
               cy="-294.60001"
               cx="-2348.8999"
               transform="rotate(-56.09)"
               style="opacity:0.1" />
          </g>
          <g
             id="g117"
             transform="matrix(0.09620109,-0.16661924,0.16661924,0.09620109,-1809.0378,-668.81649)">
            <rect
               id="rect111"
               height="73.68"
               width="37.810001"
               y="-2159.7"
               x="-1297.5"
               transform="rotate(-111.42)"
               style="fill:#8ed16f" />
            <ellipse
               id="ellipse113"
               ry="15.51"
               rx="7.7600002"
               cy="-2122.8999"
               cx="-1279"
               transform="rotate(-111.42)"
               style="fill:#8ed16f" />
            <ellipse
               id="ellipse115"
               ry="15.51"
               rx="7.7600002"
               cy="-2122.8999"
               cx="-1279"
               transform="rotate(-111.42)"
               style="opacity:0.1" />
          </g>
          <g
             id="g125"
             transform="matrix(0.19239472,0,0,0.19239472,-1285.4711,-575.54731)">
            <rect
               id="rect119"
               height="73.68"
               width="37.810001"
               y="-2325.7"
               x="-1334.2"
               transform="rotate(-111.42)"
               style="fill:#8ed16f" />
            <ellipse
               id="ellipse121"
               ry="15.51"
               rx="7.7600002"
               cy="-2288.8999"
               cx="-1315.8"
               transform="rotate(-111.42)"
               style="fill:#8ed16f" />
            <ellipse
               id="ellipse123"
               ry="15.51"
               rx="7.7600002"
               cy="-2288.8999"
               cx="-1315.8"
               transform="rotate(-111.42)"
               style="opacity:0.1" />
          </g>
          <g
             transform="matrix(0.74603403,0,0,0.74603403,-447.15263,-40.44694)"
             id="g185"
             style="stroke-width:0.41778001">
            <path
               id="path127"
               d="m -1353.1,-359.63 c -0.5895,-1.141 -3.7053,-8.2313 -3.7053,-8.2313 l -5.221,-13.529 c 0,0 -3.7053,-5.7048 -3.7053,-6.7643 0,-1.0595 -6.7368,-5.2974 -6.7368,-5.2974 0,0 -5.4738,-1.63 -5.8948,-1.793 -0.4211,-0.16301 -6.9052,-2.308 -6.9052,-2.308 0,0 -2.5535,-3.3577 -2.9172,-2.4808 h -10e-5 c -0.014,-0.0221 -0.027,-0.0414 -0.04,-0.0643 -0.5217,-0.97477 -0.8521,-2.0403 -0.9733,-3.1393 -0.015,-0.0975 -0.026,-0.20069 -0.039,-0.30247 3.4144,-2.3143 5.4668,-6.1643 5.485,-10.289 0,-0.53489 -0.037,-1.0691 -0.1081,-1.5993 0.045,-0.0289 0.094,-0.0544 0.1448,-0.0763 0.1049,-0.0455 0.079,-0.0825 0,-0.12116 0.027,-0.0138 0.053,-0.0285 0.081,-0.0397 0.1394,-0.0606 0.045,-0.1064 -0.088,-0.16093 l 0.011,-0.004 c 0.19,-0.0825 -0.05,-0.13726 -0.2432,-0.22453 -0.011,-0.0564 -0.02,-0.113 -0.032,-0.16912 0.042,-0.10737 0.068,-0.22054 0.077,-0.33577 0.017,0.008 0.033,0.0175 0.051,0.0255 0.046,-0.2101 0.044,-0.42802 -0.011,-0.6375 -0.012,0.0426 -0.027,0.0845 -0.043,0.12521 0.025,-0.38687 -0.1633,-0.75647 -0.4903,-0.96478 -0.01,-0.008 -0.02,-0.0175 -0.03,-0.026 l 0.3571,-3.6562 c 5.2661,-0.24888 6.1899,-9.208 4.989,-9.7058 -1.2009,-0.49771 0,-1.5761 0,-3.733 0,-2.1568 -3.9726,-4.5625 -3.9726,-4.5625 0,0 -1.6631,0.8296 -4.2499,-3.3182 -2.5866,-4.1478 -12.102,-4.8114 -12.749,-3.733 -0.6466,1.0784 -4.8963,2.4887 -10.44,4.0648 -5.5433,1.5761 -4.527,8.1296 -3.6031,9.5399 0.761,1.1659 1.2068,2.5093 1.2933,3.8989 0,0.82955 1.7554,4.3136 1.7554,4.3136 -0.5536,1.2073 0.8554,7.8211 1.2727,9.7009 -0.011,0.0578 -0.015,0.11534 -0.019,0.17338 -0.01,0.006 -0.01,0.0108 -0.012,0.0163 -0.02,0.0305 -0.037,0.0618 -0.054,0.0945 -0.089,0.19485 -0.1192,0.41184 -0.086,0.62355 -0.031,0.23136 0,0.4667 0.093,0.68132 0.064,3.5828 1.671,6.9636 4.4085,9.2757 0.011,0.11313 0.013,0.22694 0.02,0.34345 0.077,1.5354 0.1213,3.3512 0.04,5.0888 -0.01,0.0889 -0.01,0.17588 -0.015,0.26438 -0.6196,0.12533 -1.1427,0.53785 -1.4092,1.1113 -0.5221,1.0041 -3.5536,2.5525 -3.5536,2.5525 0,0 -5.3052,0.2445 -5.8105,1.2225 -0.5053,0.97804 -8.1685,4.2379 -8.1685,4.2379 0,0 -4.0422,2.3634 -3.4529,5.0529 0.3082,1.4053 -0.5566,3.5886 -1.4524,5.3539 -1.0209,1.485 -0.2126,0.23317 -1.5203,2.6576 -0.09,0.14032 -0.7378,3.1287 -0.7378,3.1287 l -0.1565,8.9712 c 0,0 -0.2095,3.0986 -1.0516,3.832 -0.842,0.7335 2.5751,7.4608 2.5751,7.4608 0,0 0.1636,4.3258 -0.4766,6.1066 -0.053,1.6926 2.3543,4.2966 2.3543,4.2966 l 2.8556,3.7132 2.8964,4.146 c 0,0 2.5565,0.11047 3.6629,0.34739 -0.035,0.21035 -0.07,0.41992 -0.1071,0.62877 -0.4952,2.8035 -1.1453,5.3821 -1.9368,6.0798 -1.937,1.7114 -1.8527,9.3722 -1.8527,9.3722 l 0.085,10.839 c 0,0 0.6735,13.366 0.3368,13.855 -0.2127,0.30865 0.214,0.812 1.3398,1.2643 -0.032,0.20121 -0.063,0.40529 -0.093,0.61343 -0.3165,2.2168 -0.4579,4.7465 0.2696,5.8646 0.316,0.60471 0.4889,1.2739 0.5052,1.956 0,1.0595 1.6,3.2599 1.6,3.2599 0,0 -1.2631,9.0463 0.8422,12.143 2.1053,3.0968 3.8737,8.7203 2.8631,10.024 0,0 -1.7684,3.8304 -0.9262,5.5418 0.8421,1.7115 0,2.6894 -1.0948,3.097 -1.0948,0.40754 -1.0003,3.7489 -1.0003,3.7489 l 2.0108,15.892 c 0,0 1.0947,3.2599 0.1684,4.4009 -0.9263,1.141 -0.9263,6.8458 0.5053,8.8018 1.4316,1.956 -2.0211,5.5418 -2.0211,5.5418 0,0 -2.1053,3.0155 1.2633,3.9935 0,0 0.6736,0.16295 -0.5895,1.467 -1.2633,1.3039 -1.516,2.9338 -0.6738,3.5044 0.1747,0.10468 0.3573,0.19547 0.5462,0.27135 -0.031,0.19318 -0.065,0.39326 -0.1049,0.60557 -0.3235,1.7016 -0.933,3.9184 -2.0412,4.991 -2.148,2.2006 -4.0015,4.6705 -5.5141,7.3478 -1.1554,2.1907 -1.6607,4.2411 -0.3807,5.2028 3.0315,2.2819 6.9052,3.0154 9.179,2.1189 2.2738,-0.89648 5.4737,-3.6674 5.4737,-3.6674 l 0.7579,-3.1784 c 0,0 -0.5052,-1.956 2.0209,-2.6894 2.5265,-0.73349 4.8844,-3.3414 4.8844,-3.3414 v -4.2248 c 0.6117,-0.34955 1.2022,-0.73492 1.7685,-1.154 0,0 1.1789,-4.1564 0,-5.5419 -1.179,-1.3854 -1.6,-1.8744 -0.085,-2.7709 1.5158,-0.89647 1.7212,-2.8524 0.6097,-4.5639 -1.115,-1.7115 -2.8833,-4.2379 -1.3676,-7.8238 1.5158,-3.5859 2.0716,-14.588 2.0716,-14.588 0,0 -0.7072,-7.4978 0,-9.2093 0.7073,-1.7114 -0.8084,-5.1343 -0.8084,-5.1343 0,0 0.5053,-4.238 1.4316,-6.1939 0.9262,-1.956 1.6841,-12.306 1.6841,-12.306 0,0 1.6843,-4.4009 1.6843,-7.2533 0,-2.8524 -2.6106,-9.6983 1.2631,-11.491 0,0 1.6842,1.467 1.0106,7.3348 0,0 1.9368,6.8458 1.9368,8.9648 0,2.1189 1.4315,9.7798 1.4315,9.7798 0,0 0.1685,2.4449 0.758,3.3414 0.5894,0.89648 0,3.3414 0,3.3414 0,0 2.1895,2.0374 1.5999,3.3414 -0.5894,1.304 0.1015,4.2444 0.1015,4.2444 l -0.5222,18.249 c 0,0 -1.5157,7.8238 2.0211,12.551 0,0 -1.2633,6.9273 -2.0211,7.4163 -0.7578,0.48896 2.779,4.7268 2.779,4.7268 0,0 -0.9804,2.7454 1.0104,2.88 v 4.5363 c 0.6915,1.2213 1.6395,2.278 2.7792,3.0969 1.8526,1.304 1.0946,5.7864 1.0946,5.7864 0,0 2.358,5.7049 8.5895,4.4824 6.2315,-1.2225 7.0737,-1.793 6.7368,-3.8304 -0.1213,-0.74325 -0.3907,-2.0701 -0.7779,-3.5761 -0.6705,-2.6177 -1.6979,-5.7766 -2.9273,-7.3349 -1.9368,-2.4547 -3.5369,-7.5891 -3.5369,-7.5891 0,0 -0.7578,-1.7115 0,-2.2819 0.758,-0.57044 0.421,-1.6299 0.421,-1.6299 0,0 0.7378,-2.1189 0.074,-3.4229 -0.6637,-1.304 1.2731,-3.9935 1.2731,-3.9935 l -0.5895,-12.551 0.5895,-18.256 c 0,0 -2.6105,-3.0154 -1.5158,-4.8084 1.0947,-1.793 -1.2633,-4.3194 -1.2633,-4.3194 0,0 -0.2524,-0.0815 0.4213,-2.119 0.4031,-1.2007 0.3431,-2.5087 -0.1685,-3.6674 0,0 -1.4316,-5.0528 1.0948,-8.8833 0,0 1.0947,-5.0529 1.4315,-7.6608 0.2325,-1.8125 1.6876,-8.5834 2.5534,-12.544 0.05,-0.22383 0.095,-0.43816 0.1406,-0.64292 1.247,0.0681 2.1903,0.14743 2.1903,0.14743 0,0 -1.9368,-13.447 0,-16.218 1.9368,-2.7709 -1.5158,-23.96 -1.5158,-23.96 0,0 -0.8253,-3.7032 -1.3338,-7.4815 -0.029,-0.21523 -0.055,-0.43031 -0.084,-0.64543 1.5637,-0.12503 3.1332,-0.15988 4.7006,-0.10435 4.0421,0.24448 8.0001,-1.304 8.0842,-2.8525 0.085,-1.5485 2.2738,-7.6608 2.6107,-9.0462 0.3368,-1.3855 0.5894,-6.1124 0,-7.2534 z"
               inkscape:connector-curvature="0"
               style="fill:url(#linearGradient3845-5-3)" />
            <path
               id="path129"
               d="m -1402.3,-202.41 v 7.5463 c 0,0 -2.272,2.5966 -4.7063,3.3269 -2.4343,0.73029 -1.9474,2.6777 -1.9474,2.6777 l -0.7303,3.1646 c 0,0 -3.0833,2.7589 -5.2743,3.6514 -2.1907,0.89263 -5.9235,0.16233 -8.8446,-2.1096 -1.2334,-0.95752 -0.7464,-2.9991 0.3668,-5.1803 a 35.331,35.331 0 0 1 5.3132,-7.3158 c 1.0679,-1.0679 1.6553,-3.2749 1.9669,-4.9692 0.2305,-1.2691 0.3052,-2.2525 0.3052,-2.2525 z"
               inkscape:connector-curvature="0"
               style="fill:#ffffff" />
            <path
               id="path131"
               d="m -1402.3,-196.78 v 1.915 c 0,0 -2.272,2.5966 -4.7063,3.3269 -2.4343,0.73029 -1.9474,2.6777 -1.9474,2.6777 l -0.7303,3.1646 c 0,0 -3.0833,2.7589 -5.2743,3.6514 -2.1907,0.89263 -5.9235,0.16233 -8.8446,-2.1096 -1.2334,-0.95752 -0.7464,-2.9991 0.3668,-5.1803 -0.051,2.2915 0.6264,4.8654 3.9337,4.7744 a 16.755,16.755 0 0 0 9.8184,-3.5703 c 0,0 -0.082,-5.3554 3.6514,-6.5726 a 11.369,11.369 0 0 0 3.7326,-2.0773 z"
               inkscape:connector-curvature="0"
               style="opacity:0.1" />
            <path
               id="path133"
               d="m -1372.6,-183.1 c -6.0045,1.2171 -8.2765,-4.4629 -8.2765,-4.4629 0,0 0.7302,-4.4628 -1.0547,-5.7611 a 9.5757,9.5757 0 0 1 -2.678,-3.0834 v -7.4651 l 7.303,-5.1932 3.9534,3.4989 0.2661,0.23369 c 0,0 1.5417,5.112 3.408,7.556 1.1846,1.5514 2.1744,4.6966 2.8203,7.3028 0.3735,1.4996 0.633,2.8205 0.7498,3.5606 0.3248,2.0285 -0.4867,2.5965 -6.4914,3.8137 z"
               inkscape:connector-curvature="0"
               style="fill:#ffffff" />
            <path
               id="path135"
               d="m -1372.6,-183.1 c -6.0045,1.2171 -8.2765,-4.4629 -8.2765,-4.4629 0,0 0.7302,-4.4628 -1.0547,-5.7611 a 9.5757,9.5757 0 0 1 -2.678,-3.0834 v -2.892 c 1.159,1.2236 3.3432,3.593 3.8139,4.5959 0.649,1.3794 0.7302,6.4103 3.7324,7.3029 3.0026,0.89248 8.8447,1.7039 9.3315,-0.56807 a 12.659,12.659 0 0 1 0.873,-2.5057 c 0.3735,1.4996 0.633,2.8205 0.7498,3.5606 0.3248,2.0285 -0.4867,2.5965 -6.4914,3.8137 z"
               inkscape:connector-curvature="0"
               style="opacity:0.1" />
            <path
               id="path137"
               d="m -1415.8,-203.87 13.551,1.4606 v 3.989 c -1.5285,0.90555 -3.7196,1.8663 -4.9496,0.87961 -1.8177,-1.4541 -7.2219,-3.3009 -8.9064,-4.0766 0.2305,-1.2691 0.3052,-2.2525 0.3052,-2.2525 z"
               inkscape:connector-curvature="0"
               style="opacity:0.1" />
            <path
               id="path139"
               d="m -1373.1,-204.68 c -1.8663,-0.64917 -5.1932,2.1909 -9.5749,3.976 a 4.5611,4.5611 0 0 1 -1.9475,0.4349 v -3.5994 l 7.3029,-5.1932 3.9534,3.4989 a 4.9355,4.9355 0 0 0 0.2661,0.88286 z"
               inkscape:connector-curvature="0"
               style="opacity:0.1" />
            <path
               id="path141"
               d="m -1368.3,-294.02 c 0,0 -0.2564,1.1944 -0.6232,2.9276 -0.834,3.9435 -2.2363,10.685 -2.4602,12.49 -0.3247,2.5966 -1.3794,7.6275 -1.3794,7.6275 -2.4343,3.8137 -1.055,8.8445 -1.055,8.8445 a 5.2088,5.2088 0 0 1 0.1624,3.6514 c -0.6492,2.0286 -0.4056,2.1098 -0.4056,2.1098 0,0 2.2719,2.5154 1.2171,4.3006 -1.0549,1.7851 1.4605,4.7875 1.4605,4.7875 l -0.5681,18.176 0.5681,12.496 c 0,0 -1.8662,2.6777 -1.227,3.976 0.6396,1.2983 -0.07,3.408 -0.07,3.408 0,0 0.3244,1.0548 -0.4057,1.6228 -0.7303,0.56797 0,2.272 0,2.272 -1.8663,-0.6491 -5.1931,2.1909 -9.5748,3.976 -4.3818,1.7851 -2.9212,-2.4342 -2.9212,-2.4342 0,0 -3.408,-4.2194 -2.6776,-4.7063 0.7301,-0.48683 1.9471,-7.384 1.9471,-7.384 -3.4078,-4.7062 -1.9471,-12.496 -1.9471,-12.496 l 0.503,-18.17 c 0,0 -0.6654,-2.9276 -0.097,-4.2259 0.5681,-1.2983 -1.5416,-3.3269 -1.5416,-3.3269 0,0 0.5679,-2.4343 0,-3.3269 -0.568,-0.89251 -0.7304,-3.3269 -0.7304,-3.3269 0,0 -1.3793,-7.6274 -1.3793,-9.7371 0,-2.1097 -1.8663,-8.9257 -1.8663,-8.9257 0.6493,-5.8423 -0.9738,-7.3028 -0.9738,-7.3028 -3.7325,1.7851 -1.217,8.6011 -1.217,11.441 0,2.84 -1.6229,7.2217 -1.6229,7.2217 0,0 -0.7303,10.305 -1.623,12.253 -0.8923,1.9475 -1.3793,6.1669 -1.3793,6.1669 0,0 1.4606,3.408 0.7789,5.112 -0.6817,1.704 0,9.1691 0,9.1691 0,0 -0.5355,10.954 -1.9961,14.525 -1.4606,3.5703 0.2435,6.0857 1.3178,7.7897 1.0711,1.704 0.8732,3.6514 -0.5875,4.544 -1.4606,0.89256 -1.0547,1.3794 0.081,2.7588 1.1359,1.3794 0,5.5177 0,5.5177 0,0 -4.6253,3.6515 -6.6538,2.0286 -2.0285,-1.6229 -8.52,-3.7326 -9.3316,-4.3006 -0.8113,-0.56801 -0.5679,-2.1908 0.6493,-3.4891 1.2171,-1.2983 0.568,-1.4606 0.568,-1.4606 -3.2458,-0.97369 -1.2173,-3.976 -1.2173,-3.976 0,0 3.3269,-3.5703 1.9475,-5.5177 -1.3795,-1.9474 -1.3795,-7.6274 -0.4868,-8.7634 0.8925,-1.136 -0.1623,-4.3817 -0.1623,-4.3817 l -1.9377,-15.823 c 0,0 -0.091,-3.3269 0.964,-3.7325 1.0549,-0.40572 1.8663,-1.3795 1.0549,-3.0835 -0.8116,-1.7039 0.8925,-5.5176 0.8925,-5.5176 0.9738,-1.2983 -0.7303,-6.8972 -2.7589,-9.9806 -2.0285,-3.0835 -0.8114,-12.09 -0.8114,-12.09 0,0 -1.5418,-2.1909 -1.5418,-3.2457 a 4.5467,4.5467 0 0 0 -0.4868,-1.9475 c -0.701,-1.1133 -0.5646,-3.6319 -0.2596,-5.839 0.2954,-2.1357 0.7464,-3.9793 0.7464,-3.9793 z"
               inkscape:connector-curvature="0"
               style="fill:#ffffff" />
            <path
               id="path143"
               d="m -1384.2,-385.95 -15.985,3.7326 c 0,0 -7.8711,-6.6537 -5.9235,-10.224 0.6686,-1.2269 0.9639,-3.3204 1.0647,-5.5339 0.077,-1.73 0.037,-3.5378 -0.038,-5.0666 -0.1136,-2.2103 -0.2953,-3.8429 -0.2953,-3.8429 0,0 16.391,-9.2503 15.823,0 a 23.627,23.627 0 0 0 0.107,4.6219 8.8362,8.8362 0 0 0 0.9379,3.1256 c 0.8763,1.5612 1.9572,1.5839 1.9572,1.5839 z"
               inkscape:connector-curvature="0"
               style="fill:#fbbeac" />
            <path
               id="path145"
               d="m -1389.4,-402.27 a 12.572,12.572 0 0 1 -15.635,-0.779 c -0.1136,-2.2103 -0.2954,-3.8429 -0.2954,-3.8429 0,0 16.391,-9.2503 15.823,0 a 23.627,23.627 0 0 0 0.1071,4.6219 z"
               inkscape:connector-curvature="0"
               style="opacity:0.1" />
            <circle
               id="circle147"
               r="12.577"
               cy="-412.81"
               cx="-1396.8"
               style="fill:#fbbeac" />
            <path
               id="path149"
               d="m -1384.2,-385.95 -15.985,3.7326 c 0,0 -7.8711,-6.6537 -5.9235,-10.224 0.6686,-1.2269 0.9639,-3.3204 1.0647,-5.5339 a 8.1549,8.1549 0 0 0 2.9113,4.8848 c 3.6514,2.4343 3.0834,5.4366 3.0834,5.4366 l 6.5726,-0.24341 c -0.4058,-2.6777 2.0286,-4.1383 2.8398,-4.4629 0.8116,-0.32458 0.406,-1.7852 0.406,-1.7852 l 0.7205,-4.9919 c 0.8762,1.5612 1.957,1.5839 1.957,1.5839 z"
               inkscape:connector-curvature="0"
               style="opacity:0.1" />
            <path
               id="path151"
               d="m -1368.3,-294.02 c 0,0 -0.2564,1.1944 -0.6232,2.9276 -1.7654,-0.0941 -4.0994,-0.16226 -5.1378,0.0746 -1.7852,0.40572 -8.9258,0.56797 -8.9258,0.56797 l -17.689,0.62644 v -0.54529 a 52.156,52.156 0 0 0 -6.0856,0.4057 c -3.0024,0.40571 -7.7087,-0.16226 -10.711,-0.6491 a 11.533,11.533 0 0 1 -2.694,-0.72708 c 0.2955,-2.1357 0.7467,-3.9792 0.7467,-3.9792 z"
               inkscape:connector-curvature="0"
               style="opacity:0.1" />
            <path
               id="path153"
               d="m -1369.7,-345.55 c -0.2565,1.5158 -0.068,4.0279 0.2564,6.5077 0.4902,3.7618 1.2851,7.4489 1.2851,7.4489 0,0 3.3269,21.097 1.4606,23.856 -1.866,2.7589 0,16.147 0,16.147 0,0 -5.5987,-0.48683 -7.3837,-0.0811 -1.7852,0.40569 -8.9258,0.56797 -8.9258,0.56797 l -17.689,0.62643 v -0.54526 c -2.0349,0.0162 -4.0668,0.15187 -6.0857,0.40572 -3.0024,0.4057 -7.7087,-0.16232 -10.711,-0.64917 -3.0022,-0.48684 -4.2193,-1.4606 -3.8948,-1.9474 0.3247,-0.48684 -0.3245,-13.794 -0.3245,-13.794 l -0.082,-10.792 c 0,0 -0.081,-7.6274 1.7851,-9.3314 0.7627,-0.69456 1.3891,-3.2619 1.8663,-6.0532 0.6849,-4.041 1.0548,-8.5524 1.0548,-8.5524 l -13.533,-31.586 0.6027,-1.7146 c 0,0 3.9234,-5.8917 3.3554,-8.5694 -0.5681,-2.6777 3.3269,-5.0308 3.3269,-5.0308 0,0 7.3841,-3.2457 7.8709,-4.2195 0.4869,-0.97368 5.5989,-1.2171 5.5989,-1.2171 0,0 2.921,-1.5417 3.4243,-2.5414 0.2483,-0.56652 0.7547,-0.97859 1.3599,-1.1068 0.3438,1.9485 1.3828,3.706 2.9244,4.9464 3.6513,2.4343 3.0833,5.4366 3.0833,5.4366 l 6.5726,-0.24341 c -0.4058,-2.6777 2.0285,-4.1383 2.8399,-4.4628 0.8115,-0.3246 0.4059,-1.7852 0.4059,-1.7852 l 0.7594,-5.2548 c 0.3506,-0.8731 2.8109,2.47 2.8109,2.47 0,0 6.2479,2.1357 6.6536,2.298 0.4058,0.16226 5.6801,1.7852 5.6801,1.7852 0,0 6.4913,4.2194 6.4913,5.2743 0,1.0548 3.5703,6.7348 3.5703,6.7348 0,0 -0.041,0.22725 -0.1201,0.64264 -0.8245,4.4726 -5.6962,30.841 -6.2901,34.33 z"
               inkscape:connector-curvature="0"
               style="fill:#ffffff" />
            <path
               id="path155"
               d="m -1395.6,-358.69 c 0,0 -14.038,-3.7326 -15.417,-4.6252 -1.3796,-0.89256 -9.4937,4.3006 0.4057,11.36 0,0 12.105,2.5154 15.343,0 3.2384,-2.5154 -0.3319,-6.7348 -0.3319,-6.7348 z"
               inkscape:connector-curvature="0"
               style="fill:#fbbeac" />
            <path
               id="path157"
               d="m -1365.3,-380.92 1.704,0.0811 5.0309,13.47 c 0,0 3.0024,7.0594 3.5703,8.1954 0.5679,1.136 0.3246,5.8423 0,7.2217 -0.3246,1.3794 -2.4343,7.4651 -2.5154,9.0068 -0.082,1.5417 -3.8949,3.0834 -7.7898,2.84 -3.8949,-0.24343 -12.983,0.9737 -12.983,0.9737 0,0 -9.7056,-1.0144 -15.66,2.0286 0,0 -3.8138,-7.8709 -3.4081,-22.558 0,0 6.7348,-0.40572 8.4389,0.24343 1.7038,0.64912 9.9805,2.5154 11.035,1.5417 1.0548,-0.97374 5.8423,1.7852 5.8423,1.7852 a 4.1124,4.1124 0 0 0 0,-3.408 c -0.8114,-1.9475 -2.1909,-8.0332 -0.4058,-9.9806 1.7851,-1.9474 7.1406,-11.441 7.1406,-11.441 z"
               inkscape:connector-curvature="0"
               style="opacity:0.1" />
            <path
               id="path159"
               d="m -1369.4,-339.04 c -4.028,0.27264 -8.533,0.87633 -8.533,0.87633 0,0 -9.7046,-1.0159 -15.66,2.0286 0,0 -3.8137,-7.8708 -3.408,-22.558 0,0 6.7349,-0.40572 8.4388,0.2434 1.704,0.64915 9.9805,2.5154 11.035,1.5417 1.055,-0.97369 5.8422,1.7851 5.8422,1.7851 a 4.1123,4.1123 0 0 0 0,-3.408 c -0.8113,-1.9474 -2.1907,-8.0331 -0.4056,-9.9805 1.7852,-1.9474 7.1405,-11.441 7.1405,-11.441 l 1.584,0.0745 c -0.8246,4.4726 -5.6963,30.841 -6.2902,34.33 -0.2565,1.5158 -0.068,4.0279 0.2564,6.5076 z"
               inkscape:connector-curvature="0"
               style="opacity:0.1" />
            <path
               id="path161"
               d="m -1364.9,-380.6 1.704,0.0811 5.0308,13.47 c 0,0 3.0023,7.0594 3.5705,8.1954 0.5679,1.136 0.3244,5.8423 0,7.2217 -0.3246,1.3794 -2.4343,7.4651 -2.5157,9.0068 -0.081,1.5417 -3.8948,3.0834 -7.7896,2.84 -3.8948,-0.24344 -12.983,0.97368 -12.983,0.97368 0,0 -9.7057,-1.0144 -15.66,2.0286 0,0 -3.8137,-7.8708 -3.408,-22.558 0,0 6.7349,-0.40571 8.4388,0.24344 1.704,0.64912 9.9805,2.5154 11.035,1.5417 1.055,-0.97375 5.8422,1.7851 5.8422,1.7851 a 4.1123,4.1123 0 0 0 0,-3.408 c -0.8113,-1.9474 -2.1907,-8.0331 -0.4056,-9.9806 1.7852,-1.9474 7.1405,-11.441 7.1405,-11.441 z"
               inkscape:connector-curvature="0"
               style="fill:#ffffff" />
            <circle
               id="circle163"
               r="0.97371"
               cy="-384.09"
               cx="-1403.4"
               style="opacity:0.1" />
            <circle
               id="circle165"
               r="0.97371"
               cy="-384.66"
               cx="-1386.7"
               style="opacity:0.1" />
            <circle
               id="circle167"
               r="0.97371"
               cy="-384.41"
               cx="-1403.4"
               style="fill:#ffffff" />
            <circle
               id="circle169"
               r="0.97371"
               cy="-370.62"
               cx="-1402"
               style="opacity:0.1" />
            <circle
               id="circle171"
               r="0.97371"
               cy="-371.59"
               cx="-1386.2"
               style="opacity:0.1" />
            <circle
               id="circle173"
               r="0.97371"
               cy="-370.94"
               cx="-1402"
               style="fill:#ffffff" />
            <circle
               id="circle175"
               r="0.97371"
               cy="-324.60001"
               cx="-1386.6"
               style="opacity:0.1" />
            <circle
               id="circle177"
               r="0.97371"
               cy="-324.60001"
               cx="-1399.4"
               style="opacity:0.1" />
            <circle
               id="circle179"
               r="0.97371"
               cy="-324.92999"
               cx="-1386.6"
               style="fill:#ffffff" />
            <circle
               id="circle181"
               r="0.97371"
               cy="-308.29999"
               cx="-1398.5"
               style="opacity:0.1" />
            <circle
               id="circle183"
               r="0.97371"
               cy="-309.26999"
               cx="-1386.2"
               style="opacity:0.1" />
          </g>
          <g
             transform="matrix(0.74603403,0,0,0.74603403,-447.15263,-40.44694)"
             id="g197"
             style="fill:#ffffff;stroke-width:0.41778001">
            <circle
               id="circle187"
               r="0.97371"
               cy="-308.63"
               cx="-1398.5" />
            <circle
               id="circle189"
               r="0.97371"
               cy="-324.92999"
               cx="-1399.4" />
            <circle
               id="circle191"
               r="0.97371"
               cy="-309.60001"
               cx="-1386.2" />
            <circle
               id="circle193"
               r="0.97371"
               cy="-384.98001"
               cx="-1386.7" />
            <circle
               id="circle195"
               r="0.97371"
               cy="-371.92001"
               cx="-1386.2" />
          </g>
          <g
             transform="matrix(0.74603403,0,0,0.74603403,-447.15263,-40.44694)"
             id="g229"
             style="stroke-width:0.41778001">
            <path
               id="path199"
               d="m -1384.7,-337.76 c 0,0 0.1621,22.233 0.6491,26.209 0,0 0.1768,-25.161 -0.6491,-26.209 z"
               inkscape:connector-curvature="0"
               style="opacity:0.1" />
            <path
               id="path201"
               d="m -1380.6,-327.45 c -0.3344,0 6.6539,26.047 6.9783,27.913 0.3247,1.8663 -5.0308,-27.913 -6.9783,-27.913 z"
               inkscape:connector-curvature="0"
               style="opacity:0.1" />
            <path
               id="path203"
               d="m -1375.1,-331.67 c 0,0.24345 3.8949,14.119 5.8423,14.849 1.9476,0.7303 -5.8423,-14.849 -5.8423,-14.849 z"
               inkscape:connector-curvature="0"
               style="opacity:0.1" />
            <path
               id="path205"
               d="m -1359.8,-358.69 c 0,0 -8.2765,0.36891 -8.5199,1.5638 -0.2434,1.195 8.5199,-1.5638 8.5199,-1.5638 z"
               inkscape:connector-curvature="0"
               style="opacity:0.1" />
            <path
               id="path207"
               d="m -1374.4,-252.88 c 0,0 -5.9233,2.5154 -5.0308,2.6777 0.8926,0.16233 5.0308,-2.6777 5.0308,-2.6777 z"
               inkscape:connector-curvature="0"
               style="opacity:0.1" />
            <path
               id="path209"
               d="m -1386.6,-256.61 c -0.2308,-0.51905 3.976,2.1097 3.976,2.4342 0,0.32465 -3.6514,-1.704 -3.976,-2.4342 z"
               inkscape:connector-curvature="0"
               style="opacity:0.1" />
            <path
               id="path211"
               d="m -1381.1,-248.09 c 0,0 4.6253,-0.23339 4.9497,1.5468 0.3247,1.7801 -4.9497,-1.5468 -4.9497,-1.5468 z"
               inkscape:connector-curvature="0"
               style="opacity:0.1" />
            <path
               id="path213"
               d="m -1414.4,-248.1 c 0,0 5.0308,-0.98379 5.4365,0 0.4056,0.9838 -5.4365,0 -5.4365,0 z"
               inkscape:connector-curvature="0"
               style="opacity:0.1" />
            <path
               id="path215"
               d="m -1412.5,-217.5 c 0,0 0.33,4.1383 -0.8899,5.112 -1.2198,0.97374 0.8899,-5.112 0.8899,-5.112 z"
               inkscape:connector-curvature="0"
               style="opacity:0.1" />
            <path
               id="path217"
               d="m -1413.1,-208.74 c 1.5883,0.16226 9.946,-1.2983 9.8648,0 -0.082,1.2983 -9.8648,0 -9.8648,0 z"
               inkscape:connector-curvature="0"
               style="opacity:0.1" />
            <path
               id="path219"
               d="m -1374.8,-213.77 c 0,0 -2.8505,-0.43806 -2.1556,1.485 z"
               inkscape:connector-curvature="0"
               style="opacity:0.1" />
            <path
               id="path221"
               d="m -1396,-350.66 c -1.2171,0.48685 4.8814,10.358 4.3132,15.633 -0.9156,2.1981 -0.8337,2.0121 -2.5177,2.0675 -1.324,-0.0453 -19.52,0.73884 -23.866,-0.22189 0.6848,-4.0409 1.0548,-8.5524 1.0548,-8.5524 l -11.796,-32.343 0.761,-0.68254 c 11.035,-8.1142 11.36,16.715 11.928,18.906 0.3416,1.3022 0.3416,2.6705 0,3.9728 0,0 -1.8664,2.8432 -1.0548,2.3564 0.8113,-0.48684 5.9234,-0.16226 5.9234,-0.16226 0,0 3.8948,-0.24344 4.7063,-0.0812 0.8113,0.16231 10.548,-0.89256 10.548,-0.89256 z"
               inkscape:connector-curvature="0"
               style="opacity:0.1" />
            <path
               id="path223"
               d="m -1384.1,-414.48 a 0.83657,0.83657 0 0 0 -0.555,0.86982 c -0.3312,0.29213 -0.7953,-0.0519 -1.0647,-0.42518 -0.2725,-0.37002 -0.5811,-0.82767 -0.993,-0.77574 a 3.5653,3.5653 0 0 0 -0.568,0.23698 c -0.6493,0.20767 -1.1978,-0.55504 -1.5614,-1.2237 q -0.9493,-1.7575 -1.8988,-3.5118 c -1.269,0.73676 -2.7685,-0.0355 -4.0279,-0.79847 -1.2593,-0.76275 -2.7587,-1.5385 -4.0311,-0.80166 -1.8663,1.0776 -1.9344,4.6706 -3.8688,5.5566 -0.6232,0.28563 -1.3471,0.22392 -1.9248,0.61668 -0.5712,0.38951 -0.8796,1.1393 -1.1361,1.8566 a 1.9664,1.9664 0 0 1 -0.6359,1.0483 1.3975,1.3975 0 0 1 -0.6557,0.15906 2.8127,2.8127 0 0 1 -1.6879,-0.23693 1.4264,1.4264 0 0 1 -0.5842,-1.6878 0.88306,0.88306 0 0 1 0.052,-0.0942 5.9063,5.9063 0 0 0 0.5583,-0.8017 c 0.1948,-0.51608 -0.085,-1.1165 -0.023,-1.6748 0.1005,-0.95422 1.1102,-1.4573 1.282,-2.3953 0.071,-0.36676 -0.01,-0.75949 0.065,-1.1295 a 1.0268,1.0268 0 0 1 0.038,-0.14284 l -0.5939,0.40897 c 0.6653,-0.7757 0.9997,-1.8533 1.4865,-2.7946 a 8.6063,8.6063 0 0 1 5.2515,-4.2746 c 2.1163,-0.61664 4.3525,-0.44789 6.4883,0.0747 a 21.365,21.365 0 0 1 5.7741,2.3791 5.7298,5.7298 0 0 1 1.6812,1.3664 10.525,10.525 0 0 1 0.9965,1.8403 c 0.6297,1.3048 2.3498,2.5122 0.9802,2.6939 -1.1393,0.15257 -0.1005,0.95104 0.4966,1.4898 a 1.5492,1.5492 0 0 1 0.3439,0.37648 1.3476,1.3476 0 0 1 -0.071,1.3015 c -0.2305,0.29214 0.7043,0.35055 0.3863,0.49339 z"
               inkscape:connector-curvature="0"
               style="opacity:0.1" />
            <path
               id="path225"
               d="m -1384.1,-414.81 a 0.83657,0.83657 0 0 0 -0.555,0.86983 c -0.3312,0.29211 -0.7953,-0.0519 -1.0647,-0.4252 -0.2725,-0.37003 -0.5811,-0.82762 -0.993,-0.77574 a 3.5649,3.5649 0 0 0 -0.568,0.23698 c -0.6493,0.20773 -1.1978,-0.55505 -1.5614,-1.2236 q -0.9493,-1.7575 -1.8988,-3.5119 c -1.269,0.73682 -2.7685,-0.0355 -4.0279,-0.79842 -1.2593,-0.76279 -2.7587,-1.5385 -4.0311,-0.80169 -1.8663,1.0776 -1.9344,4.6706 -3.8688,5.5566 -0.6232,0.28564 -1.3471,0.22396 -1.9248,0.6167 -0.5712,0.3895 -0.8796,1.1392 -1.1361,1.8566 a 1.9664,1.9664 0 0 1 -0.6359,1.0484 1.3975,1.3975 0 0 1 -0.6557,0.15907 2.8128,2.8128 0 0 1 -1.6879,-0.23696 1.4264,1.4264 0 0 1 -0.5842,-1.6878 0.88306,0.88306 0 0 1 0.052,-0.0942 5.9062,5.9062 0 0 0 0.5583,-0.8017 c 0.1948,-0.51608 -0.085,-1.1165 -0.023,-1.6748 0.1005,-0.95421 1.1102,-1.4574 1.282,-2.3954 0.071,-0.36674 -0.01,-0.75949 0.065,-1.1295 a 1.027,1.027 0 0 1 0.038,-0.14281 l -0.5939,0.40894 c 0.6653,-0.77571 0.9997,-1.8533 1.4865,-2.7946 a 8.6063,8.6063 0 0 1 5.2515,-4.2746 c 2.1163,-0.61666 4.3525,-0.44791 6.4883,0.0746 a 21.366,21.366 0 0 1 5.7741,2.3791 5.7298,5.7298 0 0 1 1.6812,1.3664 10.525,10.525 0 0 1 0.9965,1.8403 c 0.6297,1.3048 2.3498,2.5122 0.9802,2.6939 -1.1393,0.15258 -0.1005,0.95106 0.4966,1.4898 a 1.5491,1.5491 0 0 1 0.3439,0.37645 1.3476,1.3476 0 0 1 -0.071,1.3016 c -0.2305,0.29211 0.7043,0.35052 0.3863,0.49336 z"
               inkscape:connector-curvature="0"
               style="fill:#2f2e41" />
            <path
               id="path227"
               d="m -1384.8,-416.98 -0.1297,1.3664 c 0,0 -13.619,-17.261 -24.213,2.2298 0,0 -0.052,-0.23692 -0.1397,-0.63617 a 5.9062,5.9062 0 0 0 0.5582,-0.80169 c 0.1948,-0.51607 -0.085,-1.1165 -0.023,-1.6748 0.1005,-0.95422 1.1101,-1.4574 1.282,-2.3954 0.071,-0.36673 -0.01,-0.75949 0.065,-1.1295 a 1.027,1.027 0 0 1 0.038,-0.14279 l -0.594,0.40892 c 0.6654,-0.77571 0.9998,-1.8533 1.4866,-2.7946 a 8.6063,8.6063 0 0 1 5.2514,-4.2746 c 2.1163,-0.61665 4.3525,-0.44791 6.4883,0.0746 a 21.366,21.366 0 0 1 5.7742,2.3791 5.7298,5.7298 0 0 1 1.6811,1.3664 10.525,10.525 0 0 1 0.9966,1.8403 c 0.6296,1.3048 2.3499,2.5122 0.98,2.6939 -1.1391,0.15257 -0.1004,0.95105 0.4967,1.4898 z"
               inkscape:connector-curvature="0"
               style="opacity:0.1" />
          </g>
          <g
             id="g241"
             transform="matrix(0.3116781,0,0,0.3116781,-1597.5371,-390.06087)"
             style="opacity:0.1">
            <path
               id="path231"
               d="m 531.91,232.04 a 1.5741,1.5741 0 0 0 -0.36957,1.3447 c -0.79244,0.69921 -1.9034,-0.12428 -2.5482,-1.0177 -0.65256,-0.88566 -1.3906,-1.981 -2.3772,-1.8568 a 8.5334,8.5334 0 0 0 -1.3596,0.56716 c -1.5538,0.49717 -2.8668,-1.3285 -3.7369,-2.9289 q -2.2723,-4.2068 -4.5448,-8.4059 c -3.0376,1.7635 -6.6269,-0.0855 -9.6412,-1.9112 -3.0143,-1.8257 -6.6035,-3.6824 -9.6489,-1.9189 -4.4671,2.5793 -4.6303,11.179 -9.2605,13.3 -1.4916,0.68366 -3.2241,0.536 -4.607,1.4761 -1.3673,0.93222 -2.1053,2.7268 -2.7191,4.4438 a 4.7069,4.7069 0 0 1 -1.5227,2.5093 3.345,3.345 0 0 1 -1.5693,0.38071 6.7326,6.7326 0 0 1 -4.0398,-0.56716 3.6337,3.6337 0 0 1 -1.5139,-2.1357 3.4931,3.4931 0 0 0 1.5139,3.6894 6.7325,6.7325 0 0 0 4.0398,0.56716 3.345,3.345 0 0 0 1.5693,-0.38071 4.7069,4.7069 0 0 0 1.5227,-2.5093 c 0.61377,-1.7169 1.3518,-3.5115 2.7191,-4.4438 1.3829,-0.94005 3.1153,-0.79244 4.607,-1.4761 4.6302,-2.1209 4.7934,-10.721 9.2605,-13.3 3.0453,-1.7636 6.6345,0.0932 9.6489,1.9189 3.0143,1.8257 6.6035,3.6747 9.6412,1.9112 q 2.2723,4.1952 4.5448,8.4059 c 0.87011,1.6004 2.1831,3.426 3.7369,2.9289 a 8.5334,8.5334 0 0 1 1.3596,-0.56716 c 0.98666,-0.12428 1.7247,0.97111 2.3772,1.8568 0.64478,0.89344 1.7558,1.7169 2.5482,1.0177 a 2.0024,2.0024 0 0 1 1.3284,-2.082 c 0.60571,-0.27184 -0.68251,-0.41694 -0.95887,-0.81638 z"
               transform="translate(-154.97,-103.64)"
               inkscape:connector-curvature="0" />
            <path
               id="path233"
               d="m 529.37,224.27 a 2.8131,2.8131 0 0 1 0.73355,-0.18516 c 1.4455,-0.19181 1.4515,-0.86167 0.87911,-1.8175 a 2.2719,2.2719 0 0 1 -0.87911,0.26369 c -1.5598,0.20887 -1.4117,0.92402 -0.73355,1.7389 z"
               transform="translate(-154.97,-103.64)"
               inkscape:connector-curvature="0" />
            <path
               id="path235"
               d="m 532.35,230.78 a 3.5099,3.5099 0 0 0 -0.008,-1.5192 2.2409,2.2409 0 0 1 -0.39356,0.85517 c -0.24332,0.30845 0.0563,0.50793 0.40156,0.66403 z"
               transform="translate(-154.97,-103.64)"
               inkscape:connector-curvature="0" />
            <path
               id="path237"
               d="m 474.02,228.54 c -0.0165,0.0888 -0.0353,0.17654 -0.045,0.26872 a 8.912,8.912 0 0 0 0.15173,2.0884 7.3492,7.3492 0 0 0 -0.10673,-2.3571 z"
               transform="translate(-154.97,-103.64)"
               inkscape:connector-curvature="0" />
            <path
               id="path239"
               d="m 477.18,219.07 a 11.268,11.268 0 0 1 -1.3034,1.9472 l 1.2539,-0.86333 a 8.6883,8.6883 0 0 1 0.0495,-1.0839 z"
               transform="translate(-154.97,-103.64)"
               inkscape:connector-curvature="0" />
          </g>
          <g
             transform="matrix(0.74603403,0,0,0.74603403,-447.15263,-40.44694)"
             id="g263"
             style="stroke-width:0.41778001">
            <path
               id="path243"
               d="m -1409.1,-413.71 c 0,0 -1.9584,-8.7549 -1.3353,-10.159 0,0 -1.6913,-3.4689 -1.6913,-4.2949 a 8.2017,8.2017 0 0 0 -1.2462,-3.8819 c -0.8903,-1.4041 -1.8694,-7.929 3.4717,-9.4982 5.3413,-1.5693 9.4363,-2.9734 10.059,-4.0471 0.6232,-1.0737 9.7921,-0.41299 12.285,3.7167 2.4927,4.1297 4.095,3.3038 4.095,3.3038 0,0 3.828,2.3952 3.828,4.5426 0,2.1474 -1.1574,3.2212 0,3.7168 1.1572,0.49553 0.2671,9.4157 -4.8071,9.6634 l -0.445,4.7078 c 0,0 -13.62,-17.262 -24.214,2.23 z"
               inkscape:connector-curvature="0"
               style="fill:#ffffff" />
            <path
               id="path245"
               d="m -1408.6,-439.83 c 0,0 -1.1766,6.8972 0.9738,9.2097 z"
               inkscape:connector-curvature="0"
               style="opacity:0.1" />
            <path
               id="path247"
               d="m -1403,-441.42 c 0,0 -3.0022,7.384 -2.272,8.804 z"
               inkscape:connector-curvature="0"
               style="opacity:0.1" />
            <path
               id="path249"
               d="m -1400.4,-443.77 c 0,0 -2.0287,9.6154 -1.0548,10.386 z"
               inkscape:connector-curvature="0"
               style="opacity:0.1" />
            <path
               id="path251"
               d="m -1397,-441.17 c 0,0 -2.5155,6.1668 -1.5011,7.0188 z"
               inkscape:connector-curvature="0"
               style="opacity:0.1" />
            <path
               id="path253"
               d="m -1392.2,-440.44 c 0,0 -2.9617,5.0308 -2.3532,5.9234 z"
               inkscape:connector-curvature="0"
               style="opacity:0.1" />
            <path
               id="path255"
               d="m -1386.1,-435.53 c 0,0 -3.1644,0.85199 -2.5153,1.8663 z"
               inkscape:connector-curvature="0"
               style="opacity:0.1" />
            <path
               id="path257"
               d="m -1383.1,-430.3 c 0,0 -2.8399,1.3794 -2.3125,2.1097 z"
               inkscape:connector-curvature="0"
               style="opacity:0.1" />
            <path
               id="path259"
               d="m -1410.5,-423.86 c 0,0 18.14,-7.3681 25.994,3.2211 0,4e-5 -9.5336,-8.1059 -25.994,-3.2211 z"
               inkscape:connector-curvature="0"
               style="opacity:0.1" />
            <path
               id="path261"
               d="m -1400.4,-358.99 c 0,0 -10.633,-3.876 -11.678,-4.8029 -1.0448,-0.9269 -7.1909,4.4659 0.3072,11.797 0,0 9.169,2.6121 11.622,0 2.4528,-2.6122 -0.2513,-6.9938 -0.2513,-6.9938 z"
               inkscape:connector-curvature="0"
               style="fill:#fbbeac" />
          </g>
          <g
             id="g279"
             transform="matrix(0.30283013,-0.07374323,0.07374323,0.30283013,-1144.6049,-1000.3689)">
            <path
               id="path265"
               d="m -1598.6,1926.7 11.848,-3.3017 c 0,0 58.461,1.5537 38.844,-22.53 0,0 -10.294,-9.9053 -31.852,-1.9422 -21.558,7.963 -27.579,8.9342 -27.579,8.9342 z"
               inkscape:connector-curvature="0"
               style="fill:#fbbeac" />
            <path
               id="path267"
               d="m -1665.6,1842.8 h -3.6902 l -5.6325,20.587 c 0,0 -1.9422,7.1862 -3.8844,8.9342 -1.9422,1.748 1.748,17.674 1.748,17.674 0,0 -2.1364,11.265 -3.8844,14.178 -1.748,2.9134 2.7191,10.1 2.7191,10.1 l 8.9342,20.976 23.695,6.2151 c 0,0 41.758,9.1284 43.7,10.488 1.942,1.3596 3.6902,-0.5827 5.0497,-13.207 1.3597,-12.624 5.0498,-37.096 7.9631,-38.262 0,0 -23.306,2.5249 -25.249,2.1364 -1.9422,-0.3884 -11.265,0.1942 -11.265,0.1942 0,0 -12.236,-0.7768 -14.178,0.3885 -1.9421,1.1653 2.525,-5.6412 2.525,-5.6412 a 18.731,18.731 0 0 0 0,-9.5081 c -1.3596,-5.244 -2.1365,-64.676 -28.551,-45.254 z"
               inkscape:connector-curvature="0"
               style="opacity:0.1" />
            <path
               id="path269"
               d="m -1589.7,1902.8 c -2.9133,1.1653 -6.6035,25.637 -7.9631,38.262 -1.3595,12.624 -3.1075,14.567 -5.0497,13.207 -1.5771,-1.1032 -29.413,-7.3338 -39.816,-9.6334 1.6392,-9.6723 2.5249,-20.471 2.5249,-20.471 l -29.522,-79.048 h 3.1076 c 26.414,-19.422 27.191,40.01 28.55,45.254 a 18.736,18.736 0 0 1 0,9.5091 c 0,0 -4.4671,6.8055 -2.5249,5.6402 1.9423,-1.1653 14.178,-0.3884 14.178,-0.3884 0,0 9.3225,-0.5827 11.265,-0.1943 1.9422,0.3885 25.249,-2.1364 25.249,-2.1364 z"
               inkscape:connector-curvature="0"
               style="opacity:0.1" />
            <path
               id="path271"
               d="m -1666.4,1843.5 h -3.6902 l -5.6325,20.587 c 0,0 -1.9422,7.1862 -3.8844,8.9342 -1.9422,1.748 1.748,17.674 1.748,17.674 0,0 -2.1364,11.265 -3.8844,14.178 -1.748,2.9134 2.7191,10.1 2.7191,10.1 l 8.9342,20.976 23.695,6.2151 c 0,0 41.758,9.1284 43.7,10.488 1.942,1.3596 3.6902,-0.5827 5.0499,-13.207 1.3594,-12.624 5.0496,-37.096 7.963,-38.262 0,0 -23.307,2.5249 -25.249,2.1365 -1.9422,-0.3885 -11.265,0.1942 -11.265,0.1942 0,0 -12.236,-0.7769 -14.178,0.3884 -1.9422,1.1654 2.5248,-5.6411 2.5248,-5.6411 a 18.731,18.731 0 0 0 0,-9.5081 c -1.3595,-5.2441 -2.1364,-64.676 -28.55,-45.254 z"
               inkscape:connector-curvature="0"
               style="fill:#ffffff" />
            <path
               id="path273"
               d="m -1653.8,1913.8 c 0,0 -10.682,20.199 -12.624,17.868 -1.942,-2.331 12.624,-17.868 12.624,-17.868 z"
               inkscape:connector-curvature="0"
               style="opacity:0.1" />
            <path
               id="path275"
               d="m -1664.8,1902.3 c 0,0 -9.9053,8.2005 -5.244,10.337 4.6613,2.1365 5.244,-10.337 5.244,-10.337 z"
               inkscape:connector-curvature="0"
               style="opacity:0.1" />
            <path
               id="path277"
               d="m -1655.5,1892.3 c 0.7769,0.1943 14.372,2.8945 14.567,4.0693 0.1942,1.1747 -14.567,-4.0693 -14.567,-4.0693 z"
               inkscape:connector-curvature="0"
               style="opacity:0.1" />
          </g>
          <path
             id="path281"
             style="fill:#fbbeac;stroke-width:0.74603403;paint-order:normal"
             d="m -1500.7765,-303.4687 c -0.7591,-0.81221 -1.3057,-1.56712 -1.6899,-2.33389 -0.301,-0.6006 -0.5372,-1.3034 -0.6156,-1.83166 -0.04,-0.26635 -0.046,-0.91061 -0.01,-1.21089 0.1093,-0.95813 0.5348,-1.86822 1.1647,-2.49161 0.3754,-0.37143 0.7684,-0.59123 1.0639,-0.59493 0.1205,-0.003 0.1488,0.007 0.2467,0.0736 l 0.1104,0.0754 0.3727,4.81736 c 10e-5,2.36023 -0.3767,3.76516 -0.3817,3.76516 -0.01,0 -0.122,-0.12084 -0.26,-0.26853 z"
             inkscape:connector-curvature="0" />
          <g
             id="g285"
             transform="matrix(0.11782862,0.11782862,-0.11782862,0.11782862,-1248.0202,-244.25598)">
            <path
               id="path283"
               style="fill:#ff4545;paint-order:normal"
               d="m -1694.5,1318.8 c -17.783,14.387 -35.721,25.156 -55.161,33.116 -38.026,15.571 -80.918,18.376 -122.06,7.9826 -45.896,-11.594 -87.865,-41.018 -114.13,-80.013 -21.25,-31.548 -33.128,-69.523 -33.696,-107.73 -0.4174,-28.079 4.2174,-53.353 14.299,-77.974 10.328,-25.222 22.359,-43.199 42.339,-63.263 11.368,-11.416 17.95,-16.882 30.187,-25.066 66.172,-44.261 152.75,-44.596 218.59,-0.8461 12.393,8.2346 18.298,13.125 29.934,24.793 15.98,16.024 26.074,29.805 36.158,49.368 12.956,25.132 19.468,49.291 21.914,81.297 l 0.3237,4.2365 12.74,0.065 c 13.061,0.066 15.385,0.3764 17.318,2.3103 1.7609,1.7609 2.6694,5.602 1.8803,7.9497 -0.398,1.184 -10.377,18.821 -22.176,39.193 -15.534,26.821 -21.954,37.34 -23.268,38.127 -2.268,1.3579 -6.332,1.2495 -8.5063,-0.227 -2.1064,-1.4303 -44.785,-75.03 -45.317,-78.148 -0.496,-2.9115 1.3471,-6.6183 4.0301,-8.1054 1.2648,-0.7009 7.1542,-1.1392 15.433,-1.1484 l 13.388,-0.015 0.095,-2.6775 c 0.1676,-4.7314 -1.351,-16.708 -3.3107,-26.109 -5.2215,-25.048 -17.322,-50.116 -34.242,-70.934 -6.6042,-8.126 -21.656,-22.343 -29.802,-28.15 -27.42,-19.546 -58.982,-29.932 -92.531,-30.449 -43.438,-0.669 -82.966,14.726 -115.16,44.851 -20.003,18.717 -32.935,38.672 -41.808,64.51 -17.09,49.769 -9.3063,103.45 21.536,148.53 7.3755,10.779 24.702,28.107 36.257,36.259 16.026,11.307 27.634,17.391 43.57,22.836 34.728,11.867 70.561,11.967 104.47,0.2921 21.872,-7.5311 39.127,-17.516 57.332,-33.177 9.5123,-8.1829 11.51,-9.3938 16.237,-9.8416 12.549,-1.1888 22.061,11.503 17.303,23.088 -1.0861,2.6445 -8.3298,10.353 -14.165,15.074 z"
               inkscape:connector-curvature="0" />
          </g>
        </g>
      </g>
    </g>
  </g>
</svg>
