<?xml version="1.0" encoding="UTF-8" standalone="no"?>
<svg
   xmlns:dc="http://purl.org/dc/elements/1.1/"
   xmlns:cc="http://creativecommons.org/ns#"
   xmlns:rdf="http://www.w3.org/1999/02/22-rdf-syntax-ns#"
   xmlns:svg="http://www.w3.org/2000/svg"
   xmlns="http://www.w3.org/2000/svg"
   xmlns:xlink="http://www.w3.org/1999/xlink"
   xmlns:sodipodi="http://sodipodi.sourceforge.net/DTD/sodipodi-0.dtd"
   xmlns:inkscape="http://www.inkscape.org/namespaces/inkscape"
   width="932.62653"
   height="608.63562"
   data-name="Layer 1"
   version="1.1"
   viewBox="0 0 932.62653 608.63562"
   id="svg157"
   sodipodi:docname="Gr.svg"
   inkscape:version="0.92.5 (2060ec1f9f, 2020-04-08)">
  <sodipodi:namedview
     pagecolor="#ffffff"
     bordercolor="#666666"
     borderopacity="1"
     objecttolerance="10"
     gridtolerance="10"
     guidetolerance="10"
     inkscape:pageopacity="0"
     inkscape:pageshadow="2"
     inkscape:window-width="1366"
     inkscape:window-height="705"
     id="namedview159"
     showgrid="false"
     inkscape:zoom="0.52009206"
     inkscape:cx="453.13077"
     inkscape:cy="370.6513"
     inkscape:window-x="-8"
     inkscape:window-y="399"
     inkscape:window-maximized="1"
     inkscape:current-layer="g287" />
  <metadata
     id="metadata2">
    <rdf:RDF>
      <cc:Work
         rdf:about="">
        <dc:format>image/svg+xml</dc:format>
        <dc:type
           rdf:resource="http://purl.org/dc/dcmitype/StillImage" />
        <dc:title>web_devices</dc:title>
      </cc:Work>
    </rdf:RDF>
  </metadata>
  <defs
     id="defs15">
    <linearGradient
       id="deacd444-d5db-4c24-9492-02e57292be3c"
       x1="675.04999"
       x2="675.04999"
       y1="606.02002"
       y2="240.27"
       gradientUnits="userSpaceOnUse">
      <stop
         stop-color="gray"
         stop-opacity=".25"
         offset="0"
         id="stop4" />
      <stop
         stop-color="gray"
         stop-opacity=".12"
         offset=".54"
         id="stop6" />
      <stop
         stop-color="gray"
         stop-opacity=".1"
         offset="1"
         id="stop8" />
    </linearGradient>
    <linearGradient
       id="a1de9c2c-a914-4f57-a703-6b671b828453"
       x1="473.94"
       x2="473.94"
       y1="635.65002"
       y2="301.64999"
       gradientTransform="translate(-82,-130)"
       xlink:href="#deacd444-d5db-4c24-9492-02e57292be3c" />
    <linearGradient
       id="33ead0d0-8f65-4117-bca2-44ecb419ecb0"
       x1="363.44"
       x2="363.44"
       y1="662.65002"
       y2="401.64999"
       gradientTransform="translate(-82,-130)"
       xlink:href="#deacd444-d5db-4c24-9492-02e57292be3c" />
    <linearGradient
       id="9a5964b5-9011-4675-8f60-8033350848c0"
       x1="849.67999"
       x2="849.67999"
       y1="703.65997"
       y2="385.5"
       gradientTransform="translate(-82,-130)"
       xlink:href="#deacd444-d5db-4c24-9492-02e57292be3c" />
    <linearGradient
       id="linearGradient949"
       x1="675.04999"
       x2="675.04999"
       y1="606.02002"
       y2="240.27"
       gradientTransform="translate(-82,-130)"
       gradientUnits="userSpaceOnUse"
       xlink:href="#deacd444-d5db-4c24-9492-02e57292be3c" />
    <clipPath
       id="a-4-8-9-3-1">
      <rect
         y="0"
         x="0"
         width="91"
         height="100.34"
         id="rect4" />
    </clipPath>
    <clipPath
       id="a-7">
      <rect
         y="0"
         x="0"
         width="91"
         height="100.34"
         id="rect7" />
    </clipPath>
    <clipPath
       id="a">
      <rect
         y="0"
         x="0"
         width="91"
         height="100.34"
         id="rect4-7" />
    </clipPath>
    <linearGradient
       id="linearGradient3845-5-3"
       x1="507.95001"
       x2="507.95001"
       y1="790.47998"
       y2="154.92"
       gradientTransform="matrix(0.41778,0,0,0.41778,-1606.7,-511.92)"
       gradientUnits="userSpaceOnUse">
      <stop
         stop-color="gray"
         stop-opacity=".25"
         offset="0"
         id="stop4-0" />
      <stop
         stop-color="gray"
         stop-opacity=".12"
         offset=".53514"
         id="stop6-8" />
      <stop
         stop-color="gray"
         stop-opacity=".1"
         offset="1"
         id="stop8-9" />
    </linearGradient>
    <clipPath
       id="clipEmfPath1-9">
      <path
         inkscape:connector-curvature="0"
         d="M 0,0 H 158.56 V 180.64 H 0 Z"
         id="path4" />
    </clipPath>
    <clipPath
       id="clipPath1062">
      <path
         inkscape:connector-curvature="0"
         d="M 0,0 H 158.56 V 180.64 H 0 Z"
         id="path1060" />
    </clipPath>
  </defs>
  <title
     id="title17">web_devices</title>
  <g
     transform="matrix(1.1793957,0,0,1.1793957,89.84146,-250.18112)"
     style="fill:#ffb8b8"
     id="g18" />
  <g
     transform="matrix(0,-0.77723239,-0.77723239,0,308.02944,338.52339)"
     id="g32">
    <g
       transform="matrix(0,-2.1224183,-2.1224183,0,2176.6232,-25.93398)"
       id="g289">
      <g
         transform="translate(1562.5,1350)"
         id="g287">
        <g
           id="g2148"
           transform="matrix(0.95619921,0,0,0.95619921,-16.771911,3.5758034)">
          <g
             id="g17"
             style="stroke-width:0.96263999"
             transform="matrix(0.60620306,0,0,0.60620306,-1742.4529,-508.33532)">
            <rect
               id="rect11"
               height="433.76999"
               width="677.28998"
               y="0.38396001"
               x="28.961"
               style="fill:#3f3d56" />
            <rect
               id="rect13"
               height="251.25"
               width="244.50999"
               y="58.632"
               x="88.850998"
               style="fill:#ffffff" />
            <rect
               id="rect15"
               height="305.16"
               width="244.50999"
               y="63.504002"
               x="424.81"
               style="fill:#ffffff" />
          </g>
          <g
             id="g25"
             style="fill:#e6e6e6"
             transform="matrix(0.60620306,0,0,0.60620306,-1742.4529,-508.33532)">
            <ellipse
               id="ellipse19"
               ry="6.2571998"
               rx="43.799999"
               cy="459.42999"
               cx="666.06"
               style="stroke-width:0.96263999" />
            <ellipse
               id="ellipse21"
               ry="6.2571998"
               rx="43.799999"
               cy="459.57001"
               cx="228.16"
               style="stroke-width:0.96263999" />
            <ellipse
               id="ellipse23"
               ry="5"
               rx="73.650002"
               cy="468.91"
               cx="74.063004"
               style="stroke-width:0.83982003" />
          </g>
          <rect
             id="rect27"
             height="17.442886"
             width="410.57526"
             x="-1725.0719"
             style="fill:#ff4545;stroke-width:0.58355528"
             y="-508.3353" />
          <g
             id="g35"
             style="fill:#e6e6e6;stroke-width:0.96263999"
             transform="matrix(0.60620306,0,0,0.60620306,-1742.4529,-508.33532)">
            <circle
               id="circle29"
               r="5.3330002"
               cy="14.711"
               cx="50.054001" />
            <circle
               id="circle31"
               r="5.3330002"
               cy="14.711"
               cx="70.296997" />
            <circle
               id="circle33"
               r="5.3330002"
               cy="14.711"
               cx="90.540001" />
          </g>
          <g
             id="g45"
             style="stroke-width:0.96263999"
             transform="matrix(0.60620306,0,0,0.60620306,-1742.4529,-508.33532)">
            <path
               id="path37"
               d="m 590.43,87.407 h -11.221 a 8.3321,8.3321 0 0 1 -7.7144,11.479 h -49.248 a 8.3321,8.3321 0 0 1 -7.7144,-11.479 h -10.481 a 17.538,17.538 0 0 0 -17.538,17.538 v 222.28 a 17.538,17.538 0 0 0 17.538,17.538 h 86.379 a 17.538,17.538 0 0 0 17.538,-17.538 v -222.28 a 17.538,17.538 0 0 0 -17.538,-17.538 z"
               inkscape:connector-curvature="0"
               style="fill:#ffffff" />
            <rect
               id="rect39"
               height="7.7518001"
               width="169.95"
               y="217.34"
               x="126.3"
               style="fill:#e6e6e6" />
            <rect
               id="rect41"
               height="7.7518001"
               width="169.95"
               y="242.37"
               x="126.3"
               style="fill:#ff4545" />
            <rect
               id="rect43"
               height="7.7518001"
               width="169.95"
               y="267.39999"
               x="126.3"
               style="fill:#e6e6e6" />
          </g>
          <g
             id="g57"
             transform="matrix(0.94737415,0,0,0.58355532,-2092.8019,-508.33532)">
            <rect
               id="rect47"
               height="8.0527"
               width="103.06"
               y="243.35001"
               x="670.84003"
               style="fill:#ff4545" />
            <g
               id="g55"
               style="fill:#e6e6e6">
              <rect
                 id="rect49"
                 height="8.0527"
                 width="103.06"
                 y="268.35001"
                 x="670.84003" />
              <rect
                 id="rect51"
                 height="8.0527"
                 width="103.06"
                 y="293.35001"
                 x="670.84003" />
              <rect
                 id="rect53"
                 height="8.0527"
                 width="103.06"
                 y="319.66"
                 x="670.70001" />
            </g>
          </g>
          <g
             id="g65"
             style="stroke-width:0.96263999"
             transform="matrix(0.60620306,0,0,0.60620306,-1742.4529,-508.33532)">
            <rect
               id="rect59"
               height="16.535999"
               width="16.535999"
               y="-608.19"
               x="386.22"
               transform="rotate(90)"
               style="fill:#3f3d56" />
            <path
               id="path61"
               d="m 189.37,265.3 -0.71345,1.4269 -2.1403,-10.702 c 0,0 -2.8538,-11.415 2.8538,-11.415 5.7076,0 4.2807,11.415 4.2807,11.415 v 7.8479 z"
               inkscape:connector-curvature="0"
               style="fill:#a0616a" />
            <path
               id="path63"
               d="m 282.98,263.84 0.71344,1.4269 2.1403,-10.702 c 0,0 2.8538,-11.415 -2.8538,-11.415 -5.7076,0 -4.2807,11.415 -4.2807,11.415 v 7.8479 z"
               inkscape:connector-curvature="0"
               style="fill:#a0616a" />
          </g>
          <g
             id="g73"
             style="fill:#2f2e41"
             transform="matrix(0.60620306,0,0,0.60620306,-1742.4529,-508.33532)">
            <polygon
               id="polygon67"
               points="397.04,390.81 399.26,428.61 394.82,467.89 408.16,469.37 417.79,388.58 417.05,361.16 382.22,358.94 373.32,413.78 377.77,467.14 388.14,462.7 386.66,422.68 "
               transform="matrix(0.96264,0,0,0.96264,-147.18,0)" />
            <path
               id="path69"
               d="m 220.76,443.27 -4.9941,7.8479 v 17.536 a 2.1265,2.1265 0 0 0 1.787,2.099 c 2.4478,0.40162 6.71,0.68698 8.2012,-1.7985 2.1403,-3.5672 0.71344,-11.415 0.71344,-11.415 0,0 2.8538,-5.7076 1.4269,-9.9882 -1.4269,-4.2807 -2.8538,-4.9941 -2.8538,-4.9941 z"
               inkscape:connector-curvature="0"
               style="stroke-width:0.96263999" />
            <path
               id="path71"
               d="m 242.16,450.41 1.4269,2.1403 c 0,0 2.1403,2.1403 0.71344,3.5672 a 27.883,27.883 0 0 0 -2.8538,3.5672 c 0,0 -7.8479,2.1403 -7.8479,-0.71345 v -9.2748 z"
               inkscape:connector-curvature="0"
               style="stroke-width:0.96263999" />
          </g>
          <circle
             id="circle75"
             r="5.7329836"
             cy="-339.80478"
             cx="-1597.2128"
             style="fill:#a0616a;stroke-width:0.58355528" />
          <polygon
             id="polygon77"
             points="407.78,306.69 407.04,292.61 395.18,291.87 394.44,305.95 "
             transform="matrix(0.58355532,0,0,0.58355532,-1831.6739,-508.33532)"
             style="fill:#a0616a" />
          <g
             id="g85"
             style="fill:#575a89"
             transform="matrix(0.60620306,0,0,0.60620306,-1742.4529,-508.33532)">
            <path
               id="path79"
               d="m 247.16,295.59 -2.0252,-4.9476 c 0,0 -9.3899,-3.6138 -12.244,-0.0466 l -1.4269,4.2807 -11.415,-2.8538 -6.421,14.269 5.7076,40.666 c 0,0 14.982,19.263 34.959,0.71344 l 5.7076,-38.526 -4.2806,-14.982 z"
               inkscape:connector-curvature="0"
               style="stroke-width:0.96263999" />
            <polygon
               id="polygon81"
               points="417.05,308.54 418.53,305.58 433.35,296.68 442.4,269.91 449.4,272.91 441.51,304.84 420.01,324.85 "
               transform="matrix(0.96264,0,0,0.96264,-147.18,0)" />
            <polygon
               id="polygon83"
               points="382.96,304.84 381.47,303.36 365.91,293.72 354.79,271.49 345.9,274.45 355.53,301.87 379.25,321.14 "
               transform="matrix(0.96264,0,0,0.96264,-147.18,0)" />
          </g>
          <path
             id="path87"
             d="m -1592.9572,-348.58869 0.9374,-0.46868 -1.406,-0.46868 v -0.4687 c 0,0 -7.0302,-2.81206 -7.9674,1.87474 a 9.4203956,9.4203956 0 0 0 0,11.2481 v 1.40603 l 7.4988,0.93737 0.9373,-2.81206 c 0,0 4.6868,-8.43592 0,-11.24809 z"
             style="fill:#2f2e41;stroke-width:0.58355528"
             inkscape:connector-curvature="0" />
          <rect
             id="rect89"
             height="59.111469"
             width="85.062416"
             y="-283.57343"
             x="-1740.3101"
             style="fill:#ff4545;stroke-width:0.60620308" />
          <path
             id="path91"
             d="m -1360.0418,-338.38629 0.4758,-3.06945 c 0,0 2.7737,-6.30512 0.5813,-6.6452 -2.1925,-0.33991 -4.0212,5.66297 -4.0212,5.66297 l 0.8022,6.4106 z"
             style="fill:#ffb8b8;stroke-width:0.58355528"
             inkscape:connector-curvature="0" />
          <polygon
             id="polygon93"
             points="846.67,321.05 813.09,314.31 809.19,289.85 799.3,289.08 799.78,320.71 828.96,336 "
             transform="matrix(0.58355532,0,0,0.58355532,-1831.6739,-508.33532)"
             style="fill:#ff4545" />
          <polygon
             id="polygon95"
             points="846.67,321.05 813.09,314.31 809.19,289.85 799.3,289.08 799.78,320.71 828.96,336 "
             transform="matrix(0.58355532,0,0,0.58355532,-1831.6739,-508.33532)"
             style="opacity:0.2" />
          <g
             id="g103"
             style="stroke-width:0.96263999"
             transform="matrix(0.60620306,0,0,0.60620306,-1742.4529,-508.33532)">
            <rect
               id="rect97"
               height="7.7518001"
               width="99.212997"
               y="-274.13"
               x="-679.13"
               transform="scale(-1)"
               style="fill:#ff4545" />
            <path
               id="path99"
               d="m 624.52,278.62 0.007,-5.1239 c 0,0 2.9417,-10.976 -0.71819,-10.981 -3.6599,-0.005 -5.1367,10.241 -5.1367,10.241 l 2.915,10.251 z"
               inkscape:connector-curvature="0"
               style="fill:#ffb8b8" />
            <path
               id="path101"
               d="m 666.6,293.29 4.4353,-1.0812 a 11.419,11.419 0 0 0 11.207,-13.68 14.925,14.925 0 0 0 -14.906,-14.944 14.925,14.925 0 0 0 -14.944,14.906 11.86,11.86 0 0 0 14.208,14.799 z"
               inkscape:connector-curvature="0"
               style="fill:#2f2e41" />
          </g>
          <polygon
             id="polygon105"
             points="818.25,381.46 822,422.52 828.8,462.83 840.2,462.85 838.73,423.3 832.71,375.39 "
             transform="matrix(0.58355532,0,0,0.58355532,-1831.6739,-508.33532)"
             style="fill:#575a89" />
          <g
             id="g115"
             style="stroke-width:0.96263999"
             transform="matrix(0.60620306,0,0,0.60620306,-1742.4529,-508.33532)">
            <path
               id="path107"
               d="m 652.12,443.35 -7.3253,4.3827 c 0,0 -11.713,1.4492 -9.5222,5.1119 2.1908,3.6627 27.813,1.4989 27.815,0.0349 0.002,-1.464 -0.72005,-9.5167 -2.184,-9.5185 z"
               inkscape:connector-curvature="0"
               style="fill:#2f2e41" />
            <path
               id="path109"
               d="m 672.92,363.79 c 0,0 -0.20594,5.6516 -5.3408,14.429 l 0.69796,27.084 26.309,33.704 -9.5258,8.0398 -32.161,-36.639 -7.9966,-43.929 10.261,-10.235 z"
               inkscape:connector-curvature="0"
               style="fill:#575a89" />
            <path
               id="path111"
               d="m 692.39,439.01 c 0,0 8.7819,1.475 7.3134,5.133 -1.4686,3.658 -5.1496,20.489 -14.663,18.281 0,0 -4.3919,-0.006 -2.9242,-2.9316 a 52.949,52.949 0 0 1 2.9344,-5.1202 l 0.0119,-9.5157 z"
               inkscape:connector-curvature="0"
               style="fill:#2f2e41" />
            <circle
               id="circle113"
               r="10.98"
               cy="283.06"
               cx="661.84003"
               style="fill:#ffb8b8" />
          </g>
          <polygon
             id="polygon117"
             points="833.55,314.56 835.08,301.64 845.73,301.65 845.71,314.58 "
             transform="matrix(0.58355532,0,0,0.58355532,-1831.6739,-508.33532)"
             style="fill:#ffb8b8" />
          <polygon
             id="polygon119"
             points="844.19,313.06 809.98,311.49 802.4,287.91 792.52,288.66 797.8,319.84 828.96,330.53 "
             transform="matrix(0.58355532,0,0,0.58355532,-1831.6739,-508.33532)"
             style="fill:#ff4545" />
          <path
             id="path121"
             d="m -1347.0206,-327.4322 2.1513,-0.52847 6.7234,0.53962 c 0,0 3.5454,3.55429 3.1005,4.44116 -0.4448,0.88688 -2.6907,22.62653 -2.6907,22.62653 l 3.9739,15.53577 -14.2002,0.8696 -7.0986,-0.89639 1.3663,-27.95324 c 0,0 -3.0966,-7.54723 0.8997,-9.76108 a 17.479865,17.479865 0 0 0 5.7746,-4.87375 z"
             style="fill:#ff4545;stroke-width:0.58355528"
             inkscape:connector-curvature="0" />
          <g
             id="g129"
             style="fill:#2f2e41;stroke-width:0.96263999"
             transform="matrix(0.60620306,0,0,0.60620306,-1742.4529,-508.33532)">
            <circle
               id="circle123"
               r="7.0839"
               cy="267.88"
               cx="683.03998" />
            <path
               id="path125"
               d="m 676.5,264.07 a 7.0806,7.0806 0 0 1 8.478,-6.9358 7.0806,7.0806 0 1 0 -4.4163,13.344 7.0781,7.0781 0 0 1 -4.0617,-6.4087 z"
               inkscape:connector-curvature="0" />
            <path
               id="path127"
               d="m 670.42,268.09 -9.5502,-1.7584 -7.3445,4.6032 a 11.141,11.141 0 0 0 -5.1321,10.873 l 7.3558,-1.8644 1.6471,-4.1302 1.9617,3.2154 7.9583,13.914 8.0573,-4.3818 5.134,-8.0453 z"
               inkscape:connector-curvature="0" />
          </g>
          <g
             id="g135"
             transform="matrix(0.37949524,0,0,0.37949524,-1785.5734,-483.2173)"
             style="fill:#ff4545">
            <path
               id="path131"
               clip-path="url(#clipEmfPath1-9)"
               d="M 6.56,0 H 152 c 3.6,0 6.56,3.04 6.56,6.7999 v 26.16 c 0,3.76 -2.96,6.7999 -6.56,6.7999 H 6.56 C 2.96,39.7598 0,36.7198 0,32.9599 V 6.7999 C 0,3.0399 2.96,0 6.56,0 Z"
               transform="translate(908.81,73.471)"
               inkscape:connector-curvature="0" />
            <path
               id="path133"
               clip-path="url(#clipEmfPath1-9)"
               d="m 49.36,86.959 c 0,-6.4 5.12,-11.68 11.36,-11.68 6.24,0 11.36,5.28 11.36,11.68 0,6.48 -5.12,11.76 -11.36,11.76 -6.24,0 -11.36,-5.28 -11.36,-11.76 z m 23.36,37.76 c 0,-6.48 5.04,-11.76 11.36,-11.76 6.24,0 11.28,5.28 11.28,11.76 0,6.4 -5.04,11.68 -11.28,11.68 -6.32,0 -11.36,-5.28 -11.36,-11.68 z M 14.24,46.88 l 28,61.36 30.16,66.16 c 3.84,8.3199 9.9999,8.3199 13.76,0 l 30.24,-66.16 28,-61.36 z m 74.559,25.84 c 0,-6.48 5.12,-11.68 11.36,-11.68 6.24,0 11.36,5.2 11.36,11.68 0,6.48 -5.12,11.76 -11.36,11.76 -6.24,0 -11.36,-5.28 -11.36,-11.76 z"
               transform="translate(908.81,73.471)"
               inkscape:connector-curvature="0"
               style="fill-rule:evenodd" />
          </g>
          <g
             id="g173"
             transform="matrix(0,0.58355532,-0.58355532,0,-1533.4462,-638.94177)"
             style="fill:#3f3d56">
            <g
               id="g141"
               transform="matrix(0.77069,0,0,0.77069,794.01,-193.7)">
              <path
                 id="path137"
                 style="paint-order:normal"
                 d="m -598.36,349.56 c -1.8173,-3.1489 -3.3351,-5.85 -3.3729,-6.0024 -0.0795,-0.32079 3.4307,-2.1682 7.057,-3.7141 7.9796,-3.4017 16.103,-5.4821 25.301,-6.48 3.239,-0.35136 12.865,-0.34713 16.214,0.007 10.473,1.1081 20.421,3.9529 29.385,8.4033 1.5006,0.74502 2.7982,1.4244 2.8834,1.5096 0.14337,0.14337 -0.58386,1.466 -5.042,9.1698 l -1.6408,2.8354 -2.0625,-1.035 c -7.7716,-3.9 -17.052,-6.4659 -26.064,-7.2067 -12.643,-1.0391 -26.122,1.593 -37.549,7.3324 l -1.8039,0.90599 z"
                 inkscape:connector-curvature="0" />
              <path
                 id="path139"
                 style="paint-order:normal"
                 d="m -576.64,387.17 -15.325,-26.543 2.7261,-1.3024 c 6.1772,-2.951 12.438,-4.8119 19.559,-5.8135 3.2422,-0.45603 12.614,-0.52415 15.904,-0.11561 7.214,0.89591 15.046,3.2179 21.108,6.2578 l 2.0028,1.0044 -2.1204,3.6697 c -1.1662,2.0184 -3.6406,6.3035 -5.4986,9.5225 l -3.3781,5.8528 -0.57386,-1.2642 c -0.71808,-1.5819 -2.5443,-3.4453 -4.1379,-4.2222 -5.0781,-2.4756 -11.257,0.33185 -12.66,5.752 -1.1052,4.2708 0.94646,8.581 4.9981,10.5 1.2993,0.61548 1.5485,0.66123 3.6009,0.66123 h 2.205 l -0.37665,0.61963 c -0.20716,0.34079 -3.1383,5.4062 -6.5137,11.257 -3.3754,5.8503 -6.15,10.652 -6.166,10.672 -0.0159,0.0191 -6.9251,-11.909 -15.354,-26.508 z m 3.8446,-12.884 c 5.903,-0.95778 9.2022,-7.2527 6.6546,-12.697 -2.0846,-4.4548 -7.4051,-6.3635 -11.889,-4.2652 -4.5276,2.1187 -6.4436,7.4567 -4.3061,11.997 0.6747,1.4331 2.6905,3.4844 4.085,4.157 0.98216,0.47369 2.8263,0.97338 3.7178,1.0074 0.22719,0.009 1.0092,-0.081 1.7378,-0.19919 z"
                 inkscape:connector-curvature="0" />
            </g>
            <g
               id="g147"
               transform="matrix(0.77069,0,0,0.77069,794.01,-175.21)">
              <path
                 id="path143"
                 style="paint-order:normal"
                 d="m -626.18,415.24 c 0.0486,-0.31239 0.14268,-1.4974 0.20906,-2.6334 0.828,-14.171 7.5985,-29.103 18.061,-39.834 3.526,-3.6163 8.0392,-7.3559 11.296,-9.3595 l 1.0588,-0.65142 7.8768,13.646 c 4.3322,7.5052 7.8404,13.682 7.796,13.727 -0.0444,0.0444 -0.51241,-0.0279 -1.0399,-0.1607 -0.5321,-0.13398 -1.7199,-0.20157 -2.6679,-0.15181 -1.3597,0.0714 -1.9905,0.22153 -3.0881,0.73513 -6.9127,3.2348 -7.0967,12.752 -0.3129,16.184 4.08,2.0642 9.0345,0.70367 11.537,-3.1681 0.42612,-0.6593 0.89339,-1.6616 1.0384,-2.2273 0.14501,-0.5657 0.32691,-1.0286 0.40426,-1.0286 0.0774,0 2.0277,3.2763 4.3341,7.2806 2.3064,4.0043 4.3275,7.4897 4.4913,7.7453 l 0.29781,0.46472 h -61.38 z m 20.271,-2.8563 c 1.3267,-0.36319 3.2912,-1.6609 4.1704,-2.755 1.9097,-2.3764 2.5411,-5.2736 1.7833,-8.1836 -1.1287,-4.3345 -5.6034,-7.2432 -10.005,-6.5035 -7.3153,1.2296 -10.168,10.025 -4.9453,15.245 2.3488,2.3476 5.5716,3.1347 8.9963,2.1972 z"
                 inkscape:connector-curvature="0" />
              <path
                 id="path145"
                 style="paint-order:normal"
                 d="m -646.1,414.15 c 0,-2.0795 0.50297,-6.9682 1.0512,-10.218 1.3466,-7.9813 3.7155,-15.454 7.2207,-22.778 1.8767,-3.9211 3.1057,-6.0657 5.8847,-10.269 5.3565,-8.1018 11.976,-15.105 19.819,-20.968 2.8697,-2.1451 6.1314,-4.3333 6.4593,-4.3333 0.23541,0 6.918,11.516 6.8236,11.759 -0.0354,0.0911 -0.99373,0.79546 -2.1297,1.5652 -15.143,10.26 -25.794,25.845 -29.712,43.474 -0.89679,4.0349 -1.5788,9.2062 -1.5788,11.971 v 1.4539 H -646.1 Z"
                 inkscape:connector-curvature="0" />
            </g>
            <g
               id="g153"
               transform="matrix(0.77069,0,0,0.77069,794.01,-175.21)">
              <path
                 id="path149"
                 style="paint-order:normal"
                 d="m -490.23,415.67 c -0.0757,-0.0757 -0.13769,-0.79661 -0.13769,-1.602 0,-1.8644 -0.49471,-6.1734 -1.0452,-9.1038 -3.5477,-18.886 -14.547,-35.594 -30.393,-46.166 -1.0549,-0.70387 -1.9466,-1.3553 -1.9814,-1.4475 -0.0827,-0.21899 6.5187,-11.643 6.7795,-11.732 0.26593,-0.091 3.8354,2.2604 6.7188,4.4262 11.746,8.8224 21.267,20.951 27.019,34.418 3.8484,9.01 6.2783,19.348 6.6755,28.402 l 0.12913,2.9432 h -6.8136 c -3.7475,0 -6.8756,-0.062 -6.9513,-0.1377 z"
                 inkscape:connector-curvature="0" />
              <path
                 id="path151"
                 style="paint-order:normal"
                 d="m -557.45,415.35 c 0.16549,-0.25559 6.9762,-12.036 15.135,-26.179 8.1588,-14.143 14.943,-25.876 15.076,-26.073 0.21968,-0.32555 0.40296,-0.2485 1.9979,0.83986 5.9473,4.0583 11.582,9.3731 15.695,14.803 7.3212,9.6659 12.132,22.247 12.873,33.666 0.0664,1.0224 0.16489,2.2074 0.21893,2.6334 l 0.0983,0.77453 h -61.395 z m 24.841,-3.1924 c 2.1948,-0.66994 4.4487,-2.6374 5.3988,-4.7126 1.6304,-3.5613 0.8556,-7.5904 -1.9797,-10.295 -4.4992,-4.2915 -11.64,-2.9173 -14.346,2.7608 -0.60038,1.2599 -0.63974,1.4887 -0.63974,3.7177 0,2.2828 0.0274,2.4313 0.70374,3.8153 2.0061,4.1053 6.4863,6.0493 10.863,4.7135 z m 12.766,-20.197 c 2.6797,-0.69797 4.7599,-2.3514 5.918,-4.704 1.3234,-2.6883 1.2927,-5.3212 -0.0949,-8.1388 -1.8868,-3.831 -6.3835,-5.7113 -10.597,-4.4314 -2.7414,0.83268 -5.134,3.2069 -5.9288,5.8832 -0.46396,1.5623 -0.40016,4.2036 0.13649,5.65 1.6431,4.4285 6.1676,6.8868 10.567,5.741 z"
                 inkscape:connector-curvature="0" />
            </g>
            <g
               id="g159"
               transform="matrix(0.77069,0,0,0.77069,794.01,-175.21)">
              <path
                 id="path155"
                 style="paint-order:normal"
                 d="m -520.47,484.5 c -1.846,-3.2222 -3.3547,-5.937 -3.3526,-6.0328 0.002,-0.0958 0.97574,-0.8126 2.1638,-1.5929 10.554,-6.931 19.719,-17.747 25.081,-29.597 3.6041,-7.9663 5.9683,-17.7 6.2623,-25.783 l 0.0526,-1.4458 13.838,-0.1088 -0.13658,2.7536 c -0.96077,19.371 -9.2719,38.845 -22.651,53.074 -5.0195,5.3383 -10.34,9.788 -16.307,13.638 -0.82712,0.53372 -1.5242,0.96657 -1.5491,0.96188 -0.0249,-0.005 -1.5555,-2.6449 -3.4015,-5.8671 z"
                 inkscape:connector-curvature="0" />
              <path
                 id="path157"
                 style="paint-order:normal"
                 d="m -536.75,456.24 c -5.3116,-9.226 -10.237,-17.75 -10.945,-18.943 -0.70812,-1.1928 -3.0765,-5.2823 -5.263,-9.0878 -2.1865,-3.8055 -4.1574,-7.2212 -4.3798,-7.5904 l -0.40428,-0.67126 h 19.277 l -0.86547,0.98107 c -1.8761,2.1267 -2.7733,5.032 -2.3151,7.4961 1.1608,6.2422 7.5287,9.4169 13.148,6.5548 1.0661,-0.54304 2.8732,-2.266 3.4992,-3.3363 2.0132,-3.442 1.3863,-8.2079 -1.4408,-10.954 l -0.7641,-0.74209 h 30.799 l -0.0899,1.2909 c -0.36656,5.2638 -1.0585,9.5609 -2.2202,13.788 -3.9612,14.413 -12.472,26.637 -24.796,35.615 -1.3549,0.98707 -2.7151,1.9248 -3.0227,2.0838 l -0.55919,0.28917 z m 16.479,4.0381 c 5.6979,-2.6726 7.0918,-9.9564 2.7553,-14.398 -4.8168,-4.9337 -13.024,-2.9306 -15.029,3.6678 -0.65902,2.1697 -0.48524,4.3873 0.4997,6.3766 1.1681,2.3592 2.8352,3.8545 5.2485,4.7079 0.96396,0.34083 1.5972,0.41347 3.167,0.36327 1.6964,-0.0542 2.1512,-0.15143 3.3581,-0.7175 z"
                 inkscape:connector-curvature="0" />
            </g>
            <g
               id="g165"
               transform="matrix(0.77069,0,0,0.77069,794.01,-175.21)">
              <path
                 id="path161"
                 style="paint-order:normal"
                 d="m -567,482.6 c -6.0989,-0.57707 -12.801,-2.1885 -18.448,-4.4353 -2.874,-1.1436 -6.3374,-2.8309 -6.3374,-3.0874 0,-0.11953 6.7693,-11.945 15.043,-26.28 8.2736,-14.334 15.128,-26.218 15.232,-26.408 0.14866,-0.27075 0.92529,0.93088 3.5975,5.5662 1.8744,3.2513 3.4346,5.9729 3.4672,6.0479 0.0326,0.075 -0.55662,0.18585 -1.3093,0.24627 -1.9154,0.15375 -4.0508,1.2309 -5.4284,2.7382 -4.9089,5.3711 -2.0758,13.681 5.1204,15.02 1.6123,0.29984 3.7482,-0.0234 5.3741,-0.81321 1.0712,-0.52036 3.0877,-2.307 3.735,-3.3091 0.28276,-0.43775 0.68754,0.21617 8.1977,13.243 4.3451,7.5371 7.9002,13.808 7.9002,13.935 0,0.55105 -7.2976,3.6457 -11.773,4.9925 -6.3083,1.8984 -10.453,2.4988 -17.763,2.5735 -3.1239,0.0319 -6.0981,0.0184 -6.6093,-0.03 z m -3.537,-4.5908 c 2.583,-0.80393 4.5022,-2.475 5.6675,-4.9348 0.61538,-1.299 0.65783,-1.5352 0.65783,-3.6606 0,-2.1278 -0.042,-2.3605 -0.66123,-3.6679 -2.9578,-6.2442 -11.245,-7.1579 -15.394,-1.6973 -3.1119,4.0955 -2.0239,10.116 2.3335,12.912 2.1814,1.3998 4.9883,1.7975 7.3963,1.0481 z"
                 inkscape:connector-curvature="0" />
              <path
                 id="path163"
                 style="paint-order:normal"
                 d="m -567,502.64 c -0.39759,-0.0453 -1.7453,-0.17884 -2.9948,-0.29688 -5.6512,-0.53379 -12.097,-1.9238 -17.993,-3.8804 -5.7804,-1.918 -13.889,-5.566 -13.76,-6.1912 0.0294,-0.14365 1.5521,-2.8556 3.3836,-6.0266 l 3.3301,-5.7654 2.3995,1.2023 c 7.548,3.782 16.264,6.2225 25.119,7.0333 2.9477,0.2699 9.4736,0.26558 12.496,-0.008 8.7456,-0.79249 17.446,-3.2301 24.943,-6.9879 l 2.4858,-1.2461 3.4532,5.9908 c 1.8992,3.295 3.4127,6.0313 3.3633,6.0808 -0.0495,0.0494 -1.5282,0.78276 -3.286,1.6296 -8.882,4.2788 -17.61,6.8491 -27.448,8.0828 -2.4375,0.30567 -13.719,0.58463 -15.491,0.38302 z"
                 inkscape:connector-curvature="0" />
            </g>
            <g
               id="g171"
               transform="matrix(0.77069,0,0,0.77069,794.01,-175.21)">
              <path
                 id="path167"
                 style="paint-order:normal"
                 d="m -607.1,489.39 c -5.1312,-3.2446 -9.1529,-6.5168 -14.127,-11.495 -5.6615,-5.6652 -9.2207,-10.177 -12.911,-16.366 -7.0389,-11.806 -11.341,-25.771 -11.903,-38.639 l -0.12857,-2.9432 h 13.839 l 0.13421,2.7367 c 0.41945,8.5536 2.9448,18.051 7.0338,26.454 5.3543,11.002 14.267,21.223 24.188,27.739 1.1881,0.78026 2.1602,1.5116 2.1602,1.6252 2e-5,0.11359 -1.5177,2.8289 -3.3726,6.034 l -3.3727,5.8275 z"
                 inkscape:connector-curvature="0" />
              <path
                 id="path169"
                 style="paint-order:normal"
                 d="m -597.37,471.86 c -7.9,-5.256 -14.752,-12.478 -19.764,-20.831 -4.9254,-8.2081 -8.2446,-18.611 -8.8309,-27.677 -0.0661,-1.0224 -0.16444,-2.2074 -0.21848,-2.6334 l -0.0982,-0.77453 h 30.762 l -1.0289,0.96237 c -0.66168,0.61893 -1.3035,1.518 -1.7984,2.5194 -0.75409,1.5258 -0.76954,1.605 -0.76954,3.943 0,2.295 0.0268,2.4409 0.70374,3.826 0.90349,1.8489 2.3924,3.3393 4.2489,4.2531 1.3894,0.6839 1.5275,0.70954 3.821,0.70954 2.239,0 2.4604,-0.0383 3.7476,-0.64817 4.6792,-2.217 6.5897,-7.5618 4.3379,-12.136 -0.35169,-0.71437 -1.1188,-1.7782 -1.7048,-2.3642 l -1.0653,-1.0653 h 10.059 c 5.5324,0 10.018,0.0697 9.9687,0.1549 -0.0496,0.0852 -6.8981,11.959 -15.219,26.386 -8.3209,14.427 -15.191,26.3 -15.266,26.384 -0.0757,0.0842 -0.92378,-0.36989 -1.8846,-1.0092 z m -7.7985,-14.968 c 5.7326,-1.2057 8.8216,-7.3986 6.3026,-12.635 -0.73768,-1.5335 -1.9529,-2.9332 -3.2813,-3.7791 -2.4098,-1.5347 -5.9026,-1.762 -8.4862,-0.55231 -5.6962,2.6672 -7.0917,9.9553 -2.7564,14.396 2.183,2.236 5.2517,3.1956 8.2214,2.571 z"
                 inkscape:connector-curvature="0" />
            </g>
          </g>
          <g
             id="g197"
             transform="matrix(0.58355532,0,0,0.58355532,-1697.7709,-457.37304)">
            <g
               id="g181"
               transform="matrix(0.36327,0,0,0.36327,219.19,54.92)">
              <circle
                 id="circle175"
                 r="99.959999"
                 cy="623.91998"
                 cx="422.54001"
                 style="fill:#ff4545" />
              <path
                 id="path177"
                 d="m 422.54,523.97 a 100,100 0 1 0 99.95,99.95 100,100 0 0 0 -99.95,-99.95 z m 0,186.62 a 86.67,86.67 0 1 1 86.67,-86.67 86.67,86.67 0 0 1 -86.67,86.67 z"
                 inkscape:connector-curvature="0"
                 style="opacity:0.1;fill:#3f3d56" />
              <path
                 id="path179"
                 style="fill:#ffffff;paint-order:normal"
                 d="m 400.65,662.65 -0.082,-32.616 -19.489,-0.1706 v -23.506 h 19.584 l 0.15398,-11.677 c 0.1332,-10.114 0.24004,-12.066 0.7975,-14.581 3.1189,-14.069 13.649,-22.862 29.128,-24.322 3.3738,-0.31814 15.504,-0.0268 22.252,0.53447 l 2.4965,0.20763 v 22.092 l -9.9055,0.12354 c -6.472,0.0807 -10.309,0.2565 -11.069,0.50715 -1.7199,0.56687 -3.7373,2.0258 -4.6417,3.3568 -1.5414,2.2683 -1.7644,4.0788 -1.7644,14.323 v 9.4352 h 12.241 c 9.5854,0 12.238,0.0873 12.227,0.40266 -0.007,0.22146 -0.70335,5.4762 -1.546,11.677 l -1.5321,11.275 -21.39,0.1698 v 65.384 h -27.378 z"
                 inkscape:connector-curvature="0" />
            </g>
            <g
               id="g195"
               transform="matrix(0.41552,0,0,0.41552,54.432,-293.3)">
              <circle
                 id="circle183"
                 r="99.959999"
                 cy="696.03998"
                 cx="543.88"
                 style="fill:#ff4545" />
              <path
                 id="path185"
                 d="m 543.88,596.09 a 100,100 0 1 0 99.95,99.95 100,100 0 0 0 -99.95,-99.95 z m 0,186.62 a 86.67,86.67 0 1 1 86.67,-86.67 86.67,86.67 0 0 1 -86.67,86.67 z"
                 inkscape:connector-curvature="0"
                 style="opacity:0.1" />
              <g
                 id="g193"
                 transform="matrix(1.8405,0,0,1.8405,1180.9,-721.39)"
                 style="fill:#ffffff">
                <path
                   id="path187"
                   style="paint-order:normal"
                   d="m -347.8,787.26 c -1.0137,-0.1314 -2.4814,-0.48063 -3.4375,-0.81796 -5.7105,-2.0148 -9.7736,-6.7188 -10.959,-12.687 -0.29844,-1.503 -0.29762,-4.5684 0.002,-6.0762 0.74439,-3.7506 2.6077,-6.9897 5.4646,-9.4992 2.0942,-1.8396 4.7678,-3.165 7.6464,-3.7906 1.4648,-0.31835 4.9904,-0.31982 6.471,-0.003 3.3682,0.7214 6.1179,2.2033 8.505,4.5837 2.472,2.465 4.0901,5.5526 4.6768,8.9239 0.25075,1.4407 0.24965,4.1841 -0.002,5.6399 -1.3859,8.0088 -8.4193,13.891 -16.492,13.793 -0.825,-0.01 -1.6688,-0.0401 -1.875,-0.0668 z m 4.5197,-5.6766 c 2.0819,-0.4547 4.0212,-1.5835 5.6297,-3.2769 1.6147,-1.6999 2.6253,-3.9001 2.93,-6.3794 0.27041,-2.2004 -0.26784,-4.7694 -1.4292,-6.8214 -1.0396,-1.8369 -3.3341,-3.8625 -5.3105,-4.6882 -2.4619,-1.0285 -5.463,-1.1311 -7.986,-0.27293 -3.5505,1.2076 -6.2042,4.0745 -7.2444,7.8265 -0.31937,1.152 -0.31937,4.348 0,5.5 1.074,3.8738 3.8249,6.7564 7.567,7.9291 1.8366,0.57557 3.7698,0.6362 5.8435,0.18327 z"
                   inkscape:connector-curvature="0" />
                <path
                   id="path189"
                   style="paint-order:normal"
                   d="m -329.2,756.46 c -0.87856,-0.33777 -1.8201,-1.2109 -2.2502,-2.0868 -0.29506,-0.60084 -0.35005,-0.87034 -0.35005,-1.7155 0,-0.88166 0.0498,-1.1037 0.41247,-1.8405 1.2087,-2.4553 4.3528,-3.055 6.4344,-1.2273 0.25326,0.22237 0.64444,0.778 0.86929,1.2347 0.35876,0.72874 0.40882,0.9532 0.40882,1.833 0,0.84183 -0.0554,1.1154 -0.34527,1.7057 -0.94733,1.929 -3.2212,2.8495 -5.1795,2.0966 z"
                   inkscape:connector-curvature="0" />
                <path
                   id="path191"
                   style="paint-order:normal"
                   d="m -361.74,803.96 c -2.3864,-0.27318 -4.6434,-0.94324 -6.7132,-1.993 -1.8372,-0.93181 -3.1775,-1.8959 -4.7608,-3.4243 -3.0928,-2.9855 -4.9013,-6.419 -5.731,-10.88 -0.21875,-1.1762 -0.23247,-2.1757 -0.23247,-16.938 0,-14.762 0.0137,-15.761 0.23247,-16.938 0.83586,-4.4944 2.6413,-7.9026 5.806,-10.96 3.1916,-3.0835 7.0019,-4.8466 11.55,-5.3446 1.6691,-0.18275 29.911,-0.18217 31.572,6.4e-4 5.9242,0.65177 11.064,3.7693 14.308,8.679 1.3647,2.0654 2.2862,4.2948 2.8676,6.9375 l 0.28875,1.3125 v 32.625 l -0.28875,1.3125 c -0.58139,2.6427 -1.5029,4.8721 -2.8676,6.9375 -3.2574,4.93 -8.4716,8.0757 -14.388,8.6802 -1.5712,0.16054 -30.234,0.15375 -31.643,-0.007 z m 32.077,-5.551 c 2.9203,-0.50173 5.2834,-1.6982 7.418,-3.7559 1.8581,-1.7913 3.131,-3.9425 3.845,-6.498 l 0.34718,-1.2428 v -32.375 L -318.4,753.2945 c -0.71393,-2.5556 -1.9868,-4.7068 -3.845,-6.498 -2.1326,-2.0558 -4.5878,-3.2985 -7.4329,-3.7623 -1.6781,-0.27353 -30.765,-0.27414 -32.333,-6.8e-4 -1.9684,0.34326 -4.069,1.1779 -5.579,2.2169 -3.267,2.2478 -5.5303,5.9607 -6.0215,9.8783 -0.17551,1.3997 -0.17551,29.792 0,31.192 0.37999,3.0305 1.7871,5.9256 3.9337,8.0938 2.0772,2.0981 4.6652,3.4698 7.5194,3.9855 1.5216,0.27491 30.9,0.28293 32.495,0.009 z"
                   inkscape:connector-curvature="0" />
              </g>
            </g>
          </g>
          <g
             id="g239"
             transform="matrix(0.60620306,0,0,0.60620306,-1759.4266,-508.33532)">
            <path
               id="path199"
               d="m 65.921,266.01 a 2.5327,2.5327 0 0 1 1.469,0.32816 c 0.43703,0.29928 0.71248,0.82361 0.99364,1.3115 a 15.689,15.689 0 0 0 4.2738,4.8276 c 1.2699,0.93031 2.8844,2.0903 2.6671,3.8056 a 5.1436,5.1436 0 0 1 -0.619,1.6064 c -1.1715,2.3649 -4.3684,4.1924 -4.0539,6.8909 -1.1639,-1.9485 0.39291,-2.912 -0.77102,-4.8606 -0.5543,-0.92795 -1.5172,-1.9754 -2.3541,-1.3927 -0.2802,0.19512 -0.4642,0.54509 -0.75595,0.71629 -0.69618,0.40853 -1.4368,-0.37248 -2.0531,-0.92568 -2.125,-1.9076 -5.1469,-1.4078 -7.7913,-0.81348 -1.2484,0.28059 -2.6196,0.64874 -3.3576,1.8419 -0.97029,1.5688 0.92186,3.263 1.3999,5.0366 a 0.96644,0.96644 0 0 1 -1.0372,1.2028 c -0.79345,-0.0783 -1.7334,-0.14242 -1.7803,-0.4906 -0.99828,0.0355 -2.2215,-0.0776 -2.6492,-1.117 a 4.3709,4.3709 0 0 1 -0.20505,-1.2712 c -0.15699,-1.7461 -0.89807,-3.3391 -1.389,-5.001 -0.49095,-1.6619 -0.70442,-3.6095 0.12409,-5.0829 a 5.8814,5.8814 0 0 1 1.0855,-1.3192 c 4.7016,-4.5499 10.883,-5.3003 16.804,-5.2935 z"
               inkscape:connector-curvature="0"
               style="fill:#2f2e41;stroke-width:0.29609001" />
            <g
               id="g207"
               style="fill:#ffb8b8">
              <path
                 id="path201"
                 d="m 53.19,288.19 c 0,0 1.0225,8.521 -2.7267,9.2027 -3.7492,0.68167 3.4084,12.27 3.4084,12.27 l 17.042,2.045 -4.0901,-13.634 c 0,0 -2.7267,-1.0225 -1.0225,-7.8393 1.7042,-6.8168 -12.611,-2.045 -12.611,-2.045 z"
                 inkscape:connector-curvature="0"
                 style="stroke-width:0.29609001" />
              <polygon
                 id="polygon203"
                 points="51.633,632.63 75.806,632.63 68.9,569.32 47.028,569.32 "
                 transform="matrix(0.29609,0,0,0.29609,28.87,266.01)" />
              <polygon
                 id="polygon205"
                 points="227.76,502.55 254.23,491.04 243.87,447.3 224.3,449.6 "
                 transform="matrix(0.29609,0,0,0.29609,28.87,266.01)" />
            </g>
            <g
               id="g215"
               style="stroke-width:0.29609001">
              <path
                 id="path209"
                 d="m 37.682,363 c 0,0 0.34084,19.769 2.3859,26.245 2.04506,6.476 1.7042,6.8168 1.3634,7.8393 -0.34083,1.0225 -0.68168,0.34084 -0.68168,2.045 0,1.70416 -0.68168,28.631 0,31.016 0.68168,2.3859 -2.045,6.476 0,6.8168 2.045,0.3408 11.589,0 11.929,-2.045 0.34,-2.045 -2.7267,-2.7267 -1.3634,-4.0901 1.3634,-1.3634 3.4084,-29.312 3.4084,-29.312 l 4.7718,-19.428 8.8618,-10.225 h 18.746 l 5.7943,22.495 c 0,0 -2.3859,6.476 -0.68168,6.476 1.7042,0 11.929,2.045 11.929,-5.4534 0,-7.4985 -3.4084,-29.653 -4.0901,-30.335 -0.68167,-0.68168 0.34084,-3.0676 -0.68168,-4.0901 -1.02252,-1.0225 -12.952,-8.1802 -17.383,-9.5435 -4.4309,-1.3634 -10.647,-2.986 -10.647,-2.986 z"
                 inkscape:connector-curvature="0"
                 style="fill:#2f2e41" />
              <path
                 id="path211"
                 d="m 104.15,408.67 c 0,0 -5.1126,-1.7042 -7.4985,3.4084 -2.3859,5.1126 -1.3634,6.476 -1.3634,6.476 0,0 7.8393,2.7267 9.2027,1.3634 0.59316,-0.59318 2.4767,-0.79923 4.4155,-0.84274 2.9529,-0.0662 3.7385,-4.2439 0.94971,-5.2168 q -0.12479,-0.0435 -0.25262,-0.0756 c -2.7267,-0.68167 -5.4534,-5.1126 -5.4534,-5.1126 z"
                 inkscape:connector-curvature="0"
                 style="fill:#2f2e41" />
              <circle
                 id="circle213"
                 r="10.225"
                 cy="283.59"
                 cx="-61.959999"
                 transform="scale(-1,1)"
                 style="fill:#ffb8b8" />
            </g>
            <g
               id="g223"
               style="stroke-width:0.29609001">
              <path
                 id="path217"
                 d="m 47.566,301.65 c 0,0 16.701,3.4084 20.791,-2.045 4.0901,-5.4534 5.7943,15.338 5.7943,15.338 l 2.045,21.814 -3.0676,11.929 c 0,0 -16.019,12.952 -21.132,13.974 -5.1126,1.0225 -12.952,1.7042 -12.952,1.7042 0,0 2.3859,-37.833 2.3859,-38.515 0,-0.682 6.1351,-24.2 6.1351,-24.2 z"
                 inkscape:connector-curvature="0"
                 style="fill:#ffffff" />
              <path
                 id="path219"
                 d="m 52.645,295.26 c 0,0 -3.7159,-2.1286 -4.7384,-0.0836 -1.0225,2.045 -10.566,7.1576 -11.589,7.1576 -1.0225,0 2.045,28.29 0.68168,31.698 -1.3634,3.4084 -7.8393,28.29 -4.0901,30.335 3.7492,2.045 1.0225,-2.045 4.7718,3.0676 3.7492,5.1126 22.155,5.1126 23.177,3.0676 1.0225,-2.045 -8.1802,-17.383 -6.476,-31.698 1.7042,-14.315 4.4309,-34.084 2.045,-36.811 -2.3859,-2.7267 -3.7826,-6.7332 -3.7826,-6.7332 z"
                 inkscape:connector-curvature="0"
                 style="fill:#575a89" />
              <path
                 id="path221"
                 d="m 64.949,297.56 0.47475,-1.6338 c 0,0 14.181,4.7014 14.863,7.769 0.68168,3.0676 0.34084,24.54 -2.045,26.245 -2.38584,1.705 -5.7943,4.4309 -3.4084,8.521 2.3859,4.0901 5.1126,8.521 7.1576,8.8618 2.0451,0.34084 5.7943,2.7267 4.7718,5.1126 -1.0225,2.3859 -13.293,-2.045 -13.293,-2.045 0,0 -8.1802,-6.1351 -7.8393,-15.679 0.34084,-9.5435 -0.68168,-37.152 -0.68168,-37.152 z"
                 inkscape:connector-curvature="0"
                 style="fill:#575a89" />
            </g>
            <g
               id="g237"
               style="stroke-width:0.29609001">
              <path
                 id="path225"
                 d="m 76.878,337.78 -8.1802,15.338 c 0,0 -11.929,12.27 -5.1126,13.634 6.8168,1.3634 10.566,-11.248 10.566,-11.248 l 8.8618,-12.611 z"
                 inkscape:connector-curvature="0"
                 style="fill:#ffb8b8" />
              <path
                 id="path227"
                 d="m 65.423,268.68 a 2.3208,2.3208 0 0 1 1.1958,0.23193 2.7872,2.7872 0 0 1 0.80887,0.92698 11.776,11.776 0 0 0 3.4791,3.4121 c 1.0338,0.65755 2.348,1.4774 2.1712,2.6898 a 3.3634,3.3634 0 0 1 -0.50389,1.1354 8.9311,8.9311 0 0 0 -1.0852,5.5667 l -2.8425,-4.1316 c -0.45123,-0.65586 -1.2351,-1.3962 -1.9163,-0.98433 -0.22812,0.13792 -0.37789,0.38527 -0.6154,0.50628 -0.56671,0.28874 -1.1696,-0.26326 -1.6713,-0.65426 -1.7298,-1.3483 -4.1898,-0.99507 -6.3424,-0.57497 -1.0162,0.19832 -2.1325,0.45852 -2.7332,1.3018 -0.99832,1.4014 0.0441,3.4264 -0.53853,5.0454 a 1.4874,1.4874 0 0 1 -0.61543,-0.98218 c -0.81264,0.0251 -1.8084,-0.0548 -2.1566,-0.78949 a 2.7203,2.7203 0 0 1 -0.16692,-0.89845 c -0.1278,-1.2341 -0.73106,-2.36 -1.1307,-3.5346 -0.39966,-1.1746 -0.57343,-2.5512 0.10101,-3.5926 a 4.3469,4.3469 0 0 1 0.88361,-0.93244 c 3.8273,-3.2159 8.8594,-3.7462 13.679,-3.7414 z"
                 inkscape:connector-curvature="0"
                 style="fill:#2f2e41" />
              <path
                 id="path229"
                 d="m 76.878,302.33 3.1757,0.84293 c 0,0 7.3904,18.926 5.6862,31.878 -1.7042,12.952 -2.7267,10.225 -2.7267,10.225 0,0 -2.7267,-6.1351 -8.8618,-4.7718 z"
                 inkscape:connector-curvature="0"
                 style="fill:#575a89" />
              <path
                 id="path231"
                 d="m 43.267,450.85 c -0.82193,1.1169 -0.65713,2.7136 -1.3852,3.8938 -0.63109,1.0231 -1.8205,1.5595 -2.6098,2.466 a 6.6106,6.6106 0 0 0 -0.67099,0.96521 c -0.73226,1.2266 -1.3275,2.7986 -0.60628,4.0317 0.58015,0.99197 1.7996,1.3797 2.918,1.6439 1.4136,0.33399 2.8823,0.60127 4.3121,0.34605 1.4299,-0.25521 2.8273,-1.1308 3.3371,-2.4908 a 9.623,9.623 0 0 1 0.35682,-1.0069 c 0.775,-1.5257 3.2059,-1.5422 3.9991,-3.0586 0.55507,-1.0612 0.0448,-2.3439 -0.46521,-3.4275 l -1.5578,-3.3094 c -0.51695,-1.0982 -2.6126,-0.46666 -3.7051,-0.72984 -1.4249,-0.3432 -2.8977,-0.72137 -3.9228,0.67639 z"
                 inkscape:connector-curvature="0"
                 style="fill:#2f2e41" />
              <path
                 id="path233"
                 d="m 31.887,344.6 14.315,22.155 c 0,0 8.8618,11.248 11.589,6.1351 2.7267,-5.1126 -9.5435,-13.634 -9.5435,-13.634 l -9.2027,-17.042 z"
                 inkscape:connector-curvature="0"
                 style="fill:#ffb8b8" />
              <path
                 id="path235"
                 d="m 39.045,303.01 -2.7267,-0.68169 c 0,0 -5.4534,1.7042 -6.8168,8.8618 -1.3634,7.1576 -0.34084,35.788 1.3634,36.129 1.70424,0.341 8.417,-4.9852 9.4915,-3.8559 1.0745,1.1293 -2.3339,-4.6651 -1.3114,-7.7326 1.0225,-3.0676 10e-6,-32.721 10e-6,-32.721 z"
                 inkscape:connector-curvature="0"
                 style="fill:#575a89" />
            </g>
          </g>
        </g>
      </g>
    </g>
  </g>
</svg>
