<?xml version="1.0" encoding="UTF-8" standalone="no"?>
<!-- Created with Inkscape (http://www.inkscape.org/) -->

<svg
   xmlns:dc="http://purl.org/dc/elements/1.1/"
   xmlns:cc="http://creativecommons.org/ns#"
   xmlns:rdf="http://www.w3.org/1999/02/22-rdf-syntax-ns#"
   xmlns:svg="http://www.w3.org/2000/svg"
   xmlns="http://www.w3.org/2000/svg"
   xmlns:sodipodi="http://sodipodi.sourceforge.net/DTD/sodipodi-0.dtd"
   xmlns:inkscape="http://www.inkscape.org/namespaces/inkscape"
   width="198.81886"
   height="198.81886"
   version="1.1"
   viewBox="0 0 198.81887 198.81887"
   xml:space="preserve"
   id="svg14"
   sodipodi:docname="Logo-vermelho.svg"
   inkscape:version="0.92.5 (2060ec1f9f, 2020-04-08)"><defs
     id="defs18" /><sodipodi:namedview
     pagecolor="#ffffff"
     bordercolor="#666666"
     borderopacity="1"
     objecttolerance="10"
     gridtolerance="10"
     guidetolerance="10"
     inkscape:pageopacity="0"
     inkscape:pageshadow="2"
     inkscape:window-width="1366"
     inkscape:window-height="705"
     id="namedview16"
     showgrid="false"
     inkscape:zoom="1.7132486"
     inkscape:cx="39.244562"
     inkscape:cy="131.6957"
     inkscape:window-x="-8"
     inkscape:window-y="399"
     inkscape:window-maximized="1"
     inkscape:current-layer="svg14" /><metadata
     id="metadata2"><rdf:RDF><cc:Work
         rdf:about=""><dc:format>image/svg+xml</dc:format><dc:type
           rdf:resource="http://purl.org/dc/dcmitype/StillImage" /><dc:title /></cc:Work></rdf:RDF></metadata><g
     transform="scale(2.4852357)"
     id="g4"><path
       style="fill:#ffffff"
       inkscape:connector-curvature="0"
       d="M 40,0 C 62.091,0 80,17.909 80,40 80,62.091 62.091,80 40,80 17.909,80 0,62.091 0,40 0,17.909 17.909,0 40,0 Z"
       id="path2" /></g><g
     transform="matrix(0.78092749,0,0,0.78092749,1.1312793,18.731218)"
     id="g12"><g
       style="fill:#ff4545"
       id="g10"><path
         inkscape:connector-curvature="0"
         d="m 164.78,57.578 -1.246,-1.445 C 137.436,26.039 113.311,28.32 112.292,28.422 c -0.012,0 -0.024,0.012 -0.035,0.012 -5.574,0.117 -10.078,4.668 -10.078,10.269 0,1.434 0.3,2.852 0.871,4.156 0,0 -18.485,48.289 -18.457,48.36 0.004,0.015 0.039,5.535 0.039,5.535 0,0.508 0.179,0.988 0.59,1.285 0.277,0.195 0.535,0.301 0.859,0.301 0.168,0 0.348,-0.031 0.508,-0.082 L 118.39,87.699 c 0.593,1.906 1.609,3.649 3.847,3.649 1.317,0 2.379,-0.407 3.16,-1.207 1.239,-1.27 1.426,-3.164 1.422,-5.243 l 32.789,-10.89 c 2.629,-0.746 7.582,-3.797 7.481,-9.988 -0.035,-2.356 -0.821,-4.563 -2.309,-6.442 z m -52.312,-26 c 0.031,0 0.054,-0.015 0.086,-0.015 0.027,0 0.054,0.011 0.086,0.007 0.218,-0.027 21.511,-1.91 45.132,22.946 -3.23,-0.149 -6.062,0.898 -8.097,3.121 -1.328,1.453 -2.18,3.293 -2.5,5.218 -11.262,-13.343 -24.836,-20.382 -41.282,-21.542 -0.332,-0.825 -0.55,-1.696 -0.55,-2.61 0,-3.926 3.199,-7.125 7.125,-7.125 z M 87.8,91.754 115.202,81.895 c 0.566,-0.231 1.016,-0.286 1.234,-0.18 0.536,0.281 0.911,1.648 1.2,2.914 L 87.8,94.563 Z m 20.929,-12.152 c -3.98,0 -7.339,-2.18 -7.339,-4.766 0,-2.59 3.363,-4.77 7.339,-4.77 3.977,0 7.336,2.18 7.336,4.77 0,2.586 -3.359,4.766 -7.336,4.766 z m 14.399,8.324 c -0.063,0.066 -0.242,0.25 -0.891,0.25 -0.59,0 -1.054,-2.153 -1.332,-3.438 -0.508,-2.359 -1.039,-4.797 -2.996,-5.828 -0.051,-0.027 -0.113,-0.039 -0.168,-0.062 0.922,-1.184 1.492,-2.543 1.492,-4.012 0,-4.449 -4.613,-7.938 -10.5,-7.938 -5.89,0 -10.508,3.489 -10.508,7.938 0,3.426 2.75,6.262 6.7,7.391 l -16.094,5.789 12.562,-32.184 v 0.004 c 0,4.453 4.614,7.937 10.504,7.937 5.891,0 10.504,-3.488 10.504,-7.937 0,-4.449 -4.613,-7.934 -10.504,-7.934 -3.73,0 -6.941,1.403 -8.797,3.559 l 2.719,-6.969 c 16.371,1.196 29.731,8.676 40.758,22.754 l -19.238,6.922 c -0.004,0 -0.008,0.004 -0.016,0.008 -0.004,0.004 -0.015,0 -0.019,0.004 -3.883,1.504 -3.766,5.804 -3.672,9.258 0.043,1.726 0.097,3.871 -0.504,4.488 z m -18.574,-32.09 c 0,-2.582 3.359,-4.77 7.339,-4.77 3.977,0 7.336,2.184 7.336,4.77 0,2.586 -3.359,4.769 -7.336,4.769 -3.98,0 -7.339,-2.183 -7.339,-4.769 z m 54.121,15.141 -31.895,11.031 c 0.024,-2.324 0.313,-3.988 1.66,-3.988 h 0.004 l 20.59,-7.852 c 0.117,0.027 0.231,-0.141 0.352,-0.141 0.277,0 0.554,-0.179 0.808,-0.332 0.699,-0.418 0.969,-1.355 0.621,-2.09 -1.179,-2.511 -0.691,-5.445 1.196,-7.511 2.093,-2.285 5.394,-4.239 9.316,-1.071 h 0.012 l 1,0.864 c 1.008,1.273 1.554,2.672 1.582,4.32 0.086,5.281 -4.973,6.688 -5.246,6.77 z"
         id="path4" /><path
         inkscape:connector-curvature="0"
         d="m 57.32,113.1 v 7.16 H 36.863 v 8.301 h 18.774 v 6.621 H 36.863 v 9.496 h 20.891 v 7.16 H 28.348 V 113.1 Z m 31.645,0 14.488,38.738 H 94.609 L 91.68,143.213 H 77.191 l -3.039,8.625 H 65.527 L 80.23,113.1 Z m -4.504,9.547 -5.047,14.214 H 89.453 L 84.57,122.647 Z m 53.187,-9.547 v 7.16 h -11.613 v 31.578 H 117.52 V 120.26 h -11.614 v -7.16 z m 40.219,0 v 6.726 l -20.781,24.852 h 21.32 v 7.16 h -32.66 v -6.727 l 20.781,-24.851 h -19.156 v -7.16 z m 30.992,0 14.489,38.738 h -8.844 l -2.93,-8.625 h -14.488 l -3.039,8.625 h -8.625 L 200.125,113.1 Z m -4.504,9.547 -5.042,14.214 h 10.035 l -4.883,-14.214 z"
         id="path6" /><path
         inkscape:connector-curvature="0"
         d="m 53.961,174.8 c 0,0.695 -0.207,1.312 -0.625,1.851 -0.41,0.512 -0.973,0.911 -1.688,1.196 -0.718,0.285 -1.527,0.429 -2.429,0.429 -0.824,0 -1.629,-0.195 -2.406,-0.578 -0.778,-0.383 -1.434,-0.918 -1.965,-1.601 l 1.109,-1.039 c 0.922,1.109 2.008,1.664 3.262,1.664 0.551,0 1.054,-0.067 1.508,-0.2 0.503,-0.152 0.894,-0.363 1.168,-0.64 0.316,-0.305 0.472,-0.664 0.472,-1.082 0,-0.504 -0.156,-0.883 -0.472,-1.141 -0.266,-0.215 -0.661,-0.359 -1.18,-0.426 -0.305,-0.039 -0.805,-0.058 -1.496,-0.058 -1.274,0 -2.242,-0.231 -2.914,-0.696 -0.668,-0.464 -1.004,-1.148 -1.004,-2.05 0,-0.571 0.172,-1.114 0.508,-1.625 0.336,-0.512 0.8,-0.922 1.386,-1.223 0.61,-0.324 1.282,-0.484 2.024,-0.484 0.836,0 1.59,0.129 2.265,0.382 0.719,0.278 1.391,0.708 2.008,1.297 l -0.969,1.141 c -0.578,-0.469 -1.105,-0.793 -1.582,-0.977 -0.472,-0.187 -1.046,-0.277 -1.722,-0.277 -0.391,0 -0.754,0.078 -1.09,0.242 -0.336,0.16 -0.606,0.375 -0.805,0.649 -0.199,0.269 -0.297,0.554 -0.297,0.859 0,0.816 0.754,1.227 2.262,1.227 1.207,0 2.16,0.121 2.863,0.371 0.664,0.234 1.141,0.597 1.426,1.082 0.254,0.426 0.383,0.996 0.383,1.707 z m 6.906,3.476 c -0.996,0 -1.851,-0.175 -2.57,-0.519 -0.715,-0.348 -1.262,-0.848 -1.637,-1.504 -0.375,-0.656 -0.562,-1.438 -0.562,-2.352 v -6.492 h 1.539 v 6.492 c 0,0.914 0.277,1.61 0.84,2.094 0.558,0.484 1.355,0.727 2.39,0.727 1.035,0 1.832,-0.243 2.395,-0.727 0.558,-0.484 0.84,-1.18 0.84,-2.094 v -6.492 h 1.539 v 6.492 c 0,0.914 -0.188,1.696 -0.563,2.352 -0.375,0.656 -0.922,1.156 -1.64,1.504 -0.715,0.344 -1.571,0.519 -2.571,0.519 z m 11.082,-9.742 -0.586,-1.308 h 1.711 l 5.114,10.808 h -1.739 l -0.699,-1.555 h -3.23 c -0.61,0 -1.157,0.059 -1.641,0.172 -0.426,0.106 -0.781,0.243 -1.066,0.414 -0.258,0.153 -0.426,0.309 -0.512,0.469 l -0.274,0.5 h -1.679 z m 1.137,6.379 h 1.969 l -2.325,-4.484 -2.347,5.082 c 0.207,-0.18 0.527,-0.321 0.953,-0.426 0.484,-0.113 1.066,-0.172 1.75,-0.172 z m 14.527,-2.961 h 1.883 c 1.043,0 1.567,-0.504 1.567,-1.512 0,-0.519 -0.133,-0.898 -0.395,-1.128 -0.258,-0.235 -0.652,-0.352 -1.172,-0.352 h -3.902 v 3.418 c 0.293,-0.168 0.625,-0.289 0.996,-0.356 0.273,-0.046 0.617,-0.07 1.023,-0.07 z m -2.019,6.082 h -1.555 v -10.625 h 5.457 c 0.625,0 1.172,0.121 1.637,0.363 0.465,0.243 0.824,0.59 1.082,1.047 0.258,0.457 0.383,0.993 0.383,1.618 0,0.621 -0.125,1.164 -0.383,1.628 -0.258,0.465 -0.621,0.825 -1.09,1.075 -0.469,0.254 -1.012,0.379 -1.629,0.379 h -1.883 c -0.816,0 -1.488,0.14 -2.019,0.425 z m 10.808,0 h -1.523 v -10.625 h 1.523 z m 10.922,0 H 98.68 v -1.566 l 5.98,-7.492 h -5.652 v -1.567 h 7.789 v 1.508 l -6.18,7.562 h 6.707 z m 10.071,0 h -8.645 v -1.566 l 5.98,-7.492 h -5.652 v -1.567 h 7.789 v 1.508 l -6.179,7.562 h 6.707 z m 5.597,-9.5 -0.586,-1.308 h 1.711 l 5.113,10.808 h -1.738 l -0.699,-1.555 h -3.23 c -0.61,0 -1.157,0.059 -1.641,0.172 -0.426,0.106 -0.781,0.243 -1.067,0.414 -0.257,0.153 -0.429,0.309 -0.511,0.469 l -0.274,0.5 h -1.679 z m 1.137,6.379 h 1.965 l -2.321,-4.484 -2.347,5.082 c 0.207,-0.18 0.527,-0.321 0.953,-0.426 0.484,-0.113 1.066,-0.172 1.75,-0.172 z m 12.504,-1.137 v 2.703 h 6.555 v 1.555 h -8.106 v -10.625 h 7.477 v 1.567 h -5.926 v 3.218 c 0.297,-0.172 0.625,-0.285 0.984,-0.343 0.266,-0.047 0.61,-0.071 1.028,-0.071 h 2.32 v 1.582 h -2.32 c -0.391,0 -0.735,0.024 -1.028,0.071 -0.359,0.066 -0.687,0.179 -0.984,0.343 z m 18.117,-3.05 -3.633,4.343 -3.601,-4.343 v 7.308 h -1.524 v -9.129 l -1.238,-1.496 h 2.008 l 4.343,5.211 4.399,-5.211 h 2.008 l -1.239,1.496 v 9.129 h -1.523 z m 17.93,-1.95 -0.996,1.168 c -0.391,-0.398 -0.856,-0.711 -1.395,-0.941 -0.543,-0.227 -1.113,-0.34 -1.711,-0.34 -0.777,0 -1.488,0.176 -2.129,0.527 -0.64,0.352 -1.14,0.829 -1.504,1.438 -0.367,0.637 -0.554,1.344 -0.554,2.121 0,0.742 0.199,1.426 0.597,2.051 0.383,0.59 0.891,1.058 1.532,1.402 0.64,0.348 1.332,0.52 2.074,0.52 0.683,0 1.32,-0.145 1.906,-0.442 0.59,-0.293 1.078,-0.703 1.469,-1.222 l 0.953,1.296 c -0.539,0.606 -1.188,1.079 -1.942,1.415 -0.757,0.339 -1.554,0.507 -2.402,0.507 -1.055,0 -2.023,-0.257 -2.906,-0.769 -0.863,-0.496 -1.543,-1.172 -2.035,-2.039 -0.512,-0.883 -0.77,-1.848 -0.77,-2.903 0,-1.015 0.27,-1.953 0.813,-2.808 0.511,-0.817 1.207,-1.461 2.086,-1.942 0.879,-0.48 1.82,-0.718 2.828,-0.718 0.789,0 1.539,0.152 2.25,0.453 0.691,0.285 1.304,0.695 1.836,1.226 z m 5.84,-0.242 -0.582,-1.308 h 1.707 l 5.113,10.808 h -1.738 l -0.7,-1.555 h -3.23 c -0.61,0 -1.152,0.059 -1.637,0.172 -0.43,0.106 -0.785,0.243 -1.07,0.414 -0.254,0.153 -0.426,0.309 -0.512,0.469 l -0.269,0.5 h -1.684 z m 1.14,6.379 h 1.965 l -2.32,-4.484 -2.352,5.082 c 0.207,-0.18 0.527,-0.321 0.953,-0.426 0.485,-0.113 1.071,-0.172 1.754,-0.172 z m 15.352,-0.113 c 0,0.695 -0.211,1.312 -0.625,1.851 -0.41,0.512 -0.973,0.911 -1.688,1.196 -0.719,0.285 -1.527,0.429 -2.429,0.429 -0.829,0 -1.629,-0.195 -2.407,-0.578 -0.781,-0.383 -1.433,-0.918 -1.965,-1.601 l 1.11,-1.039 c 0.922,1.109 2.008,1.664 3.262,1.664 0.55,0 1.054,-0.067 1.507,-0.2 0.504,-0.152 0.895,-0.363 1.168,-0.64 0.317,-0.305 0.473,-0.664 0.473,-1.082 0,-0.504 -0.156,-0.883 -0.473,-1.141 -0.265,-0.215 -0.66,-0.359 -1.179,-0.426 -0.305,-0.039 -0.805,-0.058 -1.496,-0.058 -1.274,0 -2.243,-0.231 -2.915,-0.696 -0.667,-0.464 -1.003,-1.148 -1.003,-2.05 0,-0.571 0.168,-1.114 0.507,-1.625 0.336,-0.512 0.797,-0.922 1.387,-1.223 0.609,-0.324 1.281,-0.484 2.024,-0.484 0.835,0 1.589,0.129 2.265,0.382 0.719,0.278 1.391,0.708 2.008,1.297 l -0.969,1.141 c -0.582,-0.469 -1.105,-0.793 -1.582,-0.977 -0.472,-0.187 -1.051,-0.277 -1.722,-0.277 -0.391,0 -0.754,0.078 -1.09,0.242 -0.336,0.16 -0.606,0.375 -0.805,0.649 -0.199,0.269 -0.301,0.554 -0.301,0.859 0,0.816 0.758,1.227 2.266,1.227 1.207,0 2.16,0.121 2.863,0.371 0.664,0.234 1.141,0.597 1.426,1.082 0.254,0.426 0.383,0.996 0.383,1.707 z m 5.597,-6.266 -0.586,-1.308 h 1.711 l 5.114,10.808 h -1.739 l -0.699,-1.555 h -3.23 c -0.61,0 -1.157,0.059 -1.641,0.172 -0.426,0.106 -0.781,0.243 -1.066,0.414 -0.258,0.153 -0.426,0.309 -0.512,0.469 l -0.273,0.5 h -1.68 z m 1.137,6.379 h 1.969 l -2.324,-4.484 -2.348,5.082 c 0.207,-0.18 0.527,-0.321 0.953,-0.426 0.484,-0.113 1.067,-0.172 1.75,-0.172 z"
         id="path8" /></g></g></svg>