<?xml version="1.0" encoding="UTF-8" standalone="no"?>
<!-- Created with Inkscape (http://www.inkscape.org/) -->

<svg
   xmlns:dc="http://purl.org/dc/elements/1.1/"
   xmlns:cc="http://creativecommons.org/ns#"
   xmlns:rdf="http://www.w3.org/1999/02/22-rdf-syntax-ns#"
   xmlns:svg="http://www.w3.org/2000/svg"
   xmlns="http://www.w3.org/2000/svg"
   xmlns:sodipodi="http://sodipodi.sourceforge.net/DTD/sodipodi-0.dtd"
   xmlns:inkscape="http://www.inkscape.org/namespaces/inkscape"
   width="250"
   height="250"
   version="1.1"
   viewBox="0 0 250.00001 250.00001"
   xml:space="preserve"
   id="svg14"
   sodipodi:docname="Logo-vermelho3.svg"
   inkscape:version="0.92.5 (2060ec1f9f, 2020-04-08)"><defs
     id="defs18" /><sodipodi:namedview
     pagecolor="#ffffff"
     bordercolor="#666666"
     borderopacity="1"
     objecttolerance="10"
     gridtolerance="10"
     guidetolerance="10"
     inkscape:pageopacity="0"
     inkscape:pageshadow="2"
     inkscape:window-width="1366"
     inkscape:window-height="705"
     id="namedview16"
     showgrid="false"
     inkscape:zoom="1.7132486"
     inkscape:cx="79.448114"
     inkscape:cy="165.66782"
     inkscape:window-x="-8"
     inkscape:window-y="399"
     inkscape:window-maximized="1"
     inkscape:current-layer="g10" /><metadata
     id="metadata2"><rdf:RDF><cc:Work
         rdf:about=""><dc:format>image/svg+xml</dc:format><dc:type
           rdf:resource="http://purl.org/dc/dcmitype/StillImage" /><dc:title /></cc:Work></rdf:RDF></metadata><g
     transform="scale(3.125)"
     id="g4"
     style="fill:#ffffff;fill-opacity:1"><path
       style="fill:#ffffff;fill-opacity:1"
       inkscape:connector-curvature="0"
       d="M 40,0 C 62.091,0 80,17.909 80,40 80,62.091 62.091,80 40,80 17.909,80 0,62.091 0,40 0,17.909 17.909,0 40,0 Z"
       id="path2" /></g><g
     transform="matrix(0.98195853,0,0,0.98195853,1.4225,23.553121)"
     id="g12"><g
       style="fill:#ff4545"
       id="g10"><path
         inkscape:connector-curvature="0"
         d="m 190.0189,37.500662 -1.85972,-2.156736 C 149.20661,-9.5728846 113.19883,-6.1683772 111.67792,-6.0161371 c -0.0179,0 -0.0358,0.017911 -0.0522,0.017911 -8.31948,0.1746284 -15.041912,6.96722516 -15.041912,15.3269998 0,2.1403173 0.44776,4.2567533 1.30001,6.2030393 0,0 -27.589776,72.073765 -27.547984,72.179736 0.006,0.02239 0.05821,8.261266 0.05821,8.261266 0,0.758216 0.267167,1.47464 0.880605,1.917927 0.413436,0.291048 0.798514,0.449258 1.282101,0.449258 0.250748,0 0.519407,-0.04627 0.758215,-0.122389 l 47.464565,-15.75984 c 0.88508,2.844801 2.40151,5.446317 5.74184,5.446317 1.96569,0 3.55078,-0.607468 4.71646,-1.801509 1.84927,-1.895538 2.12838,-4.722429 2.12241,-7.825441 l 48.93923,-16.253874 c 3.92392,-1.113442 11.31652,-5.667213 11.16577,-14.907593 -0.0522,-3.516449 -1.22538,-6.810507 -3.4463,-9.615009 z M 111.94061,-1.3056481 c 0.0463,0 0.0806,-0.022388 0.12836,-0.022388 0.0403,0 0.0806,0.016418 0.12836,0.010448 0.32537,-0.040299 32.10625,-2.8507712 67.36178,34.2480601 -4.82094,-0.22239 -9.04784,1.340311 -12.08518,4.65825 -1.98211,2.168676 -3.25376,4.914968 -3.73138,7.788128 -16.8091,-19.9151 -37.06898,-30.421162 -61.61546,-32.15252 -0.49553,-1.231354 -0.8209,-2.531366 -0.8209,-3.8955563 0,-5.8597528 4.77466,-10.6344214 10.63442,-10.6344218 z M 75.122403,88.510063 116.02124,73.795009 c 0.84478,-0.344779 1.51643,-0.426869 1.84181,-0.268659 0.8,0.419407 1.35971,2.459723 1.79106,4.349292 L 75.122403,92.702637 Z M 106.35996,70.372591 c -5.94035,0 -10.953818,-3.25376 -10.953818,-7.113495 0,-3.865705 5.019438,-7.119465 10.953818,-7.119465 5.93587,0 10.94935,3.25376 10.94935,7.119465 0,3.859735 -5.01348,7.113495 -10.94935,7.113495 z m 21.49123,12.423989 c -0.094,0.09851 -0.36119,0.373138 -1.32986,0.373138 -0.8806,0 -1.57315,-3.213461 -1.98808,-5.131388 -0.75821,-3.520927 -1.55075,-7.159764 -4.47168,-8.698584 -0.0761,-0.0403 -0.16865,-0.05821 -0.25074,-0.09254 1.37613,-1.76718 2.22688,-3.795556 2.22688,-5.988112 0,-6.640357 -6.88513,-11.847865 -15.67178,-11.847865 -8.791112,0 -15.6837,5.207508 -15.6837,11.847865 0,5.113478 4.104512,9.34635 10.00007,11.03144 l -24.021078,8.640376 18.7494,-48.036241 v 0.006 c 0,6.646327 6.886618,11.846372 15.677738,11.846372 8.79262,0 15.67775,-5.206016 15.67775,-11.846372 0,-6.640357 -6.88513,-11.841895 -15.67775,-11.841895 -5.56721,0 -10.35979,2.094048 -13.129952,5.311987 l 4.058232,-10.401584 c 24.43454,1.785091 44.37502,12.949367 60.83337,33.961492 l -28.71369,10.331433 c -0.006,0 -0.0119,0.006 -0.0239,0.01194 -0.006,0.006 -0.0224,0 -0.0284,0.006 -5.79557,2.244796 -5.62094,8.662762 -5.48064,13.818031 0.0642,2.576142 0.14478,5.777663 -0.75225,6.698566 z M 100.12856,34.900639 c 0,-3.853765 5.01348,-7.119465 10.95383,-7.119465 5.93587,0 10.94935,3.25973 10.94935,7.119465 0,3.859735 -5.01348,7.117973 -10.94935,7.117973 -5.94035,0 -10.95383,-3.258238 -10.95383,-7.117973 z m 80.77832,22.598705 -47.60489,16.464323 c 0.0358,-3.468687 0.46717,-5.952291 2.47763,-5.952291 h 0.006 l 30.73161,-11.719505 c 0.17463,0.0403 0.34478,-0.21045 0.52538,-0.21045 0.41344,0 0.82687,-0.267166 1.20598,-0.495526 1.0433,-0.623887 1.44628,-2.022406 0.92688,-3.119431 -1.75972,-3.747794 -1.03136,-8.126937 1.78509,-11.210546 3.1239,-3.410477 8.05081,-6.326921 13.9046,-1.598521 h 0.0179 l 1.49255,1.289563 c 1.50449,1.900017 2.31942,3.988095 2.36121,6.447818 0.12836,7.882159 -7.42245,9.982177 -7.82992,10.104566 z"
         id="path4"
         style="stroke-width:1.49255037" /><path
         inkscape:connector-curvature="0"
         d="m 57.32,113.1 v 7.16 H 36.863 v 8.301 h 18.774 v 6.621 H 36.863 v 9.496 h 20.891 v 7.16 H 28.348 V 113.1 Z m 31.645,0 14.488,38.738 H 94.609 L 91.68,143.213 H 77.191 l -3.039,8.625 H 65.527 L 80.23,113.1 Z m -4.504,9.547 -5.047,14.214 H 89.453 L 84.57,122.647 Z m 53.187,-9.547 v 7.16 h -11.613 v 31.578 H 117.52 V 120.26 h -11.614 v -7.16 z m 40.219,0 v 6.726 l -20.781,24.852 h 21.32 v 7.16 h -32.66 v -6.727 l 20.781,-24.851 h -19.156 v -7.16 z m 30.992,0 14.489,38.738 h -8.844 l -2.93,-8.625 h -14.488 l -3.039,8.625 h -8.625 L 200.125,113.1 Z m -4.504,9.547 -5.042,14.214 h 10.035 l -4.883,-14.214 z"
         id="path6" /><path
         inkscape:connector-curvature="0"
         d="m 53.961,174.8 c 0,0.695 -0.207,1.312 -0.625,1.851 -0.41,0.512 -0.973,0.911 -1.688,1.196 -0.718,0.285 -1.527,0.429 -2.429,0.429 -0.824,0 -1.629,-0.195 -2.406,-0.578 -0.778,-0.383 -1.434,-0.918 -1.965,-1.601 l 1.109,-1.039 c 0.922,1.109 2.008,1.664 3.262,1.664 0.551,0 1.054,-0.067 1.508,-0.2 0.503,-0.152 0.894,-0.363 1.168,-0.64 0.316,-0.305 0.472,-0.664 0.472,-1.082 0,-0.504 -0.156,-0.883 -0.472,-1.141 -0.266,-0.215 -0.661,-0.359 -1.18,-0.426 -0.305,-0.039 -0.805,-0.058 -1.496,-0.058 -1.274,0 -2.242,-0.231 -2.914,-0.696 -0.668,-0.464 -1.004,-1.148 -1.004,-2.05 0,-0.571 0.172,-1.114 0.508,-1.625 0.336,-0.512 0.8,-0.922 1.386,-1.223 0.61,-0.324 1.282,-0.484 2.024,-0.484 0.836,0 1.59,0.129 2.265,0.382 0.719,0.278 1.391,0.708 2.008,1.297 l -0.969,1.141 c -0.578,-0.469 -1.105,-0.793 -1.582,-0.977 -0.472,-0.187 -1.046,-0.277 -1.722,-0.277 -0.391,0 -0.754,0.078 -1.09,0.242 -0.336,0.16 -0.606,0.375 -0.805,0.649 -0.199,0.269 -0.297,0.554 -0.297,0.859 0,0.816 0.754,1.227 2.262,1.227 1.207,0 2.16,0.121 2.863,0.371 0.664,0.234 1.141,0.597 1.426,1.082 0.254,0.426 0.383,0.996 0.383,1.707 z m 6.906,3.476 c -0.996,0 -1.851,-0.175 -2.57,-0.519 -0.715,-0.348 -1.262,-0.848 -1.637,-1.504 -0.375,-0.656 -0.562,-1.438 -0.562,-2.352 v -6.492 h 1.539 v 6.492 c 0,0.914 0.277,1.61 0.84,2.094 0.558,0.484 1.355,0.727 2.39,0.727 1.035,0 1.832,-0.243 2.395,-0.727 0.558,-0.484 0.84,-1.18 0.84,-2.094 v -6.492 h 1.539 v 6.492 c 0,0.914 -0.188,1.696 -0.563,2.352 -0.375,0.656 -0.922,1.156 -1.64,1.504 -0.715,0.344 -1.571,0.519 -2.571,0.519 z m 11.082,-9.742 -0.586,-1.308 h 1.711 l 5.114,10.808 h -1.739 l -0.699,-1.555 h -3.23 c -0.61,0 -1.157,0.059 -1.641,0.172 -0.426,0.106 -0.781,0.243 -1.066,0.414 -0.258,0.153 -0.426,0.309 -0.512,0.469 l -0.274,0.5 h -1.679 z m 1.137,6.379 h 1.969 l -2.325,-4.484 -2.347,5.082 c 0.207,-0.18 0.527,-0.321 0.953,-0.426 0.484,-0.113 1.066,-0.172 1.75,-0.172 z m 14.527,-2.961 h 1.883 c 1.043,0 1.567,-0.504 1.567,-1.512 0,-0.519 -0.133,-0.898 -0.395,-1.128 -0.258,-0.235 -0.652,-0.352 -1.172,-0.352 h -3.902 v 3.418 c 0.293,-0.168 0.625,-0.289 0.996,-0.356 0.273,-0.046 0.617,-0.07 1.023,-0.07 z m -2.019,6.082 h -1.555 v -10.625 h 5.457 c 0.625,0 1.172,0.121 1.637,0.363 0.465,0.243 0.824,0.59 1.082,1.047 0.258,0.457 0.383,0.993 0.383,1.618 0,0.621 -0.125,1.164 -0.383,1.628 -0.258,0.465 -0.621,0.825 -1.09,1.075 -0.469,0.254 -1.012,0.379 -1.629,0.379 h -1.883 c -0.816,0 -1.488,0.14 -2.019,0.425 z m 10.808,0 h -1.523 v -10.625 h 1.523 z m 10.922,0 H 98.68 v -1.566 l 5.98,-7.492 h -5.652 v -1.567 h 7.789 v 1.508 l -6.18,7.562 h 6.707 z m 10.071,0 h -8.645 v -1.566 l 5.98,-7.492 h -5.652 v -1.567 h 7.789 v 1.508 l -6.179,7.562 h 6.707 z m 5.597,-9.5 -0.586,-1.308 h 1.711 l 5.113,10.808 h -1.738 l -0.699,-1.555 h -3.23 c -0.61,0 -1.157,0.059 -1.641,0.172 -0.426,0.106 -0.781,0.243 -1.067,0.414 -0.257,0.153 -0.429,0.309 -0.511,0.469 l -0.274,0.5 h -1.679 z m 1.137,6.379 h 1.965 l -2.321,-4.484 -2.347,5.082 c 0.207,-0.18 0.527,-0.321 0.953,-0.426 0.484,-0.113 1.066,-0.172 1.75,-0.172 z m 12.504,-1.137 v 2.703 h 6.555 v 1.555 h -8.106 v -10.625 h 7.477 v 1.567 h -5.926 v 3.218 c 0.297,-0.172 0.625,-0.285 0.984,-0.343 0.266,-0.047 0.61,-0.071 1.028,-0.071 h 2.32 v 1.582 h -2.32 c -0.391,0 -0.735,0.024 -1.028,0.071 -0.359,0.066 -0.687,0.179 -0.984,0.343 z m 18.117,-3.05 -3.633,4.343 -3.601,-4.343 v 7.308 h -1.524 v -9.129 l -1.238,-1.496 h 2.008 l 4.343,5.211 4.399,-5.211 h 2.008 l -1.239,1.496 v 9.129 h -1.523 z m 17.93,-1.95 -0.996,1.168 c -0.391,-0.398 -0.856,-0.711 -1.395,-0.941 -0.543,-0.227 -1.113,-0.34 -1.711,-0.34 -0.777,0 -1.488,0.176 -2.129,0.527 -0.64,0.352 -1.14,0.829 -1.504,1.438 -0.367,0.637 -0.554,1.344 -0.554,2.121 0,0.742 0.199,1.426 0.597,2.051 0.383,0.59 0.891,1.058 1.532,1.402 0.64,0.348 1.332,0.52 2.074,0.52 0.683,0 1.32,-0.145 1.906,-0.442 0.59,-0.293 1.078,-0.703 1.469,-1.222 l 0.953,1.296 c -0.539,0.606 -1.188,1.079 -1.942,1.415 -0.757,0.339 -1.554,0.507 -2.402,0.507 -1.055,0 -2.023,-0.257 -2.906,-0.769 -0.863,-0.496 -1.543,-1.172 -2.035,-2.039 -0.512,-0.883 -0.77,-1.848 -0.77,-2.903 0,-1.015 0.27,-1.953 0.813,-2.808 0.511,-0.817 1.207,-1.461 2.086,-1.942 0.879,-0.48 1.82,-0.718 2.828,-0.718 0.789,0 1.539,0.152 2.25,0.453 0.691,0.285 1.304,0.695 1.836,1.226 z m 5.84,-0.242 -0.582,-1.308 h 1.707 l 5.113,10.808 h -1.738 l -0.7,-1.555 h -3.23 c -0.61,0 -1.152,0.059 -1.637,0.172 -0.43,0.106 -0.785,0.243 -1.07,0.414 -0.254,0.153 -0.426,0.309 -0.512,0.469 l -0.269,0.5 h -1.684 z m 1.14,6.379 h 1.965 l -2.32,-4.484 -2.352,5.082 c 0.207,-0.18 0.527,-0.321 0.953,-0.426 0.485,-0.113 1.071,-0.172 1.754,-0.172 z m 15.352,-0.113 c 0,0.695 -0.211,1.312 -0.625,1.851 -0.41,0.512 -0.973,0.911 -1.688,1.196 -0.719,0.285 -1.527,0.429 -2.429,0.429 -0.829,0 -1.629,-0.195 -2.407,-0.578 -0.781,-0.383 -1.433,-0.918 -1.965,-1.601 l 1.11,-1.039 c 0.922,1.109 2.008,1.664 3.262,1.664 0.55,0 1.054,-0.067 1.507,-0.2 0.504,-0.152 0.895,-0.363 1.168,-0.64 0.317,-0.305 0.473,-0.664 0.473,-1.082 0,-0.504 -0.156,-0.883 -0.473,-1.141 -0.265,-0.215 -0.66,-0.359 -1.179,-0.426 -0.305,-0.039 -0.805,-0.058 -1.496,-0.058 -1.274,0 -2.243,-0.231 -2.915,-0.696 -0.667,-0.464 -1.003,-1.148 -1.003,-2.05 0,-0.571 0.168,-1.114 0.507,-1.625 0.336,-0.512 0.797,-0.922 1.387,-1.223 0.609,-0.324 1.281,-0.484 2.024,-0.484 0.835,0 1.589,0.129 2.265,0.382 0.719,0.278 1.391,0.708 2.008,1.297 l -0.969,1.141 c -0.582,-0.469 -1.105,-0.793 -1.582,-0.977 -0.472,-0.187 -1.051,-0.277 -1.722,-0.277 -0.391,0 -0.754,0.078 -1.09,0.242 -0.336,0.16 -0.606,0.375 -0.805,0.649 -0.199,0.269 -0.301,0.554 -0.301,0.859 0,0.816 0.758,1.227 2.266,1.227 1.207,0 2.16,0.121 2.863,0.371 0.664,0.234 1.141,0.597 1.426,1.082 0.254,0.426 0.383,0.996 0.383,1.707 z m 5.597,-6.266 -0.586,-1.308 h 1.711 l 5.114,10.808 h -1.739 l -0.699,-1.555 h -3.23 c -0.61,0 -1.157,0.059 -1.641,0.172 -0.426,0.106 -0.781,0.243 -1.066,0.414 -0.258,0.153 -0.426,0.309 -0.512,0.469 l -0.273,0.5 h -1.68 z m 1.137,6.379 h 1.969 l -2.324,-4.484 -2.348,5.082 c 0.207,-0.18 0.527,-0.321 0.953,-0.426 0.484,-0.113 1.067,-0.172 1.75,-0.172 z"
         id="path8" /></g></g></svg>