<?xml version="1.0" encoding="UTF-8" standalone="no"?>
<!-- Created with Inkscape (http://www.inkscape.org/) -->

<svg
   xmlns:dc="http://purl.org/dc/elements/1.1/"
   xmlns:cc="http://creativecommons.org/ns#"
   xmlns:rdf="http://www.w3.org/1999/02/22-rdf-syntax-ns#"
   xmlns:svg="http://www.w3.org/2000/svg"
   xmlns="http://www.w3.org/2000/svg"
   xmlns:sodipodi="http://sodipodi.sourceforge.net/DTD/sodipodi-0.dtd"
   xmlns:inkscape="http://www.inkscape.org/namespaces/inkscape"
   width="166.15703"
   height="35.60004"
   version="1.1"
   viewBox="0 0 166.15704 35.600044"
   xml:space="preserve"
   id="svg14"
   sodipodi:docname="loguinho2.svg"
   inkscape:version="0.92.5 (2060ec1f9f, 2020-04-08)"><defs
     id="defs18" /><sodipodi:namedview
     pagecolor="#ffffff"
     bordercolor="#666666"
     borderopacity="1"
     objecttolerance="10"
     gridtolerance="10"
     guidetolerance="10"
     inkscape:pageopacity="0"
     inkscape:pageshadow="2"
     inkscape:window-width="1366"
     inkscape:window-height="705"
     id="namedview16"
     showgrid="false"
     inkscape:zoom="3.4264972"
     inkscape:cx="106.71321"
     inkscape:cy="41.071993"
     inkscape:window-x="-8"
     inkscape:window-y="399"
     inkscape:window-maximized="1"
     inkscape:current-layer="svg14" /><metadata
     id="metadata2"><rdf:RDF><cc:Work
         rdf:about=""><dc:format>image/svg+xml</dc:format><dc:type
           rdf:resource="http://purl.org/dc/dcmitype/StillImage" /><dc:title></dc:title></cc:Work></rdf:RDF></metadata><path
     inkscape:connector-curvature="0"
     d="M 17.923529,7.8173877 V 12.246921 H 5.2678054 v 5.135413 H 16.882341 v 4.096081 H 5.2678054 v 5.8747 H 18.19202 v 4.429536 H 0 V 7.8173877 Z m 19.577178,0 8.963002,23.9652633 h -5.471341 l -1.812026,-5.335858 h -8.963621 l -1.880076,5.335858 H 23.000788 L 32.0968,7.8173877 Z m -2.786399,5.9062503 -3.122326,8.793489 h 6.210625 L 34.78174,13.723638 Z M 67.618444,7.8173877 v 4.4295333 h -7.184383 v 19.53573 H 55.166257 V 12.246921 H 47.981258 V 7.8173877 Z m 24.881485,0 v 4.1610373 l -12.856165,15.37469 h 13.189618 v 4.429536 H 72.628274 V 27.620992 L 85.484438,12.246921 H 73.633578 V 7.8173877 Z m 19.173201,0 8.96363,23.9652633 h -5.47135 l -1.81265,-5.335858 h -8.963 l -1.88007,5.335858 H 97.173829 L 106.26984,7.8173877 Z m -2.7864,5.9062503 -3.11923,8.793489 h 6.20815 l -3.02087,-8.793489 z"
     id="path6"
     style="fill:#ff4545;fill-opacity:1;stroke-width:0.61865008" /><path
     inkscape:connector-curvature="0"
     d="m 164.98201,14.867983 -0.63372,-0.734945 C 151.07454,-1.1731207 138.80428,-0.0129797 138.28601,0.0389006 c -0.005,0 -0.012,0.00613 -0.0179,0.00613 -2.83501,0.059507 -5.12579,2.374199 -5.12579,5.2229329 0,0.7293496 0.15258,1.4505611 0.44299,2.1137895 0,0 -9.40168,24.56035 -9.38744,24.596462 0.002,0.0076 0.0198,2.815165 0.0198,2.815165 0,0.258374 0.091,0.502509 0.30008,0.653567 0.14089,0.09918 0.27211,0.153092 0.4369,0.153092 0.0854,0 0.177,-0.01577 0.25837,-0.04172 l 16.17435,-5.370433 c 0.30161,0.969417 0.81836,1.855926 1.95664,1.855926 0.66984,0 1.20998,-0.207006 1.60721,-0.613894 0.63017,-0.645937 0.72528,-1.609248 0.72325,-2.666652 l 16.67687,-5.538781 c 1.33714,-0.379424 3.8563,-1.931199 3.80492,-5.080013 -0.0179,-1.19829 -0.41757,-2.320797 -1.17439,-3.276477 z M 138.37552,1.644079 c 0.0157,0 0.0275,-0.0076 0.0437,-0.0076 0.0137,0 0.0275,0.0056 0.0437,0.00347 0.11091,-0.01373 10.94076,-0.971446 22.95467,11.670605 -1.64282,-0.07578 -3.0832,0.456734 -4.11824,1.587377 -0.67542,0.739013 -1.10876,1.674858 -1.27152,2.653935 -5.72798,-6.786414 -12.63188,-10.3665285 -20.99651,-10.9565187 -0.16886,-0.4196045 -0.27974,-0.8626051 -0.27974,-1.3274754 0,-1.9968104 1.62706,-3.6238585 3.62387,-3.6238585 z m -12.54643,30.606217 13.93697,-5.014403 c 0.28789,-0.11748 0.51676,-0.145462 0.62764,-0.09154 0.2726,0.142918 0.46333,0.838193 0.61033,1.482092 l -15.17494,5.052546 z m 10.64474,-6.18065 c -2.02427,0 -3.73271,-1.108774 -3.73271,-2.424042 0,-1.317305 1.71047,-2.426078 3.73271,-2.426078 2.02275,0 3.73116,1.108773 3.73116,2.426078 0,1.315268 -1.70841,2.424042 -3.73116,2.424042 z m 7.32349,4.233684 c -0.032,0.03357 -0.12304,0.127158 -0.45317,0.127158 -0.30009,0 -0.53606,-1.095041 -0.67747,-1.748606 -0.25838,-1.199815 -0.52844,-2.439811 -1.5238,-2.964189 -0.026,-0.01373 -0.0575,-0.01985 -0.0855,-0.03153 0.46893,-0.602197 0.75884,-1.293399 0.75884,-2.040552 0,-2.262811 -2.34623,-4.037358 -5.34043,-4.037358 -2.99572,0 -5.34449,1.774547 -5.34449,4.037358 0,1.742506 1.39869,3.184927 3.40769,3.759153 l -8.18558,2.944353 6.38917,-16.369159 v 0.002 c 0,2.264849 2.34674,4.036851 5.34247,4.036851 2.99622,0 5.34245,-1.774036 5.34245,-4.036851 0,-2.262813 -2.34623,-4.0353246 -5.34245,-4.0353246 -1.89713,0 -3.53028,0.7135826 -4.47426,1.8101486 l 1.38291,-3.5445126 c 8.32649,0.608299 15.12154,4.4127136 20.73,11.5729486 l -9.78467,3.52061 c -0.003,0 -0.004,0.002 -0.008,0.0041 -0.003,0.002 -0.008,0 -0.0107,0.002 -1.97495,0.764951 -1.91544,2.951981 -1.86764,4.708726 0.0219,0.877865 0.0493,1.968835 -0.25633,2.282649 z m -9.44695,-16.32135 c 0,-1.313234 1.70843,-2.426077 3.7327,-2.426077 2.02276,0 3.73117,1.110807 3.73117,2.426077 0,1.315272 -1.70841,2.42557 -3.73117,2.42557 -2.02427,0 -3.7327,-1.110298 -3.7327,-2.42557 z m 27.52657,7.70089 -16.22216,5.610497 c 0.012,-1.182015 0.15919,-2.028344 0.84429,-2.028344 h 0.003 l 10.4723,-3.993618 c 0.0594,0.01373 0.11744,-0.0717 0.17904,-0.0717 0.14089,0 0.28177,-0.09105 0.41096,-0.168858 0.35552,-0.2126 0.49285,-0.689169 0.31585,-1.062998 -0.59965,-1.277124 -0.35144,-2.769391 0.6083,-3.820184 1.06452,-1.162177 2.74345,-2.156003 4.73822,-0.544722 h 0.005 l 0.50861,0.43944 c 0.51268,0.647464 0.79038,1.359011 0.80462,2.197203 0.0438,2.685978 -2.52933,3.401596 -2.66817,3.443302 z"
     id="path4"
     style="fill:#ff4545;fill-opacity:1;stroke-width:0.50861174" /></svg>